<?xml version="1.0" encoding="UTF-8"?>
<svg width="124px" height="112px" viewBox="0 0 124 112" version="1.1" xmlns="http://www.w3.org/2000/svg" xmlns:xlink="http://www.w3.org/1999/xlink">
    <!-- Generator: Sketch 55.2 (78181) - https://sketchapp.com -->
    <title>Icon 3 - Older Adults</title>
    <desc>Created with Sketch.</desc>
    <defs>
        <ellipse id="path-1" cx="42.4854959" cy="42.4655685" rx="42.1896116" ry="42.1525544"></ellipse>
    </defs>
    <g id="Icon-3---Older-Adults" stroke="none" stroke-width="1" fill="none" fill-rule="evenodd">
        <g id="Human-3" transform="translate(5.000000, 7.000000)">
            <g id="Mask" transform="translate(15.500000, 19.148221)">
                <mask id="mask-2" fill="white">
                    <use xlink:href="#path-1"></use>
                </mask>
                <use fill="#5D8F2B" xlink:href="#path-1"></use>
                <g id="Humaaan" mask="url(#mask-2)">
                    <g transform="translate(-22.500000, -19.148221)">
                        <g id="Head" transform="translate(84.364629, 19.678046) rotate(32.000000) translate(-84.364629, -19.678046) translate(74.364629, 3.678046)">
                            <g transform="translate(1.029412, 1.115385)" fill="#D4A181">
                                <path d="M3.5236168,14.5919767 C1.55847891,12.303659 0.228432486,9.49929416 0.450684025,6.3569228 C1.09105259,-2.69712409 13.7956969,-0.705349132 16.2670132,3.86435624 C18.7383296,8.4340616 18.444673,20.0254982 15.2507168,20.842232 C13.9769718,21.1679443 11.2635167,20.3700801 8.50185211,18.7187462 L10.2352941,30.8846154 L0,30.8846154 L3.5236168,14.5919767 Z"></path>
                            </g>
                            <path d="M8.58455451,9.59478555 C8.48449709,9.58299049 8.38266867,9.57692308 8.27941176,9.57692308 C6.86621255,9.57692308 5.72058824,10.713431 5.72058824,12.1153846 C5.72058824,12.8270923 6.01583035,13.4703913 6.49144023,13.9313213 C5.89936315,14.7603838 5.23581461,15.6264506 4.47545885,16.5201189 C1.618967,14.8199775 -1.60655224,9.63980044 1.18613219,4.85873804 C1.95803896,2.5165699 4.81136769,1.46875574 6.87519414,0.887857695 C8.54699994,0.194100912 10.2824926,0.11587922 11.7474955,0.531780159 C14.6193069,0.776146187 17.1836968,1.64487098 17.9104655,2.16078524 C17.9104655,4.85799551 17.3836505,5.65824989 12.8839318,5.58771043 C11.778278,6.16698068 10.9283071,7.16448333 10.0429979,8.47223921 C10.4347896,13.8864292 11.4711822,16.5935243 13.1521758,16.5935243 C15.6738138,16.5935243 17.8132445,15.0054418 18.9196787,15.0054418 C19.7262317,15.0054418 19.5461532,16.0067364 19.0115277,16.7491251 C18.5704444,17.3616197 16.4224059,17.9519913 16.4224059,18.9015636 C16.4224059,19.8511359 18.1195345,19.1165042 18.1195345,19.679677 C18.1195345,20.6112335 18.4178023,22.3627263 16.7880221,22.3627263 C15.1386301,22.3627263 10.4095311,21.7664393 9.59909158,19.3379305 C9.07605764,17.770642 8.73787862,14.522927 8.58455451,9.59478555 Z" id="Hair" fill="#DDE3E9"></path>
                        </g>
                        <g id="Bottom" transform="translate(0.000000, 62.000000)">
                            <polygon id="Leg" fill="#244645" points="45.6133333 0 66.1281662 54.8300069 80.5075537 95.2426778 88.7066667 95.2426778 68.9407734 4.22962455e-14"></polygon>
                            <path d="M40.5430946,0 C40.3200976,18.8133115 40.4813153,44.1423818 39.9617368,45.3151079 C39.6153512,46.0969253 28.8414389,55.0047171 7.64,72.0384832 L11.8661249,79.2970711 C37.0371118,62.9014522 50.2660479,53.6114307 51.5529332,51.4270069 C53.4832612,48.1503711 63.1810774,17.9983394 68.2266667,0 L40.5430946,0 Z" id="Leg" fill="#295150"></path>
                        </g>
                        <g id="Body" transform="translate(67.201003, 60.519966) rotate(21.000000) translate(-67.201003, -60.519966) translate(18.201003, 21.519966)">
                            <path d="M75.9404315,42.5552233 L88.001922,54.377693 C91.5113711,55.8817832 94.3868648,57.5426026 96.628403,59.360151 C97.1324914,59.9710908 97.6812736,61.1416832 95.3095629,60.6178599 C92.9378521,60.0940366 90.4197216,59.6502253 89.973963,60.4251935 C89.5282044,61.2001618 90.8416686,62.3876886 90.0178514,63.4019226 C89.4686398,64.0780786 87.6215982,61.9273587 84.4767265,56.9497627 L71.9343716,49.51991 L75.9404315,42.5552233 Z M16.9597942,31.8554795 L26.2832931,31.8906366 C19.1822194,55.0067036 15.4127417,67.1099098 14.97486,68.2002553 C13.9896262,70.6535327 16.0745134,74.3898318 16.9660938,76.3976909 C14.0622459,77.70326 14.371654,72.8682049 10.708528,74.5805314 C7.36499641,76.1434637 4.82158026,78.9753924 0.958612648,76.5804798 C0.483683479,76.2860393 -0.0367615148,75.1774179 1.22069939,74.3110889 C4.35349306,72.1527474 8.86803855,68.3752609 9.47802474,67.131872 C10.3098499,65.4362891 12.803773,53.6774916 16.9597942,31.8554795 Z" id="Skin" fill="#B28B67"></path>
                            <path d="M43.2621758,7.14716918 L46.8746472,6.19418472 C54.4478842,26.2100271 85.3581437,37.6009624 87.8517169,45.1129171 C88.7661761,47.8677494 86.8754577,49.4661979 87.9913529,50.2320344 L83.5307449,54.1556521 C82.6406302,53.2798799 81.0692842,55.1617986 77.3655699,54.2655934 C73.6618556,53.3693882 45.3880627,31.4461666 43.2621758,7.14716918 Z" id="Clothes-Back" fill="#CACFCE" transform="translate(65.686363, 30.354216) rotate(5.000000) translate(-65.686363, -30.354216) "></path>
                            <path d="M51.5762004,7.38262118 C50.8948225,35.1847389 66.8569259,42.1643033 63.334811,53.1896237 C60.4486523,62.2242022 32.8233558,71.9363361 28.0429687,63.0803168 C26.1079291,59.4955132 25.2299937,55.1599467 25.130381,50.4462493 C23.9086142,54.0676084 22.9423324,57.1851648 22.2315345,59.7989214 C21.0053088,64.3080169 16.2514934,65.0247578 16.2514934,66.7618233 L9.98840884,65.0247578 C10.4132191,62.6648822 7.46064971,61.5157635 8.25231055,56.2435956 C11.799416,32.6211872 21.3298495,15.4980456 36.843611,4.87417099 L36.845202,4.85131052 C36.9959417,2.64731876 38.9068167,0.985114459 41.110625,1.13848986 C41.1115038,1.13855102 41.1123827,1.13861248 41.1130763,1.1413098 L47.9987915,1.62509729 C49.8724502,1.75899442 51.3539674,3.16147615 51.6618281,4.93351109 L51.6768849,4.93618094 C51.6756222,4.95816467 51.6743696,4.98013604 51.6731272,5.00209506 C51.7182634,5.29181446 51.7320897,5.59100275 51.7112444,5.89579248 L51.6429449,6.87716933 C51.6311821,7.04915408 51.6087016,7.21783979 51.5762004,7.38262118 Z" id="Clothes-Front" fill="#E1E7E6"></path>
                        </g>
                    </g>
                </g>
            </g>
            <g id="Humaaan">
                <g id="Head" transform="translate(77.364629, 19.678046) rotate(32.000000) translate(-77.364629, -19.678046) translate(67.364629, 3.678046)">
                    <g transform="translate(1.029412, 1.115385)" fill="#D4A181">
                        <path d="M3.5236168,14.5919767 C1.55847891,12.303659 0.228432486,9.49929416 0.450684025,6.3569228 C1.09105259,-2.69712409 13.7956969,-0.705349132 16.2670132,3.86435624 C18.7383296,8.4340616 18.444673,20.0254982 15.2507168,20.842232 C13.9769718,21.1679443 11.2635167,20.3700801 8.50185211,18.7187462 L10.2352941,30.8846154 L0,30.8846154 L3.5236168,14.5919767 Z"></path>
                    </g>
                    <path d="M8.58455451,9.59478555 C8.48449709,9.58299049 8.38266867,9.57692308 8.27941176,9.57692308 C6.86621255,9.57692308 5.72058824,10.713431 5.72058824,12.1153846 C5.72058824,12.8270923 6.01583035,13.4703913 6.49144023,13.9313213 C5.89936315,14.7603838 5.23581461,15.6264506 4.47545885,16.5201189 C1.618967,14.8199775 -1.60655224,9.63980044 1.18613219,4.85873804 C1.95803896,2.5165699 4.81136769,1.46875574 6.87519414,0.887857695 C8.54699994,0.194100912 10.2824926,0.11587922 11.7474955,0.531780159 C14.6193069,0.776146187 17.1836968,1.64487098 17.9104655,2.16078524 C17.9104655,4.85799551 17.3836505,5.65824989 12.8839318,5.58771043 C11.778278,6.16698068 10.9283071,7.16448333 10.0429979,8.47223921 C10.4347896,13.8864292 11.4711822,16.5935243 13.1521758,16.5935243 C15.6738138,16.5935243 17.8132445,15.0054418 18.9196787,15.0054418 C19.7262317,15.0054418 19.5461532,16.0067364 19.0115277,16.7491251 C18.5704444,17.3616197 16.4224059,17.9519913 16.4224059,18.9015636 C16.4224059,19.8511359 18.1195345,19.1165042 18.1195345,19.679677 C18.1195345,20.6112335 18.4178023,22.3627263 16.7880221,22.3627263 C15.1386301,22.3627263 10.4095311,21.7664393 9.59909158,19.3379305 C9.07605764,17.770642 8.73787862,14.522927 8.58455451,9.59478555 Z" id="Hair" fill="#DDE3E9"></path>
                </g>
                <g id="Body" transform="translate(60.201003, 60.519966) rotate(21.000000) translate(-60.201003, -60.519966) translate(11.201003, 21.519966)">
                    <path d="M75.9404315,42.5552233 L88.001922,54.377693 C91.5113711,55.8817832 94.3868648,57.5426026 96.628403,59.360151 C97.1324914,59.9710908 97.6812736,61.1416832 95.3095629,60.6178599 C92.9378521,60.0940366 90.4197216,59.6502253 89.973963,60.4251935 C89.5282044,61.2001618 90.8416686,62.3876886 90.0178514,63.4019226 C89.4686398,64.0780786 87.6215982,61.9273587 84.4767265,56.9497627 L71.9343716,49.51991 L75.9404315,42.5552233 Z M16.9597942,31.8554795 L26.2832931,31.8906366 C19.1822194,55.0067036 15.4127417,67.1099098 14.97486,68.2002553 C13.9896262,70.6535327 16.0745134,74.3898318 16.9660938,76.3976909 C14.0622459,77.70326 14.371654,72.8682049 10.708528,74.5805314 C7.36499641,76.1434637 4.82158026,78.9753924 0.958612648,76.5804798 C0.483683479,76.2860393 -0.0367615148,75.1774179 1.22069939,74.3110889 C4.35349306,72.1527474 8.86803855,68.3752609 9.47802474,67.131872 C10.3098499,65.4362891 12.803773,53.6774916 16.9597942,31.8554795 Z" id="Skin" fill="#D4A181"></path>
                    <path d="M43.2621758,7.14716918 L46.8746472,6.19418472 C54.4478842,26.2100271 85.3581437,37.6009624 87.8517169,45.1129171 C88.7661761,47.8677494 86.8754577,49.4661979 87.9913529,50.2320344 L83.5307449,54.1556521 C82.6406302,53.2798799 81.0692842,55.1617986 77.3655699,54.2655934 C73.6618556,53.3693882 45.3880627,31.4461666 43.2621758,7.14716918 Z" id="Clothes-Back" fill="#CACFCE" transform="translate(65.686363, 30.354216) rotate(5.000000) translate(-65.686363, -30.354216) "></path>
                    <path d="M51.5762004,7.38262118 C50.8948225,35.1847389 66.8569259,42.1643033 63.334811,53.1896237 C60.4486523,62.2242022 32.8233558,71.9363361 28.0429687,63.0803168 C26.1079291,59.4955132 25.2299937,55.1599467 25.130381,50.4462493 C23.9086142,54.0676084 22.9423324,57.1851648 22.2315345,59.7989214 C21.0053088,64.3080169 16.2514934,65.0247578 16.2514934,66.7618233 L9.98840884,65.0247578 C10.4132191,62.6648822 7.46064971,61.5157635 8.25231055,56.2435956 C11.799416,32.6211872 21.3298495,15.4980456 36.843611,4.87417099 L36.845202,4.85131052 C36.9959417,2.64731876 38.9068167,0.985114459 41.110625,1.13848986 C41.1115038,1.13855102 41.1123827,1.13861248 41.1130763,1.1413098 L47.9987915,1.62509729 C49.8724502,1.75899442 51.3539674,3.16147615 51.6618281,4.93351109 L51.6768849,4.93618094 C51.6756222,4.95816467 51.6743696,4.98013604 51.6731272,5.00209506 C51.7182634,5.29181446 51.7320897,5.59100275 51.7112444,5.89579248 L51.6429449,6.87716933 C51.6311821,7.04915408 51.6087016,7.21783979 51.5762004,7.38262118 Z" id="Clothes-Front" fill="#E1E7E6"></path>
                </g>
            </g>
        </g>
    </g>
</svg>