<?xml version="1.0" encoding="UTF-8"?>
<svg width="124px" height="112px" viewBox="0 0 124 112" version="1.1" xmlns="http://www.w3.org/2000/svg" xmlns:xlink="http://www.w3.org/1999/xlink">
    <!-- Generator: Sketch 55.2 (78181) - https://sketchapp.com -->
    <title>Icon 1 - Individuals</title>
    <desc>Created with Sketch.</desc>
    <defs>
        <ellipse id="path-1" cx="43.0381544" cy="42.4947831" rx="42.68596" ry="42.1525544"></ellipse>
    </defs>
    <g id="Icon-1---Individuals" stroke="none" stroke-width="1" fill="none" fill-rule="evenodd">
        <g id="Human-1" transform="translate(16.000000, 0.000000)">
            <g id="Mask" transform="translate(3.500000, 26.148221)">
                <mask id="mask-2" fill="white">
                    <use xlink:href="#path-1"></use>
                </mask>
                <use fill="#3BA9D7" xlink:href="#path-1"></use>
                <g id="Human" mask="url(#mask-2)">
                    <g transform="translate(-20.000000, -20.000000)">
                        <g id="Head/Front" transform="translate(51.000000, 0.000000)">
                            <path d="M13.0053763,7.08353366 C18.0450159,5.30849106 24.5849769,7.38277183 23.7097837,11.5432726 C23.1477923,14.2148719 20.1044649,15.5492889 17.1103728,16.9773408 C16.6696707,16.199411 15.8291434,15.6737547 14.8647055,15.6737547 C13.443418,15.6737547 12.2912369,16.815363 12.2912369,18.2236082 C12.2912369,18.7308626 12.4407281,19.2035218 12.6984401,19.600694 C11.691229,20.4914823 10.9805481,21.5637025 10.8086721,22.9543397 C9.18526079,22.9543397 6.5613753,18.1082737 7.42762317,13.5105357 C7.20051036,13.5358722 6.96974825,13.5488768 6.7359986,13.5488768 C3.27317344,13.5488768 0.465999004,10.6948561 0.465999004,7.17424305 C0.465999004,3.65363006 3.27317344,0.799609318 6.7359986,0.799609318 C10.1690346,0.799609318 12.9576519,3.60473753 13.0053763,7.08353366 Z" id="Hair" fill="#152C2C"></path>
                        </g>
                        <g id="Bottom/Skinny-Jeans-1" transform="translate(0.000000, 72.000000)">
                            <polygon id="Leg" fill="#997659" points="55.9408368 0 87.3443484 52.0569872 110.887947 96.0667819 115.959029 96.0667819 76.5113994 2.13311106e-13"></polygon>
                            <path d="M104.349232,89.0194906 L114.128725,86.0861575 C109.844063,73.385657 104.592601,59.4092219 98.3743388,44.1568521 C92.1560771,28.9044823 85.4778953,14.1855316 78.3397933,0 L50.7189525,0 C58.6549869,17.9440462 67.0682475,34.2485155 75.9587344,48.913408 C84.8492214,63.5783005 94.3127206,76.9469947 104.349232,89.0194906 Z" id="Pant" fill="#244645"></path>
                            <path d="M53.8770172,0 C50.9131155,18.2931827 45.1965607,41.6648412 44.6570721,42.3860976 C44.297413,42.8669351 31.3495935,47.1689185 5.81361367,55.2920476 L6.90902865,59.7259893 C37.3606247,55.3695026 53.4060189,51.989561 55.0452111,49.5861646 C57.5039994,45.9810698 69.7810615,17.500742 74.5361969,0 L53.8770172,0 Z" id="Leg" fill="#B28B67"></path>
                            <path d="M14.789942,51.4592442 L16.7193962,58.6004279 C39.4954158,60.5811323 53.4507861,59.1499489 58.585507,54.3068776 C63.720228,49.4638064 69.5722942,31.3615138 76.1417056,-1.13686838e-13 L49.8035844,-1.13686838e-13 C45.6413599,25.6808599 43.3144056,39.0603169 42.8227213,40.138371 C42.3310371,41.216425 32.9867773,44.9900495 14.789942,51.4592442 Z" id="Pant" fill="#295150"></path>
                        </g>
                        <g id="Body/Long-Sleeve-1" transform="translate(27.000000, 28.000000)">
                            <path d="M33.3486002,0.00665325542 L44.2941685,2.48993853 C44.2941685,21.1392552 50.2911353,33.0378273 53.3670497,46.7494024 L23.8060013,46.7494024 C23.3895823,51.4873285 23.1338631,56.3570579 23.0006088,61.3585906 L0.866335356,61.3585906 C5.88208586,34.9217883 16.4686382,14.4689247 32.6259924,0 L33.3428434,0 L33.3486002,0.00665325542 Z" id="Clothes" fill="#E1E7E6"></path>
                            <path d="M28.4699459,20.1436702 C27.708132,31.76477 28.1561766,40.6333474 29.8140795,46.7494024 L23.8060013,46.7494024 C24.6309262,37.3635842 26.0864932,28.4950083 28.4699446,20.1436747 Z" id="Shade" fill-opacity="0.1" fill="#000000"></path>
                        </g>
                    </g>
                </g>
            </g>
            <g id="Human" transform="translate(0.500000, 0.148221)">
                <g id="Head/Front" transform="translate(34.000000, 0.000000)">
                    <g id="Head" transform="translate(6.571999, 11.874828)" fill="#F3BF9F">
                        <path d="M3.45363026,14.3243376 C1.5275242,12.0779911 0.22389533,9.32506261 0.441732479,6.24032713 C1.06938196,-2.64765472 13.5216849,-0.692411952 15.9439157,3.79347804 C18.3661464,8.27936804 18.0783224,19.6582 14.947805,20.4599537 C13.6993593,20.7796919 11.0397993,19.9964617 8.3329872,18.3754158 L10.0319994,30.3181444 L0,30.3181444 L3.45363026,14.3243376 Z"></path>
                    </g>
                    <path d="M18.5533387,10.7825348 C17.1825322,10.3672177 15.1926028,10.2263704 14.3554987,10.3216524 C14.8316816,9.18807765 15.0206381,7.92513896 14.866593,6.69544518 C14.7168678,5.50056985 14.179502,4.48316816 13.6825194,3.41705412 C13.4534357,2.92564532 13.1938247,2.43691487 12.80676,2.06104304 C12.4124635,1.67810709 11.9133369,1.42533857 11.3899548,1.30474622 C10.854349,1.18130813 10.2942956,1.19158627 9.75785774,1.30360792 C9.52055024,1.35315725 9.30762627,1.46096052 9.07489468,1.52088842 C8.8365632,1.58228941 8.72094939,1.43407666 8.54796066,1.28512736 C8.13107256,0.926229534 7.51991614,0.74905721 6.99250213,0.685647463 C6.40076933,0.614537482 5.78676496,0.703224082 5.22242365,0.896499937 C4.67312206,1.08465346 4.14542005,1.39018533 3.74827558,1.83529229 C3.57144693,2.03342264 3.41093797,2.25893904 3.30661994,2.50792441 C3.26383675,2.61010316 3.25676489,2.67063368 3.15414283,2.70806351 C3.05923263,2.74271456 2.94822673,2.74371894 2.85027659,2.77669603 C1.90315853,3.09541873 1.09338187,3.82252162 0.652462218,4.75609121 C0.395219091,5.30073206 0.273365399,6.2596521 0.306740767,7.3344439 C0.340116134,8.40923571 1.31686563,11.2136742 2.23041633,12.2366 C3.04585688,13.1496468 4.24445818,13.7521733 5.40120427,14.015923 C4.63341081,14.8878908 4.12231649,15.9775072 3.74437165,17.0856713 C3.33385143,18.2894186 3.07977624,19.5401708 2.98595402,20.8145594 C2.89683571,22.0253709 2.88857986,23.3058193 3.17427045,24.4907847 C3.44152939,25.5989153 4.01307056,26.507978 4.96719649,27.084692 C5.40424421,27.348877 5.8744753,27.5473421 6.34742634,27.7287328 C6.81352952,27.9074787 7.28104066,28.0812696 7.76928741,28.1815735 C8.69333391,28.371334 9.75804974,28.3387587 10.4698443,27.6079731 C10.7263834,27.3445247 11.0085221,27.0134816 11.1956865,26.6916453 C11.2629812,26.5759075 11.3035565,26.5002108 11.221798,26.3870843 C11.1238479,26.2515937 10.9654189,26.1477745 10.8395973,26.0417791 C10.1220748,25.4374447 9.67792326,24.6306611 9.56595738,23.6718817 C9.45235953,22.6990744 9.71536255,21.4434341 10.6672805,21.0188835 C11.8423303,20.4947989 13.1363857,21.0963545 14.180782,21.6570989 C14.6246456,20.1005804 15.5360203,18.6991045 16.9648892,17.9851255 C18.5456913,17.1952489 20.3596409,17.1028126 21.9841542,16.4250917 C22.4074741,16.2484885 22.838634,16.0480146 23.1503081,15.6881794 C23.2805456,15.5377905 23.4333427,15.3427067 23.4853417,15.1438063 C23.5536604,14.8825341 23.3840636,14.6634792 23.2530581,14.4597913 C22.5584153,13.3797833 19.9241452,11.1978518 18.5533387,10.7825348 Z" id="hair" fill="#A5581D"></path>
                </g>
                <g id="Body/Long-Sleeve-1" transform="translate(0.000000, 33.000000)">
                    <path d="M73.1519554,27.261075 L89.6344018,25.0130861 C92.9315598,23.1793665 95.9647852,21.9379704 98.7340781,21.2888978 C99.5133858,21.2661472 100.753115,21.5494098 98.9062623,23.0888607 C97.0594099,24.6283115 95.1855177,26.3312655 95.5145709,27.1528436 C95.843624,27.9744216 97.5611734,27.6687396 97.8457034,28.9323964 C98.0353901,29.7748343 95.247912,29.9117221 89.4832692,29.3430597 L76.109176,34.6446464 L73.1519554,27.261075 Z M21.3745403,31.0756983 L30.5157839,31.1100005 C20.4921622,53.664002 15.2656903,65.4729197 14.8363683,66.5367535 C13.8703939,68.9303796 15.9145257,72.5758308 16.7886776,74.534869 C13.941594,75.8086933 14.2449538,71.0912022 10.6534343,72.7618936 C7.37526194,74.2868234 4.88156436,77.0498939 1.09410982,74.7132134 C0.628464543,74.4259322 0.11819318,73.3442669 1.3510733,72.4990026 C4.4226273,70.393141 8.84892269,66.7075038 9.44698491,65.4943478 C10.2625496,63.8399929 14.2384014,52.3671097 21.3745403,31.0756983 Z" id="Skin" fill="#F3BF9F"></path>
                    <path d="M44.5452855,4.03624251 L51.7168959,3.88737285 C54.8626175,19.6184581 65.3052594,28.8150657 86.4231324,23.5447753 L91.0578957,43.7518334 C71.2685679,48.0894306 53.0138117,41.6127939 47.5183292,20.2337978 C46.0957224,14.6994511 44.8490623,8.91942955 44.5452855,4.03624251 Z" id="Clothes-Back" fill="#CACFCE" transform="translate(67.801591, 24.456417) rotate(5.000000) translate(-67.801591, -24.456417) "></path>
                    <path d="M42.8824094,0.00665325542 L53.7266299,2.48993853 C53.7266299,21.1392552 59.6680692,33.0378273 62.7155029,46.7494024 L33.428168,46.7494024 C33.0156047,51.4873285 32.7622532,56.3570579 32.6302328,61.3585906 L10.7009063,61.3585906 C15.6702147,34.9217883 26.1587434,14.4689247 42.1664925,0 L42.8767059,0 L42.8824094,0.00665325542 Z" id="Clothes" fill="#E1E7E6"></path>
                    <path d="M38.0489279,20.1436702 C37.2941678,31.76477 37.7380638,40.6333474 39.3806158,46.7494024 L33.428168,46.7494024 C34.2454546,37.3635842 35.6875442,28.4950083 38.0489266,20.1436747 Z" id="Shade" fill-opacity="0.1" fill="#000000"></path>
                </g>
            </g>
        </g>
    </g>
</svg>