<?xml version="1.0" encoding="UTF-8"?>
<svg width="124px" height="112px" viewBox="0 0 124 112" version="1.1" xmlns="http://www.w3.org/2000/svg" xmlns:xlink="http://www.w3.org/1999/xlink">
    <!-- Generator: Sketch 55.2 (78181) - https://sketchapp.com -->
    <title>Icon 2 - Young Adults</title>
    <desc>Created with Sketch.</desc>
    <defs>
        <ellipse id="path-1" cx="42.4854959" cy="42.4655685" rx="42.1896116" ry="42.1525544"></ellipse>
    </defs>
    <g id="Icon-2---Young-Adults" stroke="none" stroke-width="1" fill="none" fill-rule="evenodd">
        <g id="Human-2" transform="translate(13.000000, 11.000000)">
            <g id="Mask" transform="translate(7.500000, 15.148221)">
                <mask id="mask-2" fill="white">
                    <use xlink:href="#path-1"></use>
                </mask>
                <use fill="#7D3994" xlink:href="#path-1"></use>
                <g id="Human" mask="url(#mask-2)">
                    <g transform="translate(40.062112, 69.102484) scale(-1, 1) translate(-40.062112, -69.102484) translate(-15.937888, -14.397516)">
                        <g id="Head/Front" transform="translate(46.000000, 0.000000)">
                            <g id="Head" transform="translate(1.571999, 0.874828)" fill="#B28B67">
                                <path d="M3.45363026,14.3243376 C1.5275242,12.0779911 0.22389533,9.32506261 0.441732479,6.24032713 C1.06938196,-2.64765472 13.5216849,-0.692411952 15.9439157,3.79347804 C18.3661464,8.27936804 18.0783224,19.6582 14.947805,20.4599537 C13.6993593,20.7796919 11.0397993,19.9964617 8.3329872,18.3754158 L10.0319994,30.3181444 L0,30.3181444 L3.45363026,14.3243376 Z"></path>
                            </g>
                            <path d="M8.14706205,10.3718942 C7.81898954,10.1478733 7.42703301,10.0118035 7.0059982,10.0118035 C5.85172314,10.0118035 4.91599833,11.0344942 4.91599833,12.0883887 C4.91599833,13.1847734 5.43707959,14.0325021 6.18121152,14.3921404 C5.7837753,15.1641833 5.38414832,15.7244779 4.91599833,15.8262421 C3.10946076,15.644669 0.7359986,11.1832135 0.7359986,7.51990118 C0.7359986,3.51022634 3.94706723,0.044194346 9.93199801,0.044194346 C15.3112695,0.044194346 17.3508995,2.2479569 17.4559975,4.19736481 C15.1508753,4.82682125 11.1229844,5.0692052 5.3339983,5.0279989 L5.3339983,5.44331595 L10.349998,5.858633 L11.1859979,8.35053527 C9.85595232,8.25188123 8.90550708,9.15831623 8.14706205,10.3718942 Z" id="Combined-Shape" fill="#152C2C"></path>
                        </g>
                        <g id="Bottom/Skinny-Jeans-1" transform="translate(0.000000, 54.000000)">
                            <path d="M77.5365286,8.1026043 C69.5191354,14.6320646 72.3626715,71.626927 71.8265477,72.3464727 C71.5882705,72.6662708 58.9089887,75.4243597 33.7887025,80.6207393 L34.8569076,85.0290519 C64.2255416,83.4737098 79.7693321,81.6060506 81.488279,79.4260743 C83.9493186,76.3049727 87.0381137,58.8866992 90.7546641,27.1712539 L77.5365286,8.1026043 Z" id="Leg" fill="#B28B67" transform="translate(62.271683, 46.565828) rotate(-55.000000) translate(-62.271683, -46.565828) "></path>
                            <path d="M37.9964745,75.9672845 L39.8803118,83.0666249 C61.759909,85.4978139 76.2002156,82.3446898 81.2959263,77.5079246 C84.6930668,74.2834145 87.7894961,56.9124249 90.5852143,25.3949558 L76.4442915,5.19962513 C57.3634226,19.5871148 68.5445307,66.4306193 68.0544597,67.5050387 C67.5643887,68.579458 56.0181169,69.4676742 37.9964745,75.9672845 Z" id="Pant" fill="#244645" transform="translate(64.290844, 44.552879) rotate(-55.000000) translate(-64.290844, -44.552879) "></path>
                            <polygon id="Leg" fill="#997659" points="45.0756268 12 23.5510472 64.0569872 2.39573562 108.066782 7.38695832 108.066782 61.9945126 12"></polygon>
                            <path d="M4.3061602,98.9242527 L15.3967123,101.019491 C23.9718961,88.3189901 59.8593903,36.2426738 63.794113,12 L39.1040441,12 C25.9640027,29.5249986 12.4800813,86.0136615 4.3061602,98.9242527 Z" id="Pant" fill="#295150"></path>
                        </g>
                        <g id="Body/Long-Sleeve-1" transform="translate(13.701863, 20.732919)">
                            <path d="M65.6529313,40.1408497 L78.9250629,49.935114 C82.5247383,50.9112449 85.5321507,52.1257165 87.9473002,53.5785289 C88.5178003,54.1009509 89.2073035,55.1589422 86.841301,54.9760948 C84.4752985,54.7932474 81.9784361,54.7078541 81.6519738,55.518856 C81.3255114,56.3298579 82.7572879,57.2997273 82.0973653,58.3939813 C81.6574169,59.1234839 79.5789239,57.2942831 75.8618862,52.9063788 L62.7189943,47.4293731 L65.6529313,40.1408497 Z M14.6946383,40.4788738 L23.3895589,40.5132362 C18.0208466,57.93016 15.1225397,67.1714707 14.6946383,68.2371683 C13.73186,70.6349877 15.7692283,74.2868253 16.6404879,76.2492955 C13.8028245,77.5253513 14.1051806,72.7995957 10.5255446,74.4732141 C7.2582189,76.0008152 4.77277237,78.7687263 0.997849609,76.4279522 C0.533745038,76.1401678 0.0251620398,75.0566075 1.25396286,74.2098624 C4.31535382,72.1003117 8.72700367,68.4082177 9.32308704,67.1929364 C10.1359532,65.5356833 11.9264703,56.6309957 14.6946383,40.4788738 Z" id="Skin" fill="#B28B67"></path>
                            <path d="M37.3285408,5.58136113 L40.8586663,4.64997932 C55.167038,15.031254 62.5695368,36.7321942 79.8979233,47.0551107 L76.4021164,52.28563 C47.8159169,51.2410456 38.440064,24.8014311 37.3285408,5.58136113 Z" id="Coat-Back" fill="#152C2C" transform="translate(58.613232, 28.467805) rotate(5.000000) translate(-58.613232, -28.467805) "></path>
                            <path d="M23.7202069,49.2514255 C38.1463212,49.2514255 48.7578686,49.2514255 55.5548489,49.2514255 C57.0095297,49.2514255 56.7354229,47.1405201 56.52514,46.0753457 C54.098221,33.7819454 44.6244496,20.5302548 44.6244496,3.030909 L35.4418402,1.58385093 C27.8466426,13.8596759 25.2200916,28.973702 23.7202069,49.2514255 Z" id="Shirt" fill="#DDE3E9"></path>
                            <path d="M23.9760281,13.6504201 C22.6423693,13.2651615 21.5862496,12.3666182 20.807669,10.9547902 C17.451409,4.8687639 18.6635116,1.51795562 22.2502892,0.416526013 C25.8370667,-0.68490359 29.0357212,1.58385093 34.7504167,1.58385093 C35.0612486,1.58385093 35.3459355,1.60343333 35.6044776,1.64259812 L38.4791125,1.80744528 C46.7267534,29.8980534 49.0014035,48.6396698 45.303063,58.0322945 L20.2467201,58.0322945 C18.7621584,61.5111373 17.3415582,64.4380936 15.9849194,66.8131635 L9.15751773,66.8131635 C8.51496329,45.9343857 13.4544667,28.2134712 23.9760281,13.6504201 Z" id="Coat-Front" fill="#1D3736"></path>
                            <path d="M25.7029081,43.6055913 C26.4909252,50.2315474 27.7717167,55.0404484 29.5452825,58.0322945 L20.2467201,58.0322945 C21.9784198,53.9743216 23.7971491,49.1654205 25.7029081,43.6055913 Z" id="Shade" fill-opacity="0.1" fill="#000000"></path>
                        </g>
                    </g>
                </g>
            </g>
            <g id="Human" transform="translate(45.562112, 50.250706) scale(-1, 1) translate(-45.562112, -50.250706) translate(0.562112, 0.750706)">
                <g id="Head/Front" transform="translate(33.000000, 0.000000)">
                    <g id="Head" transform="translate(1.571999, 0.874828)" fill="#997659">
                        <path d="M3.45363026,14.3243376 C1.5275242,12.0779911 0.22389533,9.32506261 0.441732479,6.24032713 C1.06938196,-2.64765472 13.5216849,-0.692411952 15.9439157,3.79347804 C18.3661464,8.27936804 18.0783224,19.6582 14.947805,20.4599537 C13.6993593,20.7796919 11.0397993,19.9964617 8.3329872,18.3754158 L10.0319994,30.3181444 L0,30.3181444 L3.45363026,14.3243376 Z"></path>
                    </g>
                    <path d="M8.14706205,10.3718942 C7.81898954,10.1478733 7.42703301,10.0118035 7.0059982,10.0118035 C5.85172314,10.0118035 4.91599833,11.0344942 4.91599833,12.0883887 C4.91599833,13.1847734 5.43707959,14.0325021 6.18121152,14.3921404 C5.7837753,15.1641833 5.38414832,15.7244779 4.91599833,15.8262421 C3.10946076,15.644669 0.7359986,11.1832135 0.7359986,7.51990118 C0.7359986,3.51022634 3.94706723,0.044194346 9.93199801,0.044194346 C15.3112695,0.044194346 17.3508995,2.2479569 17.4559975,4.19736481 C15.1508753,4.82682125 11.1229844,5.0692052 5.3339983,5.0279989 L5.3339983,5.44331595 L10.349998,5.858633 L11.1859979,8.35053527 C9.85595232,8.25188123 8.90550708,9.15831623 8.14706205,10.3718942 Z" id="Combined-Shape" fill="#152C2C"></path>
                </g>
                <g id="Body/Long-Sleeve-1" transform="translate(0.701863, 20.732919)">
                    <path d="M65.6529313,40.1408497 L78.9250629,49.935114 C82.5247383,50.9112449 85.5321507,52.1257165 87.9473002,53.5785289 C88.5178003,54.1009509 89.2073035,55.1589422 86.841301,54.9760948 C84.4752985,54.7932474 81.9784361,54.7078541 81.6519738,55.518856 C81.3255114,56.3298579 82.7572879,57.2997273 82.0973653,58.3939813 C81.6574169,59.1234839 79.5789239,57.2942831 75.8618862,52.9063788 L62.7189943,47.4293731 L65.6529313,40.1408497 Z M14.6946383,40.4788738 L23.3895589,40.5132362 C18.0208466,57.93016 15.1225397,67.1714707 14.6946383,68.2371683 C13.73186,70.6349877 15.7692283,74.2868253 16.6404879,76.2492955 C13.8028245,77.5253513 14.1051806,72.7995957 10.5255446,74.4732141 C7.2582189,76.0008152 4.77277237,78.7687263 0.997849609,76.4279522 C0.533745038,76.1401678 0.0251620398,75.0566075 1.25396286,74.2098624 C4.31535382,72.1003117 8.72700367,68.4082177 9.32308704,67.1929364 C10.1359532,65.5356833 11.9264703,56.6309957 14.6946383,40.4788738 Z" id="Skin" fill="#997659"></path>
                    <path d="M37.3285408,5.58136113 L40.8586663,4.64997932 C55.167038,15.031254 62.5695368,36.7321942 79.8979233,47.0551107 L76.4021164,52.28563 C47.8159169,51.2410456 38.440064,24.8014311 37.3285408,5.58136113 Z" id="Coat-Back" fill="#152C2C" transform="translate(58.613232, 28.467805) rotate(5.000000) translate(-58.613232, -28.467805) "></path>
                    <path d="M23.7202069,49.2514255 C38.1463212,49.2514255 48.7578686,49.2514255 55.5548489,49.2514255 C57.0095297,49.2514255 56.7354229,47.1405201 56.52514,46.0753457 C54.098221,33.7819454 44.6244496,20.5302548 44.6244496,3.030909 L35.4418402,1.58385093 C27.8466426,13.8596759 25.2200916,28.973702 23.7202069,49.2514255 Z" id="Shirt" fill="#DDE3E9"></path>
                    <path d="M23.9760281,13.6504201 C22.6423693,13.2651615 21.5862496,12.3666182 20.807669,10.9547902 C17.451409,4.8687639 18.6635116,1.51795562 22.2502892,0.416526013 C25.8370667,-0.68490359 29.0357212,1.58385093 34.7504167,1.58385093 C35.0612486,1.58385093 35.3459355,1.60343333 35.6044776,1.64259812 L38.4791125,1.80744528 C46.7267534,29.8980534 49.0014035,48.6396698 45.303063,58.0322945 L20.2467201,58.0322945 C18.7621584,61.5111373 17.3415582,64.4380936 15.9849194,66.8131635 L9.15751773,66.8131635 C8.51496329,45.9343857 13.4544667,28.2134712 23.9760281,13.6504201 Z" id="Coat-Front" fill="#1D3736"></path>
                    <path d="M25.7029081,43.6055913 C26.4909252,50.2315474 27.7717167,55.0404484 29.5452825,58.0322945 L20.2467201,58.0322945 C21.9784198,53.9743216 23.7971491,49.1654205 25.7029081,43.6055913 Z" id="Shade" fill-opacity="0.1" fill="#000000"></path>
                </g>
                <path d="M15.0617922,63.2254586 L34.6070043,60.969021 L35.1431389,84.9542276 L18.1127775,89.5347762 C16.5127856,89.9651158 14.8668768,89.0169254 14.4365371,87.4169336 C14.3927004,87.25395 14.3626958,87.0875578 14.3468425,86.9195281 L12.4191122,66.4874576 C12.2657736,64.8622173 13.4401056,63.4126776 15.0617922,63.2254586 Z" id="Rectangle" fill="#929393" transform="translate(23.643139, 75.713453) scale(-1, 1) translate(-23.643139, -75.713453) "></path>
                <path d="M26.3858423,25.2492942 C33.3611755,42.8752484 40.419932,56.5226663 47.5621118,66.1915478" id="Path-2" stroke="#979797" stroke-width="4" transform="translate(36.973977, 45.720421) scale(-1, 1) translate(-36.973977, -45.720421) "></path>
            </g>
            <path d="M80.637247,61.5309798 C77.869079,77.6831017 76.0785619,86.5877892 75.2656957,88.2450424 C74.6696124,89.4603237 70.2579625,93.1524176 67.1965716,95.2619684 C65.9677707,96.1087134 66.4763537,97.1922737 66.9404583,97.4800582 C70.7153811,99.8208323 73.2008276,97.0529212 76.4681533,95.52532 C80.0477893,93.8517017 79.7454332,98.5774572 82.5830966,97.3014014 C81.711837,95.3389312 79.6744687,91.6870937 80.637247,89.2892742 C81.0651484,88.2235766 83.9634553,78.9822659 89.3321676,61.5653421 L80.637247,61.5309798 Z" id="Skin" fill="#B28B67" transform="translate(77.881200, 79.957605) scale(-1, 1) translate(-77.881200, -79.957605) "></path>
            <path d="M78.6458476,23 C60.7534447,39.446707 52.22332,61.1898112 53.0554737,88.2293126 L59.8828753,88.2293126 C65.8151381,77.8436897 72.9704124,56.9054054 81.3486983,25.4144594 L78.6458476,23 Z" id="Coat-Front" fill="#1D3736" transform="translate(67.174349, 55.614656) scale(-1, 1) translate(-67.174349, -55.614656) "></path>
        </g>
    </g>
</svg>