<?xml version="1.0" encoding="UTF-8"?>
<svg width="124px" height="112px" viewBox="0 0 124 112" version="1.1" xmlns="http://www.w3.org/2000/svg" xmlns:xlink="http://www.w3.org/1999/xlink">
    <!-- Generator: Sketch 55.2 (78181) - https://sketchapp.com -->
    <title>Icon 5 - Native Americans</title>
    <desc>Created with Sketch.</desc>
    <defs>
        <ellipse id="path-1" cx="42.9853252" cy="42.4655685" rx="42.68596" ry="42.1525544"></ellipse>
    </defs>
    <g id="Icon-5---Native-Americans" stroke="none" stroke-width="1" fill="none" fill-rule="evenodd">
        <g id="Human-5" transform="translate(59.500000, 60.500000) scale(-1, 1) translate(-59.500000, -60.500000) translate(13.000000, 9.000000)">
            <g id="Human" transform="translate(0.500000, 17.148221)">
                <mask id="mask-2" fill="white">
                    <use xlink:href="#path-1"></use>
                </mask>
                <use id="Mask" fill="#F3B000" xlink:href="#path-1"></use>
                <g mask="url(#mask-2)">
                    <g transform="translate(-25.639752, -17.397516)">
                        <g id="Head/Front" transform="translate(41.000000, 0.000000)">
                            <g id="Head" transform="translate(16.571999, 3.874828)" fill="#B28B67">
                                <path d="M3.45363026,14.3243376 C1.5275242,12.0779911 0.22389533,9.32506261 0.441732479,6.24032713 C1.06938196,-2.64765472 13.5216849,-0.692411952 15.9439157,3.79347804 C18.3661464,8.27936804 18.0783224,19.6582 14.947805,20.4599537 C13.6993593,20.7796919 11.0397993,19.9964617 8.3329872,18.3754158 L10.0319994,30.3181444 L0,30.3181444 L3.45363026,14.3243376 Z"></path>
                            </g>
                            <path d="M33.4629996,9.6824695 C33.3636278,9.10100498 33.1207693,8.45529492 32.9248112,7.90517486 C32.672171,7.19599757 32.2898421,6.55658471 31.869099,5.95396444 C31.0769747,4.81940814 30.1267236,3.79487586 29.0775541,2.94454236 C27.1611161,1.39132878 24.7215833,0.495429068 22.3226025,0.786373595 C21.1113546,0.933260959 19.9355411,1.39231935 18.9347619,2.15640251 C18.0305691,2.84675896 17.1608389,3.86301291 15.9900135,3.93603207 C14.716059,4.01541917 13.5482781,2.89819784 12.5265752,2.20819516 C11.3746006,1.43031478 10.1491012,0.863496537 8.80272314,0.643165491 C6.54722901,0.274178208 4.42835493,1.03132738 2.87390502,2.8699666 C1.21975938,4.8265544 0.0173215011,7.69588159 1.10360966,10.2883445 C1.3055275,10.7702567 1.56529346,11.1765319 1.93809973,11.5132549 C2.28000616,11.8220297 2.80219406,12.1505451 2.94082228,12.6439197 C3.08806618,13.1683557 2.64821309,13.8449149 2.47764855,14.3181243 C2.23330011,14.9960986 2.03267787,15.7077524 2.10400014,16.4446656 C2.22118634,17.654859 2.98662142,18.8101465 3.79487578,19.6055741 C4.61738164,20.4150112 5.62969156,20.879164 6.71092691,21.0931271 C7.43289492,21.2359814 8.17073392,21.3148025 8.90449181,21.2611702 C9.26874718,21.2345663 9.59018327,21.1340235 9.94310222,21.0540703 C10.2863042,20.9763106 10.4781165,21.066877 10.7693005,21.2538824 C12.1219622,22.1227537 13.5763925,22.4589107 15.138292,22.3297121 C16.4564909,22.2206079 17.9758304,21.903201 19.0511708,21.0058154 C20.2453816,20.0091606 20.2216076,18.6348156 19.9405939,17.1664373 C20.2383207,17.3130416 21.0619926,17.4038203 20.5697976,16.8194548 C20.3748112,16.5880152 20.0064099,16.4938403 19.7562313,16.3577077 C19.4649177,16.1992165 19.1691343,15.9943808 18.9429241,15.7358421 C18.0295326,14.6919229 18.9520581,12.5674335 20.1000811,12.2173378 C21.8057265,11.6972179 22.1876019,14.0939017 23.4051982,14.713857 C24.1052707,15.0703206 24.8376035,14.5831018 25.3621234,14.0856234 C26.0647223,13.4191821 26.5435727,12.5363014 26.9569958,11.6378545 C27.2975418,10.8979695 27.6144434,10.1476836 27.9615321,9.41147788 C28.1236106,9.06767937 28.684731,8.0957888 28.40294,7.70706088 C29.6246174,7.46500805 30.9853117,7.96942039 32.037461,8.63090881 C32.4723261,8.90437685 32.8038678,9.20586387 33.0358433,9.68862519 C33.0855292,9.79206898 33.1937111,10.0995702 33.3295538,10.1121646 C33.5824531,10.1356552 33.4879398,9.82857856 33.4629996,9.6824695" id="hair" fill="#152C2C"></path>
                        </g>
                        <g id="Bottom/Skinny-Jeans-1" transform="translate(7.000000, 69.000000)">
                            <polygon id="Leg" fill="#997659" points="49.1854081 0 69.7650495 52.0569872 83.5679002 96.0667819 89.0183468 96.0667819 67.9168214 2.13311106e-13"></polygon>
                            <path d="M45.0413687,0 C44.8222249,18.2931827 41.6263041,42.921984 41.1157037,44.0622879 C40.7753034,44.8224906 29.0241371,54.4897914 5.86220455,73.0641905 L9.61623542,77.0790846 C36.94517,61.1538677 51.2419617,52.1292436 52.5066103,50.0052121 C54.4035832,46.819165 60.5794735,17.500742 65.5378777,0 L45.0413687,0 Z" id="Leg" fill="#B28B67"></path>
                            <polygon id="Pant" fill="#244645" points="63.0221131 91.5337762 88.9363599 88.7229885 69.7308186 0 46.5204056 0"></polygon>
                            <path d="M11.2225036,66.5868632 L28.2207036,86.6950636 C46.1245415,67.1523603 56.5625257,54.4007429 59.5346563,48.4402114 C62.5067868,42.4796798 65.178581,26.3329427 67.5500386,0 L41.4193042,0 C40.1238936,23.1665744 39.2506967,35.2888886 38.7997136,36.3669426 C38.3487304,37.4449967 29.1563271,47.5183036 11.2225036,66.5868632 Z" id="Pant" fill="#295150"></path>
                        </g>
                        <g id="Body/Long-Sleeve-1" transform="translate(41.130435, 25.316770)">
                            <path d="M34.7324602,17.8545309 L49.3443013,9.905582 C51.774161,7.03954834 54.1682497,4.81367166 56.5265672,3.22795193 C57.2471932,2.92912861 58.5073855,2.74825938 57.3288662,4.82592671 C56.150347,6.90359404 55.0047956,9.14163369 55.6052047,9.78171803 C56.2056138,10.4218024 57.7027879,9.52763275 58.4190669,10.5911383 C58.8965862,11.300142 56.3387828,12.4201683 50.7456567,13.9512171 L40.1283734,23.6070076 L34.7324602,17.8545309 Z M57.6173155,24.561278 L64.0356725,21.059119 C64.9362589,17.6553633 66.0128001,15.9428186 67.2652963,15.9214852 C68.2274738,15.4768088 66.5518483,19.7777721 68.3758326,19.4047933 C70.1998168,19.0318146 74.6516412,15.7431317 75.4187127,16.4108586 C76.5535455,17.3987175 75.5416588,20.4320167 74.3494159,21.9409207 C72.1211154,24.7610603 70.2761786,25.7254629 65.7161309,26.988354 C63.3319026,27.6486587 60.7541301,28.9721825 57.9828134,30.9589255 L57.6173155,24.561278 Z" id="Skin" fill="#997659"></path>
                            <path d="M28.087605,14.5195442 C33.1510022,15.2671347 40.0598179,15.2743252 47.9705979,11.8787141 L49.8042853,18.5828505 C44.0684757,22.687527 36.4561072,25.6007533 30.3833972,24.4645169 C25.597767,23.5691001 24.0557505,17.4048314 28.087605,14.5195442 Z" id="Sleeve" fill="#CACFCE" transform="translate(37.789754, 18.295443) rotate(-9.000000) translate(-37.789754, -18.295443) "></path>
                            <path d="M34.5077571,26.2427703 C39.9411525,27.5886979 49.0526205,26.0014773 61.842161,21.4811085 C65.0144955,27.9998994 66.4809863,32.6472973 66.2416332,35.4233023 C55.2700932,41.1158117 45.866536,43.6538112 38.1192608,43.8213585 C38.3654555,48.3873424 37.8059246,52.7319813 35.9262915,56.7018202 C32.0620846,64.8631357 9.43500628,57.3048475 1.82708916,58.7925033 C-2.93721223,43.4240399 6.27470868,37.1783585 6.28212072,27.3447198 C6.29023769,16.5758376 14.9957718,-1.27897692e-13 16.2766168,-1.27897692e-13 L27.9572172,-1.27897692e-13 C28.6017044,8.22433721 31.8455872,17.2882694 34.5077571,26.2427703 Z" id="Clothes" fill="#E1E7E6"></path>
                        </g>
                    </g>
                </g>
            </g>
            <g id="Human" transform="translate(15.500000, 0.148221)">
                <g id="Head/Front">
                    <g id="Head" transform="translate(16.571999, 3.874828)" fill="#B28B67">
                        <path d="M3.45363026,14.3243376 C1.5275242,12.0779911 0.22389533,9.32506261 0.441732479,6.24032713 C1.06938196,-2.64765472 13.5216849,-0.692411952 15.9439157,3.79347804 C18.3661464,8.27936804 18.0783224,19.6582 14.947805,20.4599537 C13.6993593,20.7796919 11.0397993,19.9964617 8.3329872,18.3754158 L10.0319994,30.3181444 L0,30.3181444 L3.45363026,14.3243376 Z"></path>
                    </g>
                    <path d="M33.4629996,9.6824695 C33.3636278,9.10100498 33.1207693,8.45529492 32.9248112,7.90517486 C32.672171,7.19599757 32.2898421,6.55658471 31.869099,5.95396444 C31.0769747,4.81940814 30.1267236,3.79487586 29.0775541,2.94454236 C27.1611161,1.39132878 24.7215833,0.495429068 22.3226025,0.786373595 C21.1113546,0.933260959 19.9355411,1.39231935 18.9347619,2.15640251 C18.0305691,2.84675896 17.1608389,3.86301291 15.9900135,3.93603207 C14.716059,4.01541917 13.5482781,2.89819784 12.5265752,2.20819516 C11.3746006,1.43031478 10.1491012,0.863496537 8.80272314,0.643165491 C6.54722901,0.274178208 4.42835493,1.03132738 2.87390502,2.8699666 C1.21975938,4.8265544 0.0173215011,7.69588159 1.10360966,10.2883445 C1.3055275,10.7702567 1.56529346,11.1765319 1.93809973,11.5132549 C2.28000616,11.8220297 2.80219406,12.1505451 2.94082228,12.6439197 C3.08806618,13.1683557 2.64821309,13.8449149 2.47764855,14.3181243 C2.23330011,14.9960986 2.03267787,15.7077524 2.10400014,16.4446656 C2.22118634,17.654859 2.98662142,18.8101465 3.79487578,19.6055741 C4.61738164,20.4150112 5.62969156,20.879164 6.71092691,21.0931271 C7.43289492,21.2359814 8.17073392,21.3148025 8.90449181,21.2611702 C9.26874718,21.2345663 9.59018327,21.1340235 9.94310222,21.0540703 C10.2863042,20.9763106 10.4781165,21.066877 10.7693005,21.2538824 C12.1219622,22.1227537 13.5763925,22.4589107 15.138292,22.3297121 C16.4564909,22.2206079 17.9758304,21.903201 19.0511708,21.0058154 C20.2453816,20.0091606 20.2216076,18.6348156 19.9405939,17.1664373 C20.2383207,17.3130416 21.0619926,17.4038203 20.5697976,16.8194548 C20.3748112,16.5880152 20.0064099,16.4938403 19.7562313,16.3577077 C19.4649177,16.1992165 19.1691343,15.9943808 18.9429241,15.7358421 C18.0295326,14.6919229 18.9520581,12.5674335 20.1000811,12.2173378 C21.8057265,11.6972179 22.1876019,14.0939017 23.4051982,14.713857 C24.1052707,15.0703206 24.8376035,14.5831018 25.3621234,14.0856234 C26.0647223,13.4191821 26.5435727,12.5363014 26.9569958,11.6378545 C27.2975418,10.8979695 27.6144434,10.1476836 27.9615321,9.41147788 C28.1236106,9.06767937 28.684731,8.0957888 28.40294,7.70706088 C29.6246174,7.46500805 30.9853117,7.96942039 32.037461,8.63090881 C32.4723261,8.90437685 32.8038678,9.20586387 33.0358433,9.68862519 C33.0855292,9.79206898 33.1937111,10.0995702 33.3295538,10.1121646 C33.5824531,10.1356552 33.4879398,9.82857856 33.4629996,9.6824695" id="hair" fill="#152C2C"></path>
                </g>
                <g id="Body/Long-Sleeve-1" transform="translate(0.916667, 25.305556)">
                    <path d="M34.5952494,17.8486961 L49.1493663,9.90234488 C51.5696269,7.03724784 53.9542576,4.81209856 56.3032587,3.22689704 C57.0210377,2.92817138 58.2762517,2.74736126 57.1023882,4.82434961 C55.9285246,6.90133797 54.7874988,9.13864623 55.385536,9.77852139 C55.9835732,10.4183965 57.4748326,9.52451915 58.1882819,10.5876772 C58.6639148,11.2964492 56.1162161,12.4161094 50.5451857,13.9466579 L39.969846,23.5992929 L34.5952494,17.8486961 Z M57.3896979,24.5532514 L63.7826992,21.052237 C64.6797277,17.6495935 65.7520161,15.9376086 66.9995643,15.9162821 C67.9579407,15.471751 66.2889348,19.7713088 68.1057134,19.3984519 C69.922492,19.025595 74.3567294,15.7379869 75.1207705,16.4054956 C76.2511202,17.3930316 75.243231,20.4253396 74.055698,21.9337504 C71.8362004,24.7529684 69.9985521,25.7170559 65.4565189,26.9795343 C63.0817095,27.6396232 60.5141205,28.9627145 57.7537519,30.9488082 L57.3896979,24.5532514 Z" id="Skin" fill="#B28B67"></path>
                    <path d="M27.9776583,14.5206261 C33.021083,15.265071 39.903214,15.2683904 47.7853451,11.8697609 L49.6081976,18.5700852 C43.8922404,22.6762678 36.3076385,25.5925458 30.2590164,24.4601816 C25.4923689,23.5678162 23.9597587,17.406972 27.9776583,14.5206261 Z" id="Sleeve" fill="#CACFCE" transform="translate(37.639965, 18.287969) rotate(-9.000000) translate(-37.639965, -18.287969) "></path>
                    <path d="M34.371434,26.2341942 C39.7833647,27.579682 48.8588378,25.9929801 61.5978531,21.4740885 C64.7576553,27.9907491 66.2183527,32.6366283 65.9799451,35.4117261 C55.0517483,41.1023751 45.6853399,43.6395452 37.9686704,43.8070378 C38.2138925,48.3715295 37.656572,52.7147486 35.7843644,56.6832902 C31.9354231,64.8419386 9.39773322,57.2861205 1.81987123,58.7732901 C-2.92560875,43.409849 6.2499204,37.1662087 6.25730316,27.3357836 C6.26538807,16.5704206 14.9365309,-1.27897692e-13 16.2123159,-1.27897692e-13 L27.846772,-1.27897692e-13 C28.4887131,8.22164952 31.719781,17.2826197 34.371434,26.2341942 Z" id="Clothes" fill="#E1E7E6"></path>
                </g>
            </g>
        </g>
    </g>
</svg>