<?xml version="1.0" encoding="UTF-8"?>
<svg width="124px" height="112px" viewBox="0 0 124 112" version="1.1" xmlns="http://www.w3.org/2000/svg" xmlns:xlink="http://www.w3.org/1999/xlink">
    <!-- Generator: Sketch 55.2 (78181) - https://sketchapp.com -->
    <title>Icon 4 - Families</title>
    <desc>Created with Sketch.</desc>
    <defs>
        <ellipse id="path-1" cx="42.6653471" cy="42.6512901" rx="42.1896116" ry="42.1525544"></ellipse>
    </defs>
    <g id="Icon-4---Families" stroke="none" stroke-width="1" fill="none" fill-rule="evenodd">
        <g id="Human-4" transform="translate(54.500000, 61.000000) scale(-1, 1) translate(-54.500000, -61.000000) translate(1.000000, 10.000000)">
            <g id="Human-Copy-+-Human-Mask" transform="translate(3.500000, 16.148221)">
                <mask id="mask-2" fill="white">
                    <use xlink:href="#path-1"></use>
                </mask>
                <use id="Mask" fill="#F77300" xlink:href="#path-1"></use>
                <g id="Human-Copy" mask="url(#mask-2)">
                    <g transform="translate(49.425466, 63.102484) scale(-1, 1) translate(-49.425466, -63.102484) translate(-4.074534, -26.397516)">
                        <g id="Head/Front" transform="translate(47.000000, 11.000000)">
                            <g id="Head" transform="translate(0.571999, 1.874828)" fill="#B28B67">
                                <path d="M3.45363026,14.3243376 C1.5275242,12.0779911 0.22389533,9.32506261 0.441732479,6.24032713 C1.06938196,-2.64765472 13.5216849,-0.692411952 15.9439157,3.79347804 C18.3661464,8.27936804 18.0783224,19.6582 14.947805,20.4599537 C13.6993593,20.7796919 11.0397993,19.9964617 8.3329872,18.3754158 L10.0319994,30.3181444 L0,30.3181444 L3.45363026,14.3243376 Z"></path>
                            </g>
                            <path d="M12.0915302,6.31889092 C10.7301585,7.0755205 9.76131384,8.49330419 8.59505974,10.3530151 C8.31101326,10.2420881 8.00166579,10.1811694 7.67799809,10.1811694 C6.29286802,10.1811694 5.16999825,11.296832 5.16999825,12.6730716 C5.16999825,13.3717256 5.45937623,14.0032255 5.92553948,14.4557013 C5.34522137,15.2695587 4.69485272,16.1197399 3.94959979,16.9970164 C1.16850044,15.3391795 -0.900013673,10.5073614 1.75540259,5.84287048 C4.04010058,-3.50044296 16.9861692,2.29884996 19.4768852,0.723061861 C20.0213081,4.11358892 18.2652883,6.84744399 12.0915302,6.31889092 Z" id="Hair" fill="#F3B000"></path>
                        </g>
                        <g id="Bottom/Skinny-Jeans-1" transform="translate(21.000000, 78.000000)">
                            <polygon id="Leg" fill="#244645" points="23.243694 1.13686838e-13 38.3245387 53.3141299 49.3276788 92.6095178 57.3529355 92.6095178 45.6605264 1.13686838e-13"></polygon>
                            <path d="M19.2106265,0 C18.8618081,27.4787208 17.6723435,42.4663619 17.3060984,44.9629231 C16.9398533,47.4594844 11.4020352,63.3416826 0.692644117,92.6095178 L9.00626652,92.6095178 C22.6401407,64.5320308 30.2509181,48.6498326 31.8385987,44.9629231 C33.4262793,41.2760136 38.3260164,26.2883726 45.7058775,0 L19.2106265,0 Z" id="Leg" fill="#295150"></path>
                        </g>
                        <g id="Body/Long-Sleeve-1" transform="translate(0.503106, 34.316770)">
                            <path d="M81.8552626,32.4545466 L96.9316264,25.8007747 C99.5726539,23.155997 102.122942,21.1458438 104.582492,19.7703148 C105.317944,19.5350123 106.574429,19.4639246 105.233857,21.4316628 C103.893286,23.399401 102.571266,25.5297553 103.106923,26.2193806 C103.642581,26.9090059 105.194263,26.1478474 105.807285,27.2693134 C106.215966,28.0169573 103.600389,28.9112957 97.960553,29.9523285 L86.6692466,38.6522508 L81.8552626,32.4545466 Z M20.9034529,34.2872028 L29.4295816,35.9872813 C20.8551045,52.0459077 16.2567665,60.5569891 15.6345675,61.5205253 C14.2346198,63.6884819 15.5407994,67.6617129 16.0232966,69.7540438 C12.9963793,70.4621333 14.1901025,65.8836985 10.3595972,66.839634 C6.86328952,67.7121677 3.89884222,69.9514 0.638678535,66.9314379 C0.237860566,66.5601513 -0.0555571378,65.3996146 1.31103435,64.8043809 C4.71571213,63.3214366 9.74583678,60.5446533 10.5614719,59.466594 C11.6737361,57.9964676 15.1210631,49.6033372 20.9034529,34.2872028 Z" id="Skin" fill="#D4A181"></path>
                            <path d="M50.7570398,4.12082649 L54.2871653,3.18944468 C62.759663,10.1167774 67.5450331,28.1216971 72.9593619,30.086673 C78.0783907,31.9444783 84.8574951,29.1202259 92.8842303,25.4053361 L95.9210885,30.8824825 C89.1066881,39.7289493 73.6685528,48.0498271 66.8200272,44.6698316 C55.8706585,39.2659213 51.4975677,16.9257743 50.7570398,4.12082649 Z" id="Coat-Back" fill="#152C2C" transform="translate(73.339064, 24.314641) rotate(5.000000) translate(-73.339064, -24.314641) "></path>
                            <path d="M36.9189646,47.6675746 C51.345079,47.6675746 61.9566264,47.6675746 68.7536067,47.6675746 C70.2082875,47.6675746 69.9341806,45.5566692 69.7238977,44.4914947 C67.2969787,32.1980945 57.8232074,18.9464039 57.8232074,1.44705807 L48.640598,0 C41.0454004,12.275825 38.4188493,27.389851 36.9189646,47.6675746 Z" id="Shirt" fill="#F2F2F2"></path>
                            <path d="M33.7437807,35.2209719 C27.2540747,46.985105 21.7991257,55.4547176 17.3789336,60.6298098 L10.7061242,59.3163674 C15.0044445,32.5271287 27.4518064,12.7550062 48.04821,-9.9475983e-14 L49.7056145,-9.9475983e-14 L51.6840327,0 C59.9275653,28.239671 62.2001613,47.0558188 58.5018207,56.4484436 L29.8456585,56.4484436 C30.2990275,49.5757205 31.7527034,42.3075649 33.7437807,35.2209719 Z" id="Coat-Front" fill="#1D3736"></path>
                        </g>
                    </g>
                </g>
                <g id="Human" mask="url(#mask-2)">
                    <g transform="translate(30.860248, 71.021739) scale(-1, 1) translate(-30.860248, -71.021739) translate(-21.639752, -18.478261)">
                        <g id="Head/Front" transform="translate(42.000000, 11.000000)">
                            <path d="M14.3025104,26.68728 C9.78227924,26.0024834 6.31799863,22.1002306 6.31799863,17.3888518 L6.31799863,9.61855965 C6.31799863,4.42432191 10.5287603,0.213560253 15.722998,0.213560253 C19.3239442,0.213560253 22.4522254,2.23727954 24.032561,5.20943751 C24.2529995,5.51835544 24.4773237,6.00954958 24.7099974,6.73007804 C26.162658,11.2285807 28.4924153,24.8020017 26.4310157,26.8031817 L14.3090164,26.8031817 C14.3067681,26.7643689 14.3045996,26.7257354 14.3025104,26.68728 Z" id="Hair-Back" fill="#152C2C"></path>
                            <g id="Head" transform="translate(7.571999, 1.874828)" fill="#B28B67">
                                <path d="M3.45363026,14.3243376 C1.5275242,12.0779911 0.22389533,9.32506261 0.441732479,6.24032713 C1.06938196,-2.64765472 13.5216849,-0.692411952 15.9439157,3.79347804 C18.3661464,8.27936804 18.0783224,19.6582 14.947805,20.4599537 C13.6993593,20.7796919 11.0397993,19.9964617 8.3329872,18.3754158 L10.0319994,30.3181444 L0,30.3181444 L3.45363026,14.3243376 Z"></path>
                            </g>
                            <path d="M13.7374833,14.6976733 C14.1996983,19.6308117 14.0145212,25.2643486 12.6370166,26.6016121 L0.515017331,26.6016121 C-0.160384438,14.94215 6.36701695,19.4572157 6.36701695,8.47952931 C6.77397511,8.08445961 7.15851762,7.69343085 7.53902582,7.35620741 L7.52554914,7.03335706 C9.62460865,2.76370389 12.2876226,0.6288773 15.5145909,0.6288773 C20.3550434,0.6288773 21.8828903,2.86673938 23.1837462,4.76671664 C22.210994,8.08306049 18.4359977,8.57480058 15.0816776,10.6419685 C14.686297,10.3227943 14.1821312,10.1315029 13.6329982,10.1315029 C12.3632956,10.1315029 11.3339983,11.1541936 11.3339983,12.4157466 C11.3339983,13.6772996 12.3632956,14.6999904 13.6329982,14.6999904 C13.6680149,14.6999904 13.7028488,14.6992125 13.7374833,14.6976733 Z" id="Hair-Front" fill="#152C2C"></path>
                        </g>
                        <g id="Bottom/Skinny-Jeans-1" transform="translate(0.000000, 78.136646)">
                            <polygon id="Leg" fill="#244645" points="45.8494021 0 65.8696227 53.1982296 79.9023235 92.4081928 87.9037561 92.4081928 68.6144181 4.10374813e-14"></polygon>
                            <path d="M40.9014067,0 C40.6837861,18.2534149 40.8411169,42.8286754 40.3340654,43.9665004 C39.9960312,44.7250504 29.4818777,53.3677403 8.79160499,69.8945703 L12.9158381,76.9371379 C37.479953,61.0294634 50.3899397,52.0159191 51.6457983,49.8965052 C53.5295861,46.7173842 62.9935882,17.4626969 67.9175284,0 L40.9014067,0 Z" id="Leg" fill="#244645"></path>
                        </g>
                        <g id="Body/Long-Sleeve-1" transform="translate(35.844720, 34.316770)">
                            <path d="M11.9065528,0.956250613 C12.0036898,0.638409285 12.1023141,0.319661604 12.2023797,9.9475983e-14 L12.5718363,0.174692593 C12.6294913,0.114910175 12.6875783,0.0566695849 12.7461002,-8.52651283e-14 L24.3922863,1.80968786 C24.3922863,8.39148685 29.6033349,14.5496664 32.8998929,19.8481248 C38.0244248,28.0846309 47.1430229,37.2140374 41.2965479,49.4503763 C36.0285744,60.4759446 22.3066494,62.2664289 0.130772916,54.8218293 C0.130772916,48.8832906 4.987769,42.9132126 5.14254984,35.6923709 C5.28989439,28.8184466 6.56886197,7.99165044 11.9065528,0.956250613 Z" id="Shirt" fill="#BFC7C5"></path>
                            <path d="M26.3734478,46.3241942 C27.1522893,42.2848722 27.6575422,39.5881722 27.8892064,38.2340944 C34.0937334,45.2800605 37.6781341,48.8439089 38.6424085,48.9256397 C40.455913,49.0793501 41.7959461,47.4632104 42.1775034,47.9175562 C42.8081519,49.7991737 41.0269328,54.5091703 37.6221694,55.1940337 C35.9963263,55.5210698 33.4804283,52.15171 32.4438354,50.95787 C32.0361256,50.4883122 30.0126631,48.9437536 26.3734478,46.3241942 L26.3734478,46.3241942 Z M37.0908476,24.7881091 C38.6992151,24.7881091 39.5631545,25.4563301 40.514141,26.8044979 C41.4651274,28.1526657 42.3650214,34.5109214 40.8381893,34.5109214 C39.3113573,34.5109214 32.9143469,32.053024 32.9143469,30.4006271 C32.9143469,28.7482303 37.2792952,28.0484555 37.2792952,26.8044979 C37.2792952,25.5605402 35.48248,24.7881091 37.0908476,24.7881091 Z" id="Skin" fill="#915B3C"></path>
                            <path d="M23.1264157,52.4709715 C23.0308731,52.8146891 22.9334718,53.164861 22.8342117,53.5214872 C4.6117182,40.7225406 4.60297582,25.2121447 10.0224545,7.82692406 C5.9376438,24.9422146 7.6017855,39.3773042 23.1264157,52.4709715 Z" id="Shade" fill-opacity="0.2" fill="#000000"></path>
                        </g>
                    </g>
                </g>
            </g>
            <g id="Human-Copy" transform="translate(53.500000, 47.648221) scale(-1, 1) translate(-53.500000, -47.648221) translate(0.500000, 0.148221)">
                <g id="Head/Front" transform="translate(47.000000, 0.000000)">
                    <g id="Head" transform="translate(0.571999, 2.174243)" fill="#F3BF9F">
                        <path d="M3.45363026,14.6574617 C1.5275242,12.3588747 0.22389533,9.54192453 0.441732479,6.38545102 C1.06938196,-2.70922808 13.5216849,-0.708514556 15.9439157,3.88169846 C18.3661464,8.47191148 18.0783224,20.1153675 14.947805,20.9357666 C13.6993593,21.2629405 11.0397993,20.4614957 8.3329872,18.8027511 L10.0319994,31.0232175 L0,31.0232175 L3.45363026,14.6574617 Z"></path>
                    </g>
                    <path d="M12.0915302,6.72165583 C10.7301585,7.49588145 9.76131384,8.94663685 8.59505974,10.8495969 C8.31101326,10.7360901 8.00166579,10.6737547 7.67799809,10.6737547 C6.29286802,10.6737547 5.16999825,11.815363 5.16999825,13.2236082 C5.16999825,13.9385099 5.45937623,14.5846958 5.92553948,15.0476943 C5.34522137,15.8804787 4.69485272,16.7504315 3.94959979,17.6481098 C1.16850044,15.9517185 -0.900013673,11.0075326 1.75540259,6.23456514 C4.04010058,-3.32603465 16.9861692,2.60812554 19.4768852,0.995691206 C20.0213081,4.46506773 18.2652883,7.26250083 12.0915302,6.72165583 Z" id="Hair" fill="#F3B000"></path>
                </g>
                <g id="Body/Long-Sleeve-1" transform="translate(0.000000, 23.469697)">
                    <path d="M81.7642324,32.5991747 L96.8238301,25.9157514 C99.4619205,23.2591878 102.009373,21.2400766 104.466187,19.8584178 C105.200821,19.6220667 106.455909,19.5506622 105.116828,21.5271693 C103.777747,23.5036765 102.457198,25.6435243 102.992259,26.3362228 C103.527321,27.0289213 105.077278,26.2643707 105.689618,27.3908344 C106.097845,28.1418101 103.485176,29.0401339 97.8516124,30.0858059 L86.5728629,38.824498 L81.7642324,32.5991747 Z M20.8802064,34.4399978 L29.3968534,36.1476524 C20.8319119,52.2778413 16.2386876,60.8268509 15.6171805,61.7946809 C14.2187897,63.9722986 15.5235166,67.9632357 16.0054773,70.0648907 C12.9819262,70.7761357 14.1743219,66.1772978 10.3480764,67.1374934 C6.85565695,68.0139153 3.89450637,70.2631263 0.637968269,67.2297064 C0.237596045,66.8567652 -0.0554953535,65.6910567 1.30957637,65.0931704 C4.71046785,63.6036177 9.73499857,60.8144601 10.5497266,59.7315967 C11.6607539,58.2549189 15.1042472,49.8243859 20.8802064,34.4399978 Z" id="Skin" fill="#F3BF9F"></path>
                    <path d="M50.6903471,4.1288596 L54.2162458,3.19507336 C62.6830288,10.1570797 67.4719845,28.2437873 72.8814711,30.2200544 C77.9959218,32.0885349 84.7664086,29.2550937 92.7827609,25.527687 L95.8190183,31.0304779 C89.0161849,39.9126987 73.598588,48.2628412 66.7557548,44.8646152 C55.8154869,39.4315581 51.4362736,16.9906869 50.6903471,4.1288596 Z" id="Coat-Back" fill="#152C2C" transform="translate(73.254683, 24.417459) rotate(5.000000) translate(-73.254683, -24.417459) "></path>
                    <path d="M36.8779075,47.8799969 C51.2879788,47.8799969 61.8877252,47.8799969 68.6771467,47.8799969 C70.1302098,47.8799969 69.8564078,45.7596846 69.6463587,44.6897634 C67.2221387,32.3415798 57.758903,19.0308353 57.758903,1.45350663 L48.5865054,0 C40.9997543,12.3305301 38.3761243,27.5119092 36.8779075,47.8799969 Z" id="Shirt" fill="#F2F2F2"></path>
                    <path d="M33.7062546,35.3779281 C27.2237658,47.1944861 21.7748832,55.7018421 17.3596067,60.8999961 L10.694218,59.5807006 C14.9877582,32.6720802 27.4212776,12.8118467 47.9947762,-9.9475983e-14 L49.6503376,-9.9475983e-14 L51.6265556,0 C59.8609206,28.3655162 62.1309893,47.265515 58.4367616,56.6999963 L29.8124675,56.6999963 C30.2653323,49.7966462 31.7173916,42.4961013 33.7062546,35.3779281 Z" id="Coat-Front" fill="#1D3736"></path>
                </g>
            </g>
            <g id="Human" transform="translate(29.500000, 49.648221) scale(-1, 1) translate(-29.500000, -49.648221) translate(7.500000, 8.148221)">
                <g id="Head/Front" transform="translate(6.000000, 0.000000)">
                    <path d="M14.3025104,26.68728 C9.78227924,26.0024834 6.31799863,22.1002306 6.31799863,17.3888518 L6.31799863,9.61855965 C6.31799863,4.42432191 10.5287603,0.213560253 15.722998,0.213560253 C19.3239442,0.213560253 22.4522254,2.23727954 24.032561,5.20943751 C24.2529995,5.51835544 24.4773237,6.00954958 24.7099974,6.73007804 C26.162658,11.2285807 28.4924153,24.8020017 26.4310157,26.8031817 L14.3090164,26.8031817 C14.3067681,26.7643689 14.3045996,26.7257354 14.3025104,26.68728 Z" id="Hair-Back" fill="#152C2C"></path>
                    <g id="Head" transform="translate(7.571999, 1.874828)" fill="#915B3C">
                        <path d="M3.45363026,14.3243376 C1.5275242,12.0779911 0.22389533,9.32506261 0.441732479,6.24032713 C1.06938196,-2.64765472 13.5216849,-0.692411952 15.9439157,3.79347804 C18.3661464,8.27936804 18.0783224,19.6582 14.947805,20.4599537 C13.6993593,20.7796919 11.0397993,19.9964617 8.3329872,18.3754158 L10.0319994,30.3181444 L0,30.3181444 L3.45363026,14.3243376 Z"></path>
                    </g>
                    <path d="M13.7374833,14.6976733 C14.1996983,19.6308117 14.0145212,25.2643486 12.6370166,26.6016121 L0.515017331,26.6016121 C-0.160384438,14.94215 6.36701695,19.4572157 6.36701695,8.47952931 C6.77397511,8.08445961 7.15851762,7.69343085 7.53902582,7.35620741 L7.52554914,7.03335706 C9.62460865,2.76370389 12.2876226,0.6288773 15.5145909,0.6288773 C20.3550434,0.6288773 21.8828903,2.86673938 23.1837462,4.76671664 C22.210994,8.08306049 18.4359977,8.57480058 15.0816776,10.6419685 C14.686297,10.3227943 14.1821312,10.1315029 13.6329982,10.1315029 C12.3632956,10.1315029 11.3339983,11.1541936 11.3339983,12.4157466 C11.3339983,13.6772996 12.3632956,14.6999904 13.6329982,14.6999904 C13.6680149,14.6999904 13.7028488,14.6992125 13.7374833,14.6976733 Z" id="Hair-Front" fill="#152C2C"></path>
                </g>
                <g id="Body/Long-Sleeve-1" transform="translate(0.500000, 23.325843)">
                    <path d="M11.9026618,0.956503422 C11.9997671,0.638578065 12.0983591,0.319746115 12.198392,9.9475983e-14 L12.5677278,0.174738778 C12.625364,0.114940554 12.683432,0.0566845669 12.7419348,-8.52651283e-14 L24.384315,1.8101663 C24.384315,8.39370535 29.5936606,14.553513 32.8891413,19.8533722 C38.0119985,28.0920558 47.1276167,37.2238759 41.2830523,49.4634498 C36.0168003,60.4919329 22.2993596,62.2828906 0.130730179,54.8363228 C0.130730179,48.8962142 4.98613901,42.9245578 5.14086926,35.7018071 C5.28816567,28.8260654 6.56671528,7.99376323 11.9026618,0.956503422 Z" id="Shirt" fill="#BFC7C5"></path>
                    <path d="M26.3648291,46.3364412 C27.1434161,42.2960513 27.6485038,39.5986384 27.8800923,38.2442025 C34.0825916,45.2920314 37.6658209,48.8568221 38.6297803,48.9385744 C40.4426921,49.0923255 41.7822873,47.4757585 42.1637199,47.9302244 C42.7941623,49.8123394 41.0135253,54.5235812 37.6098746,55.2086257 C35.9845628,55.5357482 33.469487,52.1654977 32.4332329,50.971342 C32.0256563,50.5016601 30.002855,48.9566931 26.3648291,46.3364412 L26.3648291,46.3364412 Z M37.0787264,24.7946624 C38.6865683,24.7946624 39.5502254,25.4630601 40.5009011,26.8115843 C41.4515767,28.1601085 42.3511767,34.5200453 40.8248435,34.5200453 C39.2985104,34.5200453 32.9035906,32.061498 32.9035906,30.4086643 C32.9035906,28.7558306 37.2671124,28.0558709 37.2671124,26.8115843 C37.2671124,25.5672978 35.4708844,24.7946624 37.0787264,24.7946624 Z" id="Skin" fill="#915B3C"></path>
                    <path d="M23.1188581,52.4848435 C23.0233467,52.828652 22.9259772,53.1789165 22.8267496,53.535637 C4.61021111,40.7333066 4.60147158,25.2188102 10.0191792,7.82899331 C5.93570339,24.9488087 7.59930126,39.3877145 23.1188581,52.4848435 Z" id="Shade" fill-opacity="0.2" fill="#000000"></path>
                </g>
            </g>
        </g>
    </g>
</svg>