<svg width="500px" height="500px" viewBox="0 0 500 500" version="1.1" xmlns="http://www.w3.org/2000/svg" xmlns:xlink="http://www.w3.org/1999/xlink">
    <defs>
        <polygon id="path-1" points="0.141688519 0.675968506 370.785843 0.675968506 370.785843 369.624546 0.141688519 369.624546"></polygon>
    </defs>
    <g id="Illustration---Header---Background" stroke="none" stroke-width="1" fill="none" fill-rule="evenodd">
        <g id="Group-60-Copy-2" transform="translate(250.000000, 250.000000) rotate(-345.000000) translate(-250.000000, -250.000000) translate(60.000000, 65.000000)">
            <path d="M18.486,141.022 C18.49,141.018 18.494,141.01 18.498,141.002 C18.506,140.994 18.506,140.986 18.514,140.978 L18.486,141.022 Z" id="Fill-1" fill="#00AEA9"></path>
            <path d="M29.51,99.02 C29.506,99.012 29.506,99.004 29.502,98.996 C29.498,98.992 29.498,98.984 29.49,98.98 L29.51,99.02 Z" id="Fill-3" fill="#00AEA9"></path>
            <path d="M75.47,28.03 C75.474,28.026 75.482,28.026 75.486,28.018 C75.502,28.006 75.514,27.986 75.53,27.97 L75.47,28.03 Z" id="Fill-5" fill="#00AEA9"></path>
            <g id="Group-9" transform="translate(8.500000, 0.000000)">
                <mask id="mask-2" fill="white">
                    <use xlink:href="#path-1"></use>
                </mask>
                <g id="Clip-8"></g>
                <path d="M339.889295,254.826468 C340.178804,254.664835 340.444518,254.451952 340.718163,254.258781 C340.698334,254.420414 340.658675,254.578105 340.678504,254.751565 C340.833174,254.940794 340.987843,255.12608 341.142512,255.315309 C340.797481,254.936851 340.361234,254.826468 339.889295,254.826468 L339.889295,254.826468 Z M103.360531,16.5123789 C103.305009,16.382284 103.237589,16.2521891 103.189999,16.1142097 C103.28518,16.2521891 103.344668,16.3901685 103.360531,16.5123789 L103.360531,16.5123789 Z M359.877306,151.740082 C359.845579,151.759793 359.817818,151.763736 359.786091,151.791331 C359.175346,151.759793 358.687544,151.606045 358.267161,151.357682 C358.810486,151.428643 359.345879,151.558738 359.877306,151.740082 L359.877306,151.740082 Z M57.7886592,291.036206 C57.8878061,291.118994 57.9710895,291.209666 57.9988506,291.308223 C58.0067824,291.343703 58.0662705,291.627547 58.145588,291.99812 C58.0147141,291.722161 57.860045,291.461972 57.7371028,291.186013 C57.7608981,291.166301 57.7886592,291.150532 57.8124545,291.134763 C57.8005569,291.103225 57.8005569,291.067745 57.7886592,291.036206 L57.7886592,291.036206 Z M278.457888,314.50059 C278.346844,314.335015 278.279424,314.224631 278.14855,314.023576 C278.445991,314.027518 278.739465,314.051172 279.03294,314.08271 C278.846544,314.20492 278.652216,314.342899 278.457888,314.50059 L278.457888,314.50059 Z M247.805639,318.174785 C247.623208,318.009209 247.452676,317.843634 247.238518,317.666232 C241.821133,316.002595 238.354958,320.709663 233.774372,321.758307 C232.42994,321.95542 231.053782,321.963305 229.737111,322.298398 C228.230078,322.306282 226.703217,322.298398 225.057378,322.298398 C225.303263,320.445531 227.714515,321.576963 227.658992,319.416599 C220.821824,321.312831 213.889474,321.088121 206.969021,320.938315 L206.965056,320.938315 L208.04774,318.419205 C209.435796,317.689886 210.887306,317.035469 211.894638,315.750289 C212.782995,315.241737 213.679282,314.733184 214.567638,314.224631 C215.630493,314.295592 216.542644,313.988095 217.264434,313.187815 C219.509119,313.014355 220.722677,314.953951 222.507321,315.722693 C223.47896,317.354793 225.005822,317.232582 226.512855,316.862009 C229.253274,316.187881 231.839025,315.115584 234.301833,313.73579 C235.955603,312.809357 237.494363,312.41513 238.707921,314.469052 C239.437642,315.706924 240.524292,315.356062 241.480068,314.721357 C242.174096,314.25617 242.776909,313.645118 243.419381,313.097142 C243.800105,312.892145 244.315668,312.781761 244.545689,312.466379 C247.896854,307.830271 252.350532,305.701446 258.105017,306.45442 C260.302111,306.974799 262.471445,306.69884 264.640779,306.269133 C267.34154,306.170576 268.448019,303.828869 270.228697,302.40571 C272.663744,300.462171 274.297685,297.36749 277.87887,297.032397 C278.108891,296.992975 278.323048,296.910187 278.545137,296.847111 C278.711704,297.008744 278.906032,297.127012 279.128121,297.201915 C277.747996,298.408249 276.391667,299.650064 274.765658,300.505536 C274.77359,300.328134 274.753761,300.131021 274.65858,300.036406 C274.285787,299.681602 273.893166,299.788043 273.611589,300.292654 C273.433124,300.61592 273.258626,300.94707 273.084127,301.274278 C272.691506,301.420142 272.290952,301.562064 271.914194,301.751293 C270.542001,302.523978 269.506908,303.513487 269.613986,305.216547 C266.544399,304.684341 267.353438,308.011616 266.127982,309.320449 C265.675872,309.781694 265.219797,310.246882 264.763721,310.71207 C262.570592,311.666099 260.353668,312.580705 258.1883,313.593868 C256.780414,314.25617 255.5153,315.119526 255.435982,316.913259 C254.595217,316.893547 253.754451,316.873836 252.913686,316.854125 C250.839533,315.982883 249.312671,317.039411 247.805639,318.174785 L247.805639,318.174785 Z M227.857286,324.308955 C227.829525,324.088188 227.813662,323.855594 227.781935,323.646654 C227.861252,323.642711 227.936604,323.642711 228.007989,323.642711 C227.956433,323.867421 227.889013,324.103957 227.857286,324.308955 L227.857286,324.308955 Z M7.8305291,189.786918 C7.52912258,189.66865 7.21581844,189.589804 6.9025143,189.510959 C7.28720419,189.447883 7.62826946,189.550382 7.8305291,189.786918 L7.8305291,189.786918 Z M116.983313,22.7451058 C117.185572,22.3942439 117.375934,21.9842479 117.538535,21.5072334 C117.586126,21.3653117 117.907362,21.2273323 118.097724,21.2352168 C118.886933,21.266755 119.093158,21.8186726 119.152646,22.4928006 C119.196271,22.9895264 119.35094,23.3837533 119.438189,23.8371142 C118.621219,23.3285616 117.820112,22.9698151 116.983313,22.7451058 L116.983313,22.7451058 Z M185.628647,36.4405475 C185.600886,36.4287207 185.59692,36.405067 185.565193,36.3971825 L185.565193,36.3932402 L185.565193,36.4681433 C185.493807,36.4720856 185.438285,36.4405475 185.382763,36.389298 C185.446217,36.3971825 185.497773,36.3814134 185.565193,36.3932402 C185.489841,36.2907412 185.402592,36.2552608 185.323274,36.1685309 C185.537432,36.2355495 185.755555,36.2789144 185.985576,36.2552608 C185.838838,36.4090093 185.735726,36.4129516 185.628647,36.4405475 L185.628647,36.4405475 Z M217.030447,58.1348525 C216.911471,58.0481226 216.812324,57.8983163 216.725074,57.7051452 C216.820255,57.8470668 216.935266,57.9889885 217.030447,58.1348525 L217.030447,58.1348525 Z M274.194572,308.733051 C274.218368,308.666032 274.258026,308.673917 274.281822,308.555649 C274.309583,308.405843 274.250095,308.271806 274.154914,308.141711 C274.380968,308.054981 274.622887,307.980078 274.829112,307.857867 C274.785488,308.283632 274.503911,308.520168 274.194572,308.733051 L274.194572,308.733051 Z M200.199272,321.080237 C197.439023,320.575626 194.690672,320.315437 191.946286,321.245812 C191.49021,321.533598 190.919124,321.904171 190.689104,322.329936 C190.403561,322.21561 190.102154,322.160418 189.792816,322.18013 C189.769021,321.888402 189.741259,321.592732 189.761089,321.297062 C188.670473,319.207659 186.445617,320.788509 184.994107,320.019766 C186.437685,320.607164 187.024635,319.873902 187.468813,318.915931 C189.416058,320.055247 191.561596,320.114381 193.762657,319.83448 C194.349606,319.586117 194.992078,319.408715 195.646448,319.247082 C196.2215,319.456022 196.848108,319.499387 197.510409,319.408715 L198.089427,319.570348 L198.688274,319.495445 C199.140384,319.586117 199.584562,319.676789 200.02874,319.767461 C200.921062,320.272072 201.809418,320.776682 202.697774,321.285235 C203.106259,321.202447 203.51871,321.147255 203.935127,321.119659 C203.958922,321.115717 203.974786,321.111775 203.998581,321.107833 C203.915298,321.289177 203.867707,321.494175 203.867707,321.730711 C202.642252,321.612443 201.416796,321.427156 200.199272,321.080237 L200.199272,321.080237 Z M157.510592,339.033329 C157.558182,338.8441 157.669227,338.674582 157.958735,338.572083 C158.034087,338.54843 158.145132,338.587852 158.236347,338.591795 C157.962701,338.737659 157.748544,338.883522 157.510592,339.033329 L157.510592,339.033329 Z M119.624586,331.436577 C119.592859,331.46023 119.561132,331.479942 119.533371,331.503595 L119.390599,331.503595 C119.509575,331.412923 119.62062,331.314366 119.727698,331.196098 C119.727698,331.192156 119.787187,331.172445 119.80305,331.168502 C119.739596,331.247348 119.684074,331.326193 119.624586,331.436577 L119.624586,331.436577 Z M63.0989661,262.793793 C62.9998193,263.302346 61.9885211,263.365422 61.4888208,263.030329 C62.0995656,262.935715 62.6428905,262.829273 63.1306931,262.711005 C63.1227614,262.742544 63.102932,262.762255 63.0989661,262.793793 L63.0989661,262.793793 Z M298.49349,85.7504452 C298.362616,85.6242926 298.22381,85.5099668 298.08897,85.3916987 C298.211913,85.4666018 298.362616,85.5927544 298.521251,85.7346761 L298.49349,85.7504452 Z M325.144171,135.840912 C325.156069,136.554463 325.207625,137.189168 325.290909,137.733201 C324.763447,137.208879 324.680164,136.448021 325.144171,135.840912 L325.144171,135.840912 Z M264.728028,216.089735 L264.696301,216.073966 C264.704233,216.073966 264.708199,216.073966 264.71613,216.073966 C264.545598,215.935987 264.386963,215.782238 264.220396,215.632432 C264.41869,215.770411 264.628881,215.884737 264.843039,215.991178 C264.795448,216.018774 264.775619,216.054255 264.728028,216.077908 L264.728028,216.089735 Z M91.9784695,325.073755 C91.9745036,325.069813 91.9705377,325.06587 91.9665719,325.061928 C91.9903671,325.03039 92.0379576,324.990967 92.0617529,324.959429 C92.1688315,324.967314 92.2679784,324.967314 92.375057,324.975198 C92.2441831,325.010679 92.121241,325.050101 91.9784695,325.073755 L91.9784695,325.073755 Z M186.842205,287.626144 C187.119816,287.701047 187.290349,287.815373 187.425188,287.94941 C187.211031,287.866622 186.988942,287.752297 186.774785,287.630086 C186.79858,287.634029 186.814444,287.618259 186.842205,287.626144 L186.842205,287.626144 Z M110.64981,304.633091 C110.64981,304.621265 110.657742,304.621265 110.657742,304.61338 C110.657742,304.601553 110.645844,304.597611 110.645844,304.589726 C110.856036,304.597611 111.066227,304.597611 111.272452,304.601553 C111.066227,304.61338 110.856036,304.621265 110.64981,304.633091 L110.64981,304.633091 Z M111.60162,311.551773 C111.625415,312.316573 111.470746,312.990701 111.185203,313.601753 C111.054329,312.911856 111.415224,312.229843 111.60162,311.551773 L111.60162,311.551773 Z M167.587881,62.1283707 C168.051888,62.3294264 168.460373,62.4713481 168.80937,62.5501935 C168.381056,62.5462512 167.952741,62.3925027 167.587881,62.1283707 L167.587881,62.1283707 Z M277.978017,213.980621 C278.231833,214.173792 278.469786,214.457636 278.477718,214.698114 C278.493581,215.029265 278.164413,215.553586 277.851109,215.683681 C277.5616,215.801949 277.232433,215.801949 276.915163,215.861083 C277.276057,215.376184 277.62902,214.753306 277.978017,213.980621 L277.978017,213.980621 Z M201.623022,287.772008 C201.254195,287.231917 200.79812,286.806152 200.262726,286.490771 C202.110824,285.915199 203.717004,285.016362 204.35551,282.804749 C204.272226,282.256774 203.990649,281.582646 204.962289,282.000526 C205.870474,281.55505 206.818318,281.026786 207.762196,281.401302 L207.714606,281.413128 L207.77806,281.476205 C207.262496,281.846778 206.608127,282.122737 206.255164,282.611578 C205.299388,283.928296 205.561136,284.645789 207.036441,285.146457 C204.958323,285.386935 202.880204,285.627414 201.623022,287.772008 L201.623022,287.772008 Z M170.241051,73.324414 C170.300539,73.5018161 170.391754,73.6752759 170.467106,73.852678 C170.352096,73.7304677 170.233119,73.6043151 170.225188,73.4742202 C170.221222,73.4190285 170.245017,73.3796058 170.241051,73.324414 L170.241051,73.324414 Z M296.193282,204.854269 C296.431235,205.213015 296.669187,205.583589 296.90714,205.902913 C296.792129,205.930508 296.681085,205.95022 296.566074,205.977816 C296.074306,206.107911 295.693582,205.682145 295.864114,205.283976 C295.9355,205.126286 296.054476,204.984364 296.193282,204.854269 L296.193282,204.854269 Z M229.098605,220.016235 C229.130332,220.000466 229.162059,219.984697 229.193786,219.968927 C229.312762,220.544499 229.411909,220.989975 229.511056,221.376317 C229.245343,221.029398 229.154127,220.512961 229.098605,220.016235 L229.098605,220.016235 Z M123.81255,78.0866747 C123.832379,78.0669633 123.86014,78.0669633 123.883936,78.047252 C123.757028,78.1655201 123.642017,78.2916727 123.538904,78.4335943 L123.538904,78.354749 C123.463553,78.3626335 123.368372,78.3665758 123.285088,78.370518 C123.471485,78.2995572 123.657881,78.2246541 123.808584,78.0866747 C123.717369,78.1773469 123.63012,78.2640768 123.538904,78.354749 C123.63012,78.2640768 123.717369,78.1773469 123.81255,78.0866747 L123.81255,78.0866747 Z M154.758274,137.66224 C154.663093,137.496665 154.595673,137.358686 154.611537,137.342916 C154.659127,137.303494 154.682923,137.256187 154.726547,137.216764 C154.738445,137.354743 154.730513,137.536088 154.758274,137.66224 L154.758274,137.66224 Z M259.060792,147.679545 C259.056827,147.853005 259.009236,148.050118 258.914055,148.109252 C257.819473,148.795207 256.863698,147.868774 255.840502,147.746564 C255.618413,147.72291 255.543061,147.569162 255.424085,147.458778 C257.081821,147.711083 258.192266,147.821467 259.060792,147.679545 L259.060792,147.679545 Z M221.381012,217.41828 C221.404807,217.059533 221.408773,216.696844 221.424637,216.338098 C221.468261,216.752036 221.523783,217.118667 221.614999,217.430106 C221.527749,217.426164 221.472227,217.422222 221.381012,217.41828 L221.381012,217.41828 Z M69.4166054,193.650341 C69.46023,193.693706 69.4721276,193.760725 69.4959229,193.823801 C69.4760935,193.808032 69.46023,193.800147 69.4443665,193.784378 C69.4562641,193.89082 69.4681617,193.997261 69.4760935,194.103702 C69.4047077,193.985434 69.3055609,193.89082 69.2262434,193.780436 L69.4404006,193.780436 C69.4324689,193.737071 69.4245371,193.693706 69.4166054,193.650341 L69.4166054,193.650341 Z M173.025095,177.952227 C172.711791,177.995592 172.390555,177.99165 172.073285,178.011361 C172.572986,177.743287 173.064754,177.676268 173.556523,177.759056 C173.409785,177.837901 173.267014,177.920689 173.025095,177.952227 L173.025095,177.952227 Z M109.868533,155.607448 C109.943884,155.843984 110.023202,156.096289 110.110451,156.348594 C110.098553,156.348594 110.086656,156.344652 110.078724,156.344652 C109.979577,156.096289 109.90026,155.847926 109.868533,155.607448 L109.868533,155.607448 Z M165.803237,171.956036 C165.77151,171.774692 165.680295,171.660366 165.593045,171.542098 C165.612875,171.534213 165.628738,171.530271 165.644602,171.522387 C165.723919,171.648539 165.803237,171.774692 165.803237,171.956036 L165.803237,171.956036 Z M79.4502697,123.55286 C79.4582014,123.39517 79.4740649,123.237479 79.4819967,123.079788 C79.4978602,123.249306 79.4938943,123.387285 79.4502697,123.55286 L79.4502697,123.55286 Z M115.884765,265.155212 C115.892697,265.332614 115.730096,265.65588 115.607154,265.671649 C115.599222,265.671649 115.587325,265.671649 115.575427,265.675592 C115.690437,265.517901 115.777687,265.316845 115.880799,265.139443 C115.880799,265.147328 115.884765,265.15127 115.884765,265.155212 L115.884765,265.155212 Z M48.9209622,170.816721 C48.9844162,170.934989 49.024075,171.009892 49.0954607,171.139987 C48.960621,171.136044 48.833713,171.092679 48.6988732,171.07691 C48.7742249,170.986238 48.8456106,170.90345 48.9209622,170.816721 L48.9209622,170.816721 Z M230.534252,51.0308842 C230.815829,50.9638656 231.022055,50.9126161 231.232246,50.8692511 C231.026021,51.4487646 230.867386,51.9849132 230.752375,52.4698123 C230.375617,52.1268349 230.125767,51.7247235 230.534252,51.0308842 L230.534252,51.0308842 Z M150.625832,53.8101836 C150.530651,53.3055732 150.344255,52.8206742 150.062678,52.3673133 C150.074576,52.3357751 150.098371,52.3121215 150.110268,52.2805834 C150.641696,52.7181752 150.915341,53.2385547 150.625832,53.8101836 L150.625832,53.8101836 Z M149.93577,24.5270113 C150.114234,24.4954731 150.288733,24.479704 150.383914,24.5743185 L149.955599,24.5743185 C149.943702,24.5664339 149.939736,24.5585494 149.927838,24.5546071 C149.927838,24.5427803 149.931804,24.5348958 149.93577,24.5270113 L149.93577,24.5270113 Z M74.861752,75.7252557 C74.893479,76.009099 74.8974449,76.2416929 74.8776155,76.4151527 C74.830025,76.2062125 74.7824345,75.9893877 74.7269123,75.7252557 C74.766571,75.7173712 74.8181274,75.729198 74.861752,75.7252557 L74.861752,75.7252557 Z M252.941447,290.921881 C251.700128,292.136099 249.1699,290.756305 248.384656,292.889073 C247.484403,291.966582 246.40965,291.394953 245.013662,291.450145 C244.502065,291.548701 244.129272,291.836487 243.827866,292.222829 C243.8239,292.175522 243.839763,292.140042 243.831832,292.088792 C242.646035,290.559192 240.730517,291.154475 239.041054,290.539481 C240.936743,289.99939 243.260746,291.051976 244.20859,288.639307 C244.446542,288.76546 244.672597,288.643249 244.89072,288.260849 L245.089014,288.03614 C244.549655,287.697105 244.014262,287.354127 243.478869,287.015092 C241.983734,286.096544 240.528258,285.69049 238.715853,286.415867 C237.383318,286.944132 235.82473,286.912593 234.369253,287.129418 C233.758509,287.015092 233.290535,286.731249 232.862221,286.392214 C233.38175,286.273946 233.885417,286.03741 234.369253,285.611645 C239.084679,281.834951 243.75648,278.014893 246.473104,272.424756 C245.283342,271.178999 243.776309,271.364285 242.312901,271.348516 C242.443775,271.277555 242.574649,271.206595 242.705523,271.135634 C243.161599,270.910924 243.617674,270.686215 244.053921,270.426025 C244.351361,270.248623 244.632938,270.059394 244.922447,269.870165 C245.874257,270.213143 246.671398,270.93852 247.623208,271.281498 C248.023762,270.355065 248.428281,269.432574 248.824868,268.50614 C247.972205,268.490371 247.119542,268.474602 246.274811,268.458833 L246.270845,268.458833 L246.274811,268.458833 C246.211357,267.32346 245.739418,266.613851 244.882789,266.168375 C245.180229,265.379921 245.438011,264.548103 245.604578,263.609843 C246.310504,259.663632 245.747349,255.725305 247.512164,251.964381 C249.273012,248.211341 252.263282,245.562136 255.868263,243.594944 C259.215462,241.765731 264.303679,241.332082 264.501973,236.798473 C264.589222,234.870703 265.481544,233.514563 266.703034,232.615726 C267.095656,233.281969 268.61062,235.844444 268.81288,235.974539 C269.328443,235.071759 269.820212,234.15321 270.3794,233.274085 C270.589592,232.938992 270.914793,232.540823 271.26379,232.454093 C272.041102,232.256979 272.263191,232.895627 272.520973,233.483025 C273.3895,235.477813 273.536237,237.681541 274.067664,239.774886 C273.813848,240.870836 273.671077,242.065344 273.532271,243.267736 C273.413295,244.742144 273.476749,246.208668 273.560032,247.675192 C274.115255,249.394022 276.923094,250.718624 278.120789,251.873709 C280.075965,253.762055 282.134254,256.198377 283.276427,258.658353 C284.006148,260.239203 284.31152,261.796399 284.295656,263.318115 C283.92683,263.314173 283.554038,263.314173 283.201075,263.298403 C283.002781,264.051377 282.20564,264.879253 282.883805,265.56915 C284.216339,266.929233 283.641287,267.686149 282.233401,268.253835 C281.670247,268.482487 281.023809,268.502198 280.413065,268.620466 C280.500314,269.61786 280.766028,270.528524 281.63852,271.123807 C281.646452,271.159287 281.634554,271.186883 281.642486,271.222364 C281.70594,271.305151 281.741633,271.391881 281.805087,271.474669 C281.848711,272.255238 282.066835,272.960904 282.629989,273.497053 C282.637921,273.623205 282.709306,273.725704 282.701375,273.855799 C282.737067,274.293391 282.923464,274.65608 283.236768,274.947808 C283.04244,275.058191 282.836214,275.117325 282.661716,275.278958 C281.432295,277.533936 280.68671,279.875644 281.285557,282.477541 C281.464022,282.651001 281.626622,282.785038 281.793189,282.934844 C281.789223,282.934844 281.785257,282.938786 281.781292,282.938786 C279.21537,283.289648 276.538405,282.70225 274.079562,283.880989 C270.375434,282.710135 267.309813,283.108304 265.251524,286.940189 C264.854936,287.673451 263.359801,287.894218 262.328674,288.205658 C259.211496,289.151802 256.074488,290.023043 252.941447,290.921881 L252.941447,290.921881 Z M259.619981,334.645584 C259.536697,333.987225 259.818275,333.427422 260.270384,332.930697 C260.111749,333.541748 259.88966,334.129146 259.619981,334.645584 L259.619981,334.645584 Z M370.731907,228.965185 C370.438432,228.432979 370.061674,227.959906 369.597667,227.561737 C369.24867,227.329143 368.856048,227.187222 368.467392,227.033473 C368.590334,226.852129 368.737072,226.686553 368.852082,226.497325 C369.415236,226.118867 369.922868,225.693102 370.049776,224.975609 C370.192548,224.948013 370.335319,224.920417 370.458261,224.810034 C370.684316,224.608978 370.604999,224.325134 370.228241,223.946677 C370.256002,218.699517 370.279797,213.456299 370.307558,208.213082 C370.739839,207.838566 370.878644,207.377321 370.727941,206.829346 C369.875278,206.155218 369.629394,205.063209 368.951229,204.270813 C368.463426,203.352265 368.511017,202.465254 369.125727,201.617666 C369.542144,201.046037 370.049776,200.525658 370.121162,199.772685 L369.910971,199.492784 L370.061674,199.181344 C369.708711,198.266738 369.355748,197.352132 369.002785,196.437525 C369.209011,196.18522 369.403339,195.869839 369.597667,195.408593 C369.316089,193.126019 370.271865,190.713351 368.923468,188.525392 C368.633959,188.233664 368.606198,187.922225 368.840184,187.587132 C367.801125,185.525325 368.399972,183.463519 368.840184,181.405654 C368.808457,180.798545 368.685515,180.203262 368.471358,179.631633 C368.070805,178.803757 367.479889,178.161167 366.678782,177.707806 C366.119594,177.526462 365.564371,177.487039 364.98932,177.625019 C364.485653,177.865497 364.001817,178.157225 363.486253,178.346454 C363.569536,177.656557 363.490219,176.931179 363.2483,176.178206 C362.934996,175.835229 362.589965,175.55927 362.22907,175.310907 C362.843781,174.27409 363.993885,174.147938 365.001217,173.781307 C365.040876,172.973142 365.084501,172.161034 365.120193,171.352869 C365.092432,170.083459 365.068637,168.81799 365.03691,167.54858 C365.140023,167.54858 365.231238,167.418485 365.298658,167.158295 C365.366078,166.917817 365.215374,166.716761 364.846548,166.55907 C363.549707,164.930913 363.577468,162.999202 363.561604,161.075374 C362.451159,159.940001 362.240968,158.552322 362.415467,157.05426 C362.098196,156.829551 362.026811,156.541765 362.205275,156.198788 C361.761097,155.201394 361.820585,154.026598 361.09483,153.131703 C360.773594,152.922763 360.694277,152.650746 360.868775,152.311711 C360.821185,151.665179 360.583232,151.4247 360.135088,151.602103 C360.388904,150.742688 360.396836,149.918754 359.71074,149.193376 L359.714705,149.201261 C358.524943,148.211751 358.243366,146.859553 358.191809,145.416683 C357.228102,144.742555 357.053603,143.741219 357.025842,142.672864 L357.041706,142.692575 C356.292155,141.955371 356.545971,140.733268 355.740899,140.019717 L355.744864,140.031544 C354.983416,139.310109 355.205505,138.111659 354.444057,137.386281 L354.440091,137.382339 C353.654848,136.700327 353.888835,135.486108 353.09566,134.800153 C352.675277,134.287658 352.421461,133.712087 352.445256,133.034017 C352.457154,132.596425 352.369905,132.178544 352.183508,131.780375 C351.961419,131.409802 351.715535,131.05894 351.426026,130.739616 C351.180142,130.400581 350.946155,130.049719 350.700271,129.706742 C350.498011,129.340111 350.299718,128.969538 350.073663,128.614733 C349.887267,128.240218 349.665178,127.877529 349.391532,127.554263 C349.141689,127.211286 348.8839,126.876193 348.594391,126.568696 C348.344541,126.225719 348.078828,125.894568 347.781387,125.591013 C347.31738,125.161306 346.916826,124.648811 346.254525,124.49112 L346.202969,124.514774 C345.50894,124.250642 345.199602,123.718436 345.148046,123.004885 C344.184338,122.54364 343.763955,121.711821 343.577559,120.718369 L343.597389,120.66712 C343.494276,120.012703 343.280119,119.784051 342.97078,119.906262 C342.974746,119.902319 342.978712,119.898377 342.978712,119.890493 C342.982678,118.995598 342.677306,118.195317 342.229162,117.434459 C341.808779,116.716966 341.376498,116.0113 340.876798,115.345057 C340.523835,114.935061 340.139145,114.560545 339.706865,114.237279 C338.691601,112.928446 339.909125,111.051926 338.572625,109.82588 C338.27915,109.612998 338.231559,109.356751 338.429853,109.057138 C338.291048,108.560412 338.041197,108.126763 337.704098,107.744363 C337.561327,107.56696 337.438384,107.377732 337.311476,107.188503 C337.291647,106.770622 337.271818,106.356684 337.251988,105.942746 C336.902991,105.804766 336.542097,105.721979 336.17327,105.690441 C336.086021,104.901987 336.006703,104.109591 335.92342,103.317195 C334.959712,102.761335 334.598818,101.858555 334.503637,100.813854 C334.503637,100.813854 334.555193,100.175207 334.551227,100.175207 C334.432251,99.7652106 334.245855,99.3828105 333.984107,99.0398332 C333.754086,98.6810867 333.508202,98.3420516 333.210761,98.0345546 C332.754686,97.6206164 332.381893,97.0844679 331.703729,96.9977379 L331.632343,97.0174493 C330.950213,96.7887977 330.617079,96.280245 330.498103,95.6021748 L329.209193,94.2618034 C328.511199,94.06469 328.114612,93.5916177 327.948045,92.9096052 C327.563355,92.8583557 327.170733,92.8110485 326.778112,92.7637413 C326.718624,92.3734567 326.65517,91.9871143 326.591716,91.6047143 C325.897687,91.4549081 325.429714,91.0449121 325.227455,90.3589573 C324.75155,89.9765573 324.271679,89.5902149 323.795774,89.2038726 C323.026394,89.0461818 322.253048,88.8924334 321.479702,88.7347426 C321.071217,88.3484003 320.579449,88.2222477 320.028192,88.3326312 C319.524526,88.5218601 319.048621,88.7583962 318.612375,89.0698355 C318.168197,89.3655056 317.735916,89.665118 317.323465,90.0002109 C316.264577,90.7965492 315.106541,91.5022153 314.856691,92.964797 C314.824964,93.0357578 314.805135,93.1106609 314.777373,93.1816218 C314.515626,92.6888382 314.317332,92.1763432 314.19439,91.6401947 C315.515026,91.8175968 315.84816,90.3589573 316.59771,89.6020417 C316.859458,89.1289695 317.085513,88.6480127 317.260011,88.1355178 C317.593145,87.142066 317.926278,86.1525566 318.271309,85.1630471 C318.43391,84.6663212 318.564784,84.1656531 318.644102,83.6492159 C318.743249,82.8804735 318.763078,82.1117311 318.671863,81.3429887 C318.600477,80.8423205 318.489433,80.3574215 318.322866,79.880407 C317.969903,78.9894542 317.620906,78.106386 317.363124,77.1917797 C317.240182,76.7384188 317.09741,76.2968847 316.911014,75.8671774 C316.625471,75.2403566 316.320099,74.6253627 316.002829,74.014311 C315.800569,73.6003728 315.558651,73.2140305 315.265176,72.8592263 C314.702022,72.4768262 314.051618,72.2481746 313.500362,71.8460632 C312.727016,71.1719353 313.147399,69.8000257 312.02109,69.3269535 L312.112305,69.3742607 C311.795035,68.8538812 311.442072,68.3571554 311.049451,67.8919677 C310.75201,67.7185078 310.648897,67.4701449 310.740112,67.1389943 C310.601307,66.6264994 310.272139,66.283522 309.823995,66.0509281 C309.895381,65.7867961 309.871586,65.5147796 309.637599,65.2309362 L309.613804,65.183629 C308.741311,64.5607506 309.058581,63.3662431 308.388348,62.6448079 C308.114703,62.4319254 308.027454,62.1599089 308.122635,61.8287583 C307.971932,61.03242 307.480163,60.4765601 306.825794,60.0389683 L306.865452,60.1493518 C305.294966,59.1716692 305.009423,60.6460777 304.374883,61.442416 C303.407209,62.5856739 302.542648,61.824816 301.66619,61.296552 C300.547813,61.3596283 299.603935,61.0560736 298.989224,60.0468528 C298.465729,59.6999332 297.946199,59.3569558 297.422703,59.0100361 C294.900407,57.9889885 293.155422,56.2189098 292.211543,53.6761465 L292.33052,53.6209547 C292.025147,53.0414412 291.573037,52.5762535 291.097132,52.1347194 L291.101098,52.1347194 C290.315855,51.4408801 290.569671,50.1714696 289.665451,49.5407066 L289.673383,49.6077251 C288.666051,48.9651353 288.428098,47.9835104 288.463791,46.8836174 C288.162385,46.789003 287.857012,46.7219844 287.539742,46.6904462 C287.579401,46.2607389 287.452493,45.8862234 287.16695,45.5668996 L287.270063,42.9571177 C287.365244,42.9571177 287.432664,42.8151961 287.48422,42.535295 C287.535777,42.2751052 287.389039,42.0503959 287.047974,41.8651093 C285.882007,40.7770431 285.78286,39.3065769 285.612327,37.8637065 C284.731903,37.1895785 284.450326,36.243434 284.37894,35.1987328 C284.37894,34.9661389 284.374974,34.7374874 284.371008,34.5048935 C284.220305,34.0633594 284.010113,33.6494212 283.7444,33.2709634 C283.47472,32.8806788 283.17728,32.5101055 282.84018,32.1750127 C282.487217,31.8399198 282.102527,31.5442497 281.678179,31.2880022 L281.650418,31.3195403 C281.230035,30.8780062 280.809652,30.4404144 280.381338,29.9988803 C279.925262,29.5809998 279.469186,29.1631193 279.009145,28.7412966 C278.53324,28.3628388 278.053369,27.9804387 277.577464,27.5940964 C276.593927,27.3299643 275.729366,26.8963148 275.245529,25.9344012 C274.186641,25.8516136 273.282421,25.461329 272.639949,24.5782607 L270.407161,24.3417246 C270.415093,24.2944174 270.426991,24.2707638 270.430957,24.2116298 C270.470615,23.8725946 270.33181,23.5572131 270.018506,23.2733698 L269.99471,23.261543 C269.118252,22.5046274 267.932455,22.5755882 266.948918,22.1143428 C266.607853,22.2128995 266.302481,22.1458809 266.036767,21.9132871 C264.676472,21.2549282 263.403426,20.4428208 262.078823,19.7292702 C261.210297,19.4257155 260.317975,19.2404288 259.397892,19.169468 C257.589453,19.0748536 255.800843,18.8580288 254.071721,18.2982266 C253.171468,18.069575 252.255351,17.9394802 251.32337,17.967076 C250.074119,17.9710183 248.975572,18.743703 247.714423,18.6924535 C247.63114,18.6963958 247.555788,18.6963958 247.468539,18.700338 C247.385256,18.5347627 247.286109,18.3731297 247.206791,18.2075544 C246.445343,18.1050554 245.691827,18.0025565 244.938311,17.8961152 C244.696392,17.9591915 244.45844,18.0301523 244.220487,18.0971709 C243.966671,17.9473647 243.716821,17.7975585 243.482835,17.5728492 C242.749148,17.3993893 242.015461,17.4112161 241.293671,17.5886182 C241.321433,17.5255419 241.345228,17.4861192 241.365057,17.4072739 C241.444375,17.115546 241.206422,16.9263171 240.6512,16.8395872 C240.294271,16.9342016 239.957172,16.8829521 239.647833,16.6858387 C238.588945,15.5307539 236.75671,16.6661273 235.745412,15.3809477 L235.697822,15.3533518 C234.952237,14.6555703 233.758509,14.8763373 233.056549,14.0997104 L233.044651,14.0957681 C232.330793,13.3743329 231.672458,12.5937637 230.72858,12.1443451 C230.260607,11.9354048 229.788667,11.7540605 229.292933,11.6279079 C228.309396,11.3637759 227.35362,11.0168562 226.409742,10.6502252 C225.921939,10.4807077 225.422239,10.3309014 224.910641,10.2441715 C224.395077,10.1574416 223.871582,10.0864808 223.34412,10.0667694 C221.979859,9.98792406 220.69095,9.55821676 219.390143,9.20735484 C218.525582,9.02995275 217.664987,9.04177955 216.81629,9.30196929 C216.407804,9.48331365 216.150023,9.8302333 215.880343,10.1613839 C215.773264,9.40052601 215.043543,9.25466207 214.551775,8.86831973 L214.563672,8.87620426 C213.7586,8.05621236 212.552974,8.20601857 211.636857,7.65015868 C211.252167,7.72506179 210.907136,7.65015868 210.589866,7.41756482 C209.725305,6.76314821 208.575201,6.86958946 207.655118,6.34526772 C207.286291,6.45565124 206.96109,6.38469041 206.667615,6.14421201 C205.477852,6.10084705 204.292056,6.05353983 203.106259,6.0062326 C203.074532,6.00229034 203.050737,6.01411714 203.01901,6.01017487 C203.022976,5.99046353 203.026941,5.98257899 203.030907,5.96680992 C203.114191,5.60806346 202.979351,5.26508608 202.63432,4.94182004 C202.18221,5.01278088 201.753896,4.94970458 201.341445,4.75653341 C200.072364,3.88529201 198.394799,4.61066946 197.133651,3.71183218 C196.348408,3.65269815 195.555233,3.59356412 194.769989,3.53443009 C192.184239,2.09944426 189.158276,3.78673529 186.568559,2.39511442 C185.791248,2.35569173 185.00997,2.32021131 184.236625,2.28078862 C183.391893,1.57906478 182.483708,1.00743581 181.361365,0.841860524 C180.63561,0.770899686 179.917787,0.818206911 179.207895,0.995609006 C174.984238,1.96540712 170.772478,2.14280922 166.584514,0.841860524 C165.870657,0.703881117 165.148867,0.644747086 164.427078,0.692054311 C162.920045,0.75907288 161.607341,1.29127916 160.484998,2.28867316 C159.687857,2.32021131 158.894682,2.34780719 158.097541,2.37934534 C155.690255,3.53443009 153.10847,2.68290004 150.625832,2.98645473 C150.141995,3.1796259 149.646261,3.27029808 149.146561,3.35308573 C147.238975,2.623766 145.311559,2.83664852 143.368281,3.50289194 C141.23464,3.56202597 139.100999,3.62116 136.971324,3.68029403 C135.337383,4.96153138 133.068903,3.50289194 131.470655,4.94182004 C131.256498,5.18229843 130.998716,5.39912321 130.736968,5.60806346 C130.709207,5.17835616 130.689377,4.76047567 130.629889,4.29528796 C128.286057,4.47269006 125.866873,3.75125487 123.582529,4.81172517 C122.333278,4.87480147 121.076096,4.93787777 119.826845,5.00095407 C118.954353,5.615948 117.740795,5.44248817 116.94762,6.23488419 L116.959517,6.22699965 C116.257558,7.01151114 115.059863,6.74343686 114.326176,7.46092978 C113.981145,7.59890918 113.628182,7.64621641 113.259356,7.60679372 C112.640679,7.91034842 112.137013,8.35976706 111.673006,8.86043519 L111.684903,8.85255065 C110.978978,9.63311987 109.713863,9.3768724 109.059494,10.2520561 L109.115016,10.1968643 C108.595487,10.5516685 108.183036,11.0326253 107.699199,11.4268522 L107.65954,11.4465635 C107.520734,11.4465635 107.385895,11.5687738 107.247089,11.8092522 C107.155874,11.9708852 107.223294,12.1325183 107.358134,12.2980936 C106.537197,12.1325183 105.751954,12.1482873 105.077755,12.8066462 L105.101551,12.7869349 C104.712895,13.185104 104.288546,13.5320237 103.820573,13.8276938 C103.46761,14.0366341 103.086886,14.1470176 102.678401,14.1588444 C102.325438,14.344131 102.226291,14.5964362 102.24612,14.8802796 C101.861431,14.9236445 101.49657,15.018259 101.151539,15.2271992 C100.715293,15.2942178 100.286978,15.3572941 99.8586635,15.4243127 C97.5743194,16.5044943 95.2860094,16.3546881 92.9937335,15.4716199 C90.5348909,15.4913312 88.0760483,15.5071003 85.6211715,15.5268117 C85.0738807,15.6332529 84.8795528,15.9683458 84.8835187,16.4335335 C84.1894906,15.9880571 83.4518378,16.1063252 82.6864238,16.5478593 C82.2541434,16.6109356 81.8258289,16.6740119 81.3895826,16.7370882 C81.2666405,16.7370882 81.1397325,16.8750676 81.0088586,17.1510264 C80.8740189,17.4151584 80.9691999,17.6990018 81.2468111,17.9946719 C80.3822503,17.9986142 79.5256213,18.0025565 78.6650264,18.0064987 C78.6570946,18.4401483 78.6531287,18.8698556 78.645197,19.3035051 C77.7727045,19.3074474 76.9002119,19.3113897 76.0237535,19.3192742 L75.9999582,20.6123384 L73.4776616,20.7030106 C74.385847,22.2759758 75.2147149,21.6530973 76.0277194,20.6832992 C77.0985057,20.6083961 78.1137697,20.4270517 78.6808899,19.3626392 C79.7556421,19.3074474 80.8978141,19.3823505 81.3221628,18.0538059 C82.6903897,18.0419791 84.1379342,18.2430348 85.0500855,16.9223748 C85.288038,17.3126594 85.5339223,17.6950595 85.8749875,18.0064987 C86.4698688,18.5347627 87.100443,19.007835 87.7865394,19.3941773 C86.9537056,20.0209981 86.5967768,20.9158931 86.4302101,21.9093448 L86.4302101,21.9093448 C84.2926033,23.159044 83.792903,25.9935352 81.4252755,27.0185251 C81.4252755,27.0224674 81.4213097,27.0264097 81.4213097,27.0303519 C81.2983675,26.8923725 81.1912889,26.7465086 81.0326539,26.636125 C81.028688,26.636125 81.028688,26.636125 81.028688,26.636125 C80.3743186,25.8358445 79.6247682,25.1617165 78.5896747,24.8423928 C78.2763706,24.479704 77.883749,24.3338401 77.4038781,24.4087432 L77.3999122,24.4087432 C76.1625591,23.6439431 75.5478485,24.3220133 74.9450354,25.0473907 C74.7308782,25.0000835 74.5167209,24.9251804 74.2946319,24.8857577 C72.5575785,24.9015268 71.494724,25.8043063 70.9513991,27.3969829 L70.9157062,27.4561169 C69.0874377,28.3864924 67.3781455,25.3470032 65.51815,27.2787149 C65.0144839,27.6689995 64.5504765,28.0908222 64.2213088,28.6466821 L64.3164898,28.5599522 C63.3726115,29.1828307 63.6343593,30.4601257 62.8689454,31.1776187 L62.8887748,31.1500228 C62.0718045,31.7492476 62.4485626,33.0580809 61.4372644,33.5390376 L61.3143223,33.6770171 C60.751168,34.5876811 59.5733031,34.4142213 58.7840939,34.9188317 C58.5104485,34.2722996 57.828318,34.146147 57.2651637,33.8741305 C56.8963373,33.9884563 56.5473403,33.9372068 56.2261044,33.7124975 C54.0210778,32.9752932 51.8279488,32.4785674 49.7141373,33.9766295 L49.848977,33.8701882 C49.2223688,34.1500893 48.7742249,34.6073925 48.4688525,35.2105596 C47.8779371,35.5022875 47.4416908,35.9398793 47.148216,36.5233351 C46.5612665,36.815063 46.1210543,37.2526548 45.8355113,37.8439951 C45.2445959,38.1238962 44.8123155,38.5575458 44.5228066,39.1370593 C43.9160277,39.4287872 43.4718497,39.8860904 43.1387162,40.4616616 C42.5834936,40.7888699 42.1353497,41.2225195 41.7863527,41.7626103 L41.8617043,41.6877072 C41.3025159,42.0188578 40.8781673,42.4879877 40.4696821,42.9768291 C39.9858454,43.3552869 39.5733943,43.8244169 39.0816258,44.1949901 L39.0419671,44.222586 C37.7292624,44.9873861 36.2182639,45.8862234 36.4443188,47.5143804 C36.6941689,49.26869 38.5065739,49.3790735 39.9818795,49.5604179 C41.2549254,49.7181087 42.5319373,49.4815725 43.8287785,49.3948426 C44.2491612,49.4066694 44.5386701,49.5525334 44.8083496,49.7220509 C44.3760692,50.2227191 43.7772221,50.6011769 42.9324907,50.7746367 C41.68324,51.0308842 40.3269106,50.735214 39.0578306,50.9362697 C37.6856377,51.1570368 37.677706,52.3554865 37.709433,53.4514372 L37.7649552,53.4869176 C38.3082802,53.932394 38.8079804,54.4370044 39.5178721,54.6183487 C40.1722415,54.6262333 40.8266109,54.6380601 41.4770145,54.6459446 C42.7064358,53.6603774 44.4871137,54.5473879 45.6729104,53.4277836 L45.6887739,53.419899 C46.0496686,53.0335567 46.672311,52.9074041 46.9023318,52.3909669 C46.9380246,52.4185628 46.9538881,52.4619277 46.9935469,52.4855813 C47.5408377,52.6472143 48.0920943,52.6314453 48.6314533,52.4422164 C48.9645869,52.3160638 49.2977204,52.1820266 49.6308539,52.055874 C50.0750319,52.0952967 50.5192099,52.1347194 50.963388,52.1741421 L51.5146446,52.0125091 L52.0896965,52.0282782 C52.1650482,51.835107 52.2483315,51.6419358 52.3236832,51.4487646 C52.5457722,51.4448224 52.7678612,51.4211688 52.9939161,51.4487646 C54.5049145,51.2555935 56.1507528,51.9257792 57.511048,50.7588676 C59.0418758,49.371189 61.3381175,50.9520388 62.8213549,49.3987849 L62.753935,49.4184962 C63.0950003,49.1819601 63.4558949,48.9887889 63.8326531,48.8310982 C64.5623741,48.8192714 65.0382791,49.3909003 65.6371263,49.6550324 C66.9894897,49.796954 68.0721737,49.2253251 69.0596766,48.4250445 C69.555411,48.5551394 70.0709748,48.6694652 70.5548116,48.8113868 C73.8306245,48.8153291 77.2214478,49.3475354 79.9935946,46.891502 C80.4219091,46.8599638 80.8502236,46.8244834 81.2785381,46.7929452 C85.7560113,48.6536961 90.37229,48.6536961 95.0282275,48.1412011 C94.6435376,48.2358156 94.2747112,48.3698527 93.933646,48.578793 C93.5449902,48.6300425 93.1523685,48.681292 92.7637128,48.7522528 C92.3155689,48.9138858 91.9546742,49.1898446 91.6493018,49.5407066 C88.2029563,47.317267 86.4936641,50.9914615 83.9951627,51.9691441 C83.697722,52.201738 83.3685544,52.2884679 82.999728,52.2332761 C82.619004,52.3870246 82.492096,52.627503 82.4881301,52.9113464 C82.0994743,52.950769 81.7187503,53.037499 81.3618215,53.2385547 C81.0445515,53.4987444 80.6915886,53.5973011 80.2870693,53.5460516 C79.3987133,54.1295074 78.1653261,53.9521053 77.4197416,54.8391158 C76.6265665,55.4777633 75.4645651,55.3161303 74.7308782,56.0730459 L74.7269123,56.0730459 C74.0289182,56.8536151 72.8470874,56.5894831 72.1094346,57.2754379 C71.8476869,57.511974 71.5462804,57.5868771 71.2052151,57.5001472 C70.7769006,57.6814916 70.4794599,57.9889885 70.253405,58.3674463 C70.0114866,58.3004278 69.7616365,58.3161968 69.4840252,58.4975412 C69.1667552,58.7419619 68.8058606,58.8405186 68.4053072,58.7892691 C67.5129853,59.3845517 66.2994274,59.1913805 65.4903889,59.975892 C65.2365729,60.1927168 64.9510299,60.2557931 64.629794,60.1611786 C63.9595611,60.2124281 63.7017792,60.4331952 63.8485166,60.8195375 C63.0117169,60.6736735 62.2066442,60.6736735 61.5840018,61.3911665 C60.4457956,62.4358677 58.6889129,61.4936655 57.5705361,62.6211543 L57.5665702,62.6250966 C56.5076815,63.8432576 54.7270036,62.7827873 53.6244902,63.8708535 C53.2715274,64.0640247 52.8947692,64.1113319 52.4981817,64.0127752 C51.2925556,65.0141115 49.5872293,64.1783505 48.3657397,65.124495 C48.0008792,65.3176662 47.6161893,65.3807425 47.2037383,65.3137239 C46.3669386,65.9720828 45.1652784,65.7867961 44.3760692,66.547654 L44.3602057,66.5555385 C43.6820411,67.3597614 42.412961,67.0916871 41.7585916,67.9511017 L41.8141138,67.8998522 C41.3937311,68.2743677 40.9455872,68.6173451 40.4776139,68.9248421 C40.2119003,69.1771473 39.8866985,69.2993576 39.521838,69.2914731 C38.7802193,69.5122401 38.2329285,69.9774278 37.8244434,70.6160754 L37.9037609,70.5490568 C37.328709,70.8920342 36.8765992,71.3572219 36.4958752,71.9051973 L36.5593292,71.842121 C36.0160043,72.208752 35.5718263,72.6739397 35.1593752,73.1785501 L35.2029999,73.1391274 C34.6993337,73.529412 34.2670533,73.9906574 33.8268412,74.4479606 L33.8427047,74.4361338 C33.386629,74.8579566 32.942451,75.2916061 32.53,75.7567938 C32.0580608,76.1746743 31.6138828,76.6162084 31.1895341,77.0853384 L31.2133294,77.0616848 C30.7413902,77.4874498 30.2853146,77.9250417 29.8807953,78.4217675 L29.9204541,78.3823448 C29.4167879,78.7962831 28.9448488,79.2299326 28.5839541,79.7818502 L28.651374,79.7187739 C28.0921856,80.0814627 27.6321441,80.5427081 27.2672835,81.0946257 L27.3307375,81.0276072 C26.7794809,81.4021227 26.3115076,81.8594259 25.9625106,82.4310549 L26.0537257,82.3482672 C25.1098474,82.888358 25.4588444,84.2366139 24.518932,84.780647 L24.4475463,84.8870883 C24.0985492,85.3759296 23.7019617,85.8135215 23.2577837,86.2116906 L23.2458861,86.2235174 C22.8255033,86.7005319 22.3337348,87.1105279 21.9887036,87.6506187 L22.0640553,87.5757156 C21.1558698,88.1709982 21.469174,89.4798314 20.5847838,90.0829985 L20.545125,90.1460748 C20.1842304,90.6585698 19.6765984,91.0527966 19.3593284,91.5968297 L19.4386459,91.5022153 C18.1695658,94.0883436 18.3044056,96.6941832 19.339499,99.3079074 C20.5213298,100.364435 19.3831236,102.252782 20.7553164,103.242292 L20.7116918,103.147677 C21.1281087,104.078053 21.7388535,104.744296 22.8532644,104.736412 C22.35753,105.552461 22.547892,106.628701 22.0680211,107.44475 C22.1235434,107.831092 22.0561235,108.197723 21.8776591,108.544643 C21.2867437,109.214829 21.2986413,110.011167 21.4136517,110.831159 C21.0844841,110.720776 20.8584292,110.929716 20.7434188,111.49346 C20.8267022,111.856149 20.7553164,112.187299 20.5371933,112.486912 C20.0414589,113.129502 19.9224826,113.783918 20.1683669,114.442277 C19.8907556,114.678813 19.593315,114.89958 19.371226,115.195251 L19.4069189,115.108521 C18.3282008,116.259663 18.5185628,117.493593 19.1570687,118.751177 C18.7485836,118.672332 18.3519961,118.707812 17.971272,118.99954 L17.9633403,119.015309 C17.241551,119.76434 17.4041519,120.919425 16.7378848,121.696052 C15.9090169,122.378064 16.0795496,123.55286 15.4331119,124.329487 C14.5804487,124.991788 14.7708107,126.186296 14.1005778,126.947154 C13.2637781,127.573974 13.5334577,128.8355 12.6728627,129.450494 L12.6411357,129.501744 C11.9590052,130.266544 12.1612648,131.437398 11.3998168,132.162775 L11.4156803,132.139122 C10.6026759,132.93546 10.7613109,134.145736 10.1703955,135.036689 C10.2378154,135.395436 10.1941907,135.742355 10.0434875,136.077448 C8.68715815,137.614933 10.154532,139.814719 8.79423678,141.352204 C7.58861071,142.408732 8.59594302,144.202464 7.48153208,145.29053 C6.64076653,146.05533 6.81129917,147.269549 6.20452026,148.140791 C6.28780364,148.499537 6.24814489,148.850399 6.09347575,149.189434 C5.31219833,149.918754 5.56204847,151.125088 4.83629331,151.882004 L4.86802031,151.82287 C3.3332266,153.313047 4.91561081,155.595621 3.50772511,157.113394 L3.53548624,157.077914 C2.7899017,157.811176 2.71455007,158.682417 3.03182008,159.628562 C3.17855747,159.723176 3.31339722,159.837502 3.45616873,159.947886 C3.2856361,160.901915 3.09923996,161.848059 2.23071329,162.490649 C2.28226967,162.876991 2.23467917,163.251507 2.08794178,163.614196 C2.12363466,172.791797 2.15932754,181.977283 2.19898629,191.158827 C2.29416729,191.525458 2.30606492,191.896032 2.22278154,192.266605 C2.40124592,192.735735 2.64316431,192.913137 2.9485367,192.818523 C2.88111683,193.267941 2.86128745,193.709475 2.91284383,194.174663 C2.92077558,194.198317 3.19442097,194.773888 3.19442097,194.773888 C3.19442097,194.773888 2.55194918,194.746292 2.54005156,194.758119 C2.53211981,194.766003 2.19502041,195.223306 2.19502041,195.223306 C2.25847442,195.617533 2.23864504,196.015702 2.13949816,196.405987 C2.12363466,198.747695 2.09983941,201.089402 2.08794178,203.43111 C2.08397591,204.736001 1.94517027,205.989642 0.921974468,206.955498 C0.898179217,208.24462 0.882315716,209.533742 0.858520465,210.818922 C-0.097255463,212.139582 -0.097255463,213.460242 0.858520465,214.77696 C0.87041809,215.593009 0.878349841,216.409059 0.890247466,217.225108 C1.0290531,217.225108 1.16389286,217.390684 1.26303974,217.729719 C1.39787949,218.190964 1.26700561,218.569422 0.890247466,218.86115 C0.985428472,219.219896 1.00525785,219.578643 0.941803844,219.945274 C2.19502041,221.029398 1.92930677,222.555056 2.12363466,223.950619 C2.11570291,226.138578 2.10777116,228.322595 2.09587353,230.506612 C2.21484979,230.900839 2.24657679,231.30295 2.18708866,231.712946 C3.71395062,233.723503 1.93327265,236.364823 3.46410048,238.37538 C3.48392986,239.199315 3.50772511,240.019306 3.52755449,240.843241 C4.22554853,241.631694 3.98759601,242.818317 4.7093853,243.594944 C4.83629331,243.989171 4.87595206,244.391282 4.83629331,244.797336 C5.96260187,245.93271 4.92750844,247.75798 6.15692976,248.857873 L6.13710038,248.822393 C7.29910182,249.910459 6.29573539,251.652942 7.34669232,252.772546 C7.48153208,253.166773 7.52119083,253.564942 7.48153208,253.974938 C7.85432435,254.53474 8.15969674,255.141849 8.59594302,255.658287 C8.03278873,256.442798 8.05261811,257.235194 8.70698752,258.035475 C8.8061344,258.425759 8.83389553,258.819986 8.80216853,259.222098 C9.92054534,260.365356 8.88941778,262.174857 10.0752145,263.302346 C10.1664296,263.65715 10.1941907,264.019839 10.1505661,264.38647 C10.5471536,264.745216 10.9715023,264.776754 11.4196462,264.607237 C11.4156803,265.912128 11.4117144,267.217019 11.4077485,268.517967 C11.5743153,268.541621 11.7369162,268.561332 11.9034829,268.584986 C11.9391758,268.76633 11.9471076,268.943732 11.9867663,269.125077 C12.2604117,270.650735 11.6734622,272.282834 12.5578524,273.733589 C12.696658,274.1357 12.7640779,274.549639 12.7561461,274.975404 C13.0377233,275.547033 13.4184473,275.617993 13.9022841,275.192228 C13.9260793,275.117325 13.9419428,275.133094 13.9657381,275.089729 C13.9657381,275.105498 13.9657381,275.117325 13.9617722,275.133094 L13.9697039,275.140979 C13.8150348,275.267131 13.6643315,275.393284 13.616741,275.562802 C13.3549933,276.363082 13.4224132,277.096344 14.0569532,277.719223 L14.0410897,277.691627 C15.2348181,278.771808 14.1917929,280.569483 15.3379309,281.661491 L15.3379309,281.665434 C15.8653923,282.221294 16.0914472,282.938786 16.4206148,283.601088 C16.4959665,283.794259 16.5911475,283.983488 16.6783967,284.176659 C16.6823626,284.637904 16.6823626,285.103092 16.6863285,285.56828 C16.9361786,285.607702 17.1939605,285.627414 17.4438106,285.65501 C17.5231281,285.785104 17.5984798,285.915199 17.6817631,286.03741 C17.2851756,286.786441 17.336732,287.51576 17.9673062,288.217484 C18.0862824,288.556519 18.1180094,288.907381 18.0585213,289.262186 C18.3638937,289.849584 18.7723788,290.358136 19.244318,290.823324 C19.3831236,291.178128 19.4307141,291.540817 19.3950212,291.919275 C20.0216295,292.766862 19.8273016,293.992908 20.6958283,294.730112 C21.3700271,295.487028 21.183631,296.669709 22.008533,297.351721 C22.6985953,298.108637 22.4923698,299.322855 23.3529647,299.993041 L23.2974425,299.941792 C23.662303,300.466113 24.1778667,300.852456 24.5903178,301.32947 L24.5863519,301.321586 C26.1845996,302.098213 27.0769215,303.395219 27.4179868,305.102221 C27.8225061,305.559525 28.2270253,306.012886 28.6315446,306.466246 C29.0519274,306.505669 29.476276,306.52538 29.9006247,306.529323 L29.9006247,306.533265 L29.9164882,306.564803 C29.9006247,306.978741 29.9125223,307.388737 29.9521811,307.798733 C30.3527345,307.838156 30.7612196,307.873636 31.1657389,307.89729 C31.2291929,308.275748 31.2926469,308.654206 31.3481691,309.032663 C33.0336661,309.387468 34.3662002,310.227171 35.1712729,311.788309 C35.6511438,312.170709 36.1349805,312.557052 36.6188173,312.939452 C37.6578766,313.089258 38.6057208,313.384928 39.1252504,314.41386 C39.617019,314.784434 40.1087875,315.158949 40.600556,315.533465 C41.6237518,315.687213 42.5755619,315.963172 43.1704432,316.913259 C44.9828481,317.078834 46.9935469,316.562397 48.3141833,318.403436 L49.626888,319.716212 C51.15375,320.508608 52.1214235,321.742538 52.5814651,323.386464 C52.9859843,323.843767 53.3984354,324.297128 53.8029546,324.754431 C54.1916104,325.243273 54.584232,325.728172 54.9689219,326.213071 C55.4012023,326.658547 55.8334827,327.104023 56.2617973,327.5495 C56.6901118,328.002861 57.1144604,328.452279 57.542775,328.901698 C57.9988506,329.327463 58.4549263,329.75717 58.907036,330.182935 C58.8991043,330.6087 58.9030702,331.030523 58.9308313,331.456288 C59.3551799,331.483884 59.7795286,331.495711 60.2078431,331.491769 L60.211809,331.499653 C60.211809,331.92936 60.211809,332.355125 60.2356042,332.78089 C60.6520211,332.808486 61.068438,332.83214 61.4888208,332.847909 C61.4888208,333.269732 61.5046843,333.695497 61.5324454,334.11732 L62.182849,334.144915 L62.8372184,334.133089 L62.8372184,334.137031 C62.8372184,334.562796 62.8570478,334.984619 62.8848089,335.406441 L62.8570478,335.398557 C63.3488163,335.840091 63.7731649,336.348644 64.344251,336.699506 C64.7448044,336.699506 65.137426,336.75864 65.51815,336.876908 C65.9781916,337.239596 66.3985743,337.633823 66.7951618,338.059588 L66.8030936,338.067473 C67.2710669,338.524776 67.7509378,338.970252 68.3101262,339.317172 C68.7027478,339.301403 69.0874377,339.344768 69.4641959,339.451209 C69.9480326,339.857263 70.4041083,340.28697 70.9355356,340.63389 C71.336089,340.629948 71.7326765,340.685139 72.1134005,340.80735 C72.5813738,341.18975 73.0493471,341.576092 73.5173203,341.958492 C73.9377031,341.966377 74.35412,342.021568 74.7626052,342.124067 C75.5438826,342.774542 76.7098499,342.530121 77.4475027,343.271268 C77.8797831,343.267325 78.3001659,343.31069 78.7165828,343.409247 C79.3868157,343.886262 80.0610145,344.016356 80.7233156,343.724629 C80.8660871,344.067606 81.0762785,344.367218 81.4173438,344.576159 C82.2620752,344.627408 83.1068066,344.6826 83.9555039,344.733849 C85.0064608,344.591928 86.0574178,344.434237 86.5769474,343.314633 C86.1407012,343.322517 85.7044549,343.287037 85.2761404,343.212134 C83.7770395,343.409247 82.6229698,342.42368 81.2904358,342.057049 C75.1829879,340.283028 69.6386944,337.294788 64.185616,334.121262 C64.6139305,333.652132 65.0382791,333.17906 65.4705595,332.702045 L65.4705595,332.702045 C68.5679081,332.698103 71.6652566,332.694161 74.766571,332.690218 L74.7626052,332.690218 L74.766571,332.690218 C77.2095502,332.627142 79.0616139,333.589056 79.5414848,336.060858 C80.0411851,338.646986 81.9130782,339.478805 84.0308555,340.014954 C85.4784,340.381585 86.9933643,340.484084 88.4884993,340.622063 C89.7774087,340.736389 91.1059769,340.637832 92.0498552,341.761379 C93.6203418,342.005799 94.5086979,342.896752 94.6395718,344.493371 C95.9721058,344.828464 97.5584559,344.493371 98.4864707,345.912588 C98.9941027,346.255565 99.5017348,346.602485 100.009367,346.949404 L100.628043,346.961231 L101.242754,346.894213 L101.238788,346.894213 C101.552092,347.170171 101.916953,347.304209 102.337336,347.296324 C102.432517,347.65507 102.5158,348.017759 102.595117,348.380448 C103.392258,348.502658 104.189399,348.620926 104.990506,348.743137 C105.097585,349.054576 105.176902,349.369957 105.228459,349.697166 C106.033531,349.827261 106.834638,349.957355 107.635745,350.08745 C107.639711,350.08745 107.639711,350.091393 107.639711,350.091393 C107.623847,350.450139 107.651608,350.804943 107.722994,351.159747 C108.785849,351.234651 109.76542,351.467244 110.372199,352.452812 C111.427122,352.535599 112.406693,352.772135 113.033301,353.734049 C114.088224,353.785298 115.099522,353.958758 115.817345,354.857595 C117.205402,355.058651 118.656912,355.102016 119.648381,356.332004 L121.484581,356.351715 C121.500445,356.422676 121.516308,356.493637 121.528206,356.564598 C122.781422,358.003526 124.681077,358.173044 126.267427,358.969382 C127.310452,360.191485 129.095096,359.237456 130.209507,360.254561 C131.220805,361.559452 133.084766,360.467444 134.151587,361.626471 L134.115894,361.602817 C134.944762,362.454347 136.166251,362.347906 137.145822,362.828863 L137.637591,362.820978 L138.073837,363.037803 C139.204112,364.106158 140.957028,363.132418 142.079371,364.232311 C143.134294,365.450472 144.954631,364.417597 146.029383,365.556913 L145.99369,365.525375 C147.068442,366.786901 148.892745,365.754026 150.023019,366.834208 L149.98336,366.794785 C150.340289,367.232377 150.792399,367.484682 151.363485,367.528047 C152.660326,367.685738 154.072178,367.200839 155.230213,368.170637 C156.737246,369.648988 159.009692,368.103619 160.536554,369.491297 L160.54052,369.467644 C161.409047,369.400625 162.273608,369.337549 163.142134,369.274472 C168.385021,370.058984 173.647738,369.254761 178.898557,369.447932 C181.317741,367.871025 184.066092,368.127272 186.754955,368.044485 C188.26992,366.625268 190.185438,366.826323 192.037501,366.75142 C193.580227,365.450472 195.464017,365.505663 197.324013,365.462298 C197.795952,365.09961 198.271857,364.736921 198.743796,364.374232 L198.743796,364.37029 C202.198074,364.429424 205.652351,364.484616 209.106628,364.54375 L209.106628,364.54375 C209.217673,364.8749 209.328717,365.202109 209.447693,365.529317 C213.750668,365.537202 218.053643,365.537202 222.360583,365.545086 C223.958831,364.267791 226.072642,365.525375 227.714515,364.468847 C228.166624,364.401828 228.614768,364.33481 229.070844,364.271733 C230.14163,363.065399 231.946104,364.141638 233.048617,363.01415 C233.377785,362.868286 233.71885,362.813094 234.079744,362.852517 C234.991896,362.300599 236.18959,362.442521 237.002594,361.658009 L237.010526,361.654067 C237.720418,360.881382 238.902249,361.102149 239.655765,360.412252 L239.516959,360.171774 C239.957172,360.215139 240.397384,360.262446 240.83363,360.309753 C241.305569,359.943122 241.777508,359.576491 242.253413,359.217745 C242.650001,359.095534 243.062452,359.024574 243.478869,359.00092 C243.962705,358.622462 244.438611,358.23612 244.906584,357.845835 C245.287308,357.735452 245.679929,357.68026 246.080483,357.676318 C246.647603,357.33334 247.087815,356.844499 247.56372,356.402965 L247.547857,356.414792 C247.674765,356.414792 247.801673,356.27287 247.932547,355.989027 C248.067386,355.697299 247.944444,355.405571 247.575618,355.105958 C246.74675,355.133554 245.917882,355.165092 245.089014,355.192688 C243.986501,356.513348 242.416014,357.021901 240.869323,357.514685 C239.885786,357.830066 238.926044,358.102083 238.243913,358.933901 L238.243913,358.937844 C235.963535,359.682932 233.702986,360.491098 231.394847,361.157341 C228.043682,362.119255 224.732177,363.376838 221.135128,363.029919 L221.135128,363.025976 C221.634828,360.672442 224.117466,359.746009 225.033583,357.692087 L225.128764,357.636895 C225.858485,357.55805 226.318527,357.132285 226.60407,356.485752 L226.60407,356.48181 C227.690719,355.764317 228.75754,354.995575 229.879883,354.329331 C231.267939,353.50934 232.917743,353.122997 234.246311,354.025777 C237.506261,356.233447 240.532223,354.739327 243.633538,353.828663 C243.796139,353.450206 243.95874,353.071748 244.12134,352.697232 L244.125306,352.697232 C244.743983,352.527715 245.366625,352.358197 245.985302,352.18868 C246.441377,351.774741 246.893487,351.356861 247.345597,350.942923 C247.845297,350.568407 248.348963,350.189949 248.85263,349.815434 C251.049724,347.87978 251.069554,347.883722 252.885925,349.823318 L256.522632,349.539475 L257.890859,348.317372 C258.295379,347.860068 258.695932,347.402765 259.104417,346.949404 C259.286847,345.920472 259.675503,345.029519 260.714562,344.572216 C261.067525,344.063664 261.424454,343.555111 261.781383,343.042616 C261.904325,342.518294 262.027267,341.99003 262.154175,341.461766 C262.201766,341.445997 262.257288,341.442055 262.304878,341.422344 C262.816476,341.142442 263.324108,340.870426 263.83174,340.578698 C264.577325,340.180529 265.426022,339.963704 266.00504,339.297461 L265.981245,339.317172 C268.455951,337.720553 271.513641,339.707457 273.976449,338.024108 L274.404764,337.807283 L274.872737,337.909782 C275.852308,337.432768 277.046037,337.52344 277.8987,336.731044 L277.906631,336.723159 C278.239765,336.388066 278.299253,336.009609 278.223901,335.615382 C278.231833,335.615382 278.239765,335.615382 278.243731,335.619324 C278.906032,335.43798 279.568333,335.256635 280.230634,335.079233 C280.385303,334.405105 280.793789,333.959629 281.467987,333.762515 C281.733701,332.776948 282.181845,331.92936 283.17728,331.483884 C283.268495,330.74668 283.704741,330.301203 284.398769,330.076494 C284.505848,329.382655 284.846913,328.866218 285.53301,328.613912 C286.115993,327.486423 286.702943,326.358935 287.285926,325.231446 L287.285926,325.231446 C287.678548,325.132889 288.07117,325.03039 288.459825,324.927891 C288.586733,324.17886 289.034877,323.749153 289.780462,323.615116 C291.148689,321.845037 292.604165,320.185342 294.80126,319.385061 C295.749104,318.099882 296.692982,316.814702 297.644792,315.529522 C298.287264,315.427023 298.683852,315.084046 298.739374,314.409918 C299.076473,314.216747 299.235108,313.932903 299.207347,313.546561 C299.818092,313.14445 300.135362,312.600417 300.06001,311.85927 L300.06001,311.85927 L300.06001,311.85927 C300.750073,310.53861 301.039582,308.839492 302.542648,308.200845 C304.541449,307.345372 305.402044,305.729042 306.219015,303.931368 C307.285835,301.577833 308.503359,299.291317 309.609838,296.957494 C310.946338,294.146657 311.366721,290.634095 315.487265,290.074293 C316.125771,289.991505 316.581847,288.812767 317.180694,288.197773 C318.525125,286.814037 319.913182,285.469723 321.285375,284.113583 C321.440044,283.407916 321.87629,282.978209 322.566352,282.777153 C322.732919,282.106968 322.903452,281.436782 323.070018,280.770539 C323.446777,280.699578 323.803705,280.569483 324.136839,280.380254 C324.513597,279.895355 324.890355,279.410456 325.263147,278.925557 C324.926048,277.632493 324.458075,276.268468 326.659136,276.315775 C327.115211,275.901837 327.571287,275.483956 328.027362,275.070018 C328.126509,274.380121 328.439814,273.84003 329.114012,273.556187 C329.637508,271.998991 330.625011,270.776887 331.894091,269.759782 C332.056692,268.541621 332.219293,267.32346 332.381893,266.101357 C333.492339,266.109241 334.527432,265.971262 335.102484,264.847715 C335.467344,264.441661 335.836171,264.03955 336.201031,263.641381 C336.585721,263.566478 336.962479,263.463979 337.32734,263.329942 C337.715996,262.8411 338.100686,262.352259 338.485375,261.863418 C338.850236,261.366692 339.219062,260.866024 339.583923,260.369298 C339.8655,259.411326 340.234326,258.512489 341.154409,257.972398 C341.166307,257.105099 341.174239,256.2378 341.186136,255.370501 L341.293215,255.465115 C341.265454,255.42175 341.229761,255.405981 341.198034,255.370501 C341.65411,255.38627 342.110185,255.402039 342.566261,255.417808 C342.578159,254.660893 343.006473,254.207532 343.664808,253.919746 C344.208133,252.244282 344.755424,250.57276 345.298749,248.901238 C345.59619,248.747489 345.91346,248.664702 346.246593,248.64499 L346.254525,248.78297 C347.872602,247.935382 346.567829,245.905114 347.848807,244.927431 L347.844841,244.927431 C348.606289,244.032536 348.58646,242.849855 349.006842,241.828808 C348.832344,241.497657 348.895798,241.221698 349.189273,241.000931 C349.217034,240.571224 349.240829,240.141517 349.264624,239.715752 C349.506543,236.703858 350.858906,233.861483 350.593192,230.774686 C351.517241,229.643255 351.564832,228.271345 351.687774,226.919147 C351.846409,226.548574 352.001078,226.174059 352.159713,225.807428 C352.215235,225.685217 352.306451,225.582718 352.369905,225.468392 C353.365339,229.887676 350.977882,233.928501 350.509909,238.190094 C350.509909,238.773549 350.561465,239.349121 350.684408,239.924692 C350.763725,240.200651 350.835111,240.468725 350.918394,240.740742 C351.207903,241.505542 351.545003,242.234861 351.921761,242.952354 C352.14385,243.4136 352.361973,243.878788 352.607857,244.328206 C352.901332,245.014161 353.123421,245.723769 353.341544,246.433378 C353.472418,246.914334 353.627087,247.387407 353.833313,247.84471 C354.134719,248.538549 354.440091,249.228446 354.753396,249.918343 C354.935826,250.391416 355.106358,250.872372 355.304652,251.33756 C355.721069,252.579375 355.828148,253.880323 356.101793,255.145792 C356.224735,255.666171 356.363541,256.194435 356.545971,256.699046 C356.978252,258.051244 357.144818,259.505941 358.080765,260.661026 C358.223536,260.751698 358.378206,260.775351 358.524943,260.826601 C358.501148,262.494181 358.477352,264.16176 358.457523,265.82934 C358.901701,265.845109 359.345879,265.860878 359.794023,265.876647 C360.59513,265.825398 361.400202,265.774148 362.201309,265.722899 C362.641521,265.305018 363.085699,264.887138 363.521946,264.469257 C363.5854,264.071088 363.660751,263.676861 363.759898,263.286577 C363.712308,263.290519 363.680581,263.290519 363.63299,263.294461 C363.65282,263.255039 363.668683,263.211674 363.688512,263.168309 C363.819386,263.290519 363.88284,263.471863 364.037509,263.578305 C364.338916,263.613785 364.640322,263.65715 364.941729,263.696573 C365.528679,263.519171 366.060106,263.247154 366.543943,262.876581 C366.762066,262.671583 366.988121,262.478412 367.202278,262.273414 C367.598865,261.831879 367.955794,261.366692 368.237371,260.846312 C368.463426,260.302279 368.590334,259.742477 368.610164,259.155079 C368.082702,256.549239 367.872511,253.986765 369.736472,251.751498 C369.982356,251.187754 370.168753,250.592471 370.263934,249.985362 C370.402739,248.999795 370.36308,248.01817 370.04581,247.060198 C369.383509,241.876115 369.193147,236.692032 370.188582,231.519775 C369.950629,231.188624 369.950629,230.857474 370.188582,230.526323 C370.70018,230.116327 370.878644,229.59989 370.731907,228.965185 L370.731907,228.965185 Z" id="Fill-7" fill="#00AEA9" mask="url(#mask-2)"></path>
            </g>
            <path d="M66.518,50.99 C66.51,50.998 66.498,50.998 66.486,51.006 C66.486,51.01 66.482,51.01 66.482,51.01 L66.518,50.99 Z" id="Fill-10" fill="#00AEA9"></path>
            <path d="M35.538,44.962 C35.538,44.962 35.538,44.962 35.534,44.962 C35.506,44.982 35.49,45.018 35.462,45.038 L35.538,44.962 Z" id="Fill-12" fill="#00AEA9"></path>
            <path d="M35.5790372,45.6717609 C36.0864604,45.2975586 36.5353347,44.8704798 36.8475952,44.3010414 L36.7812398,44.3742549 C37.3472119,44.0122548 37.807796,43.5445018 38.1356695,42.9343892 L38.0693141,43.0076027 C38.6469959,42.6700071 39.0880638,42.1859845 39.4588731,41.6206135 C40.3761381,40.9454223 41.3090162,40.9901639 42.2418942,41.6124787 L42.1833454,41.5921416 C42.5229286,42.1900519 42.9757062,42.6659397 43.5650978,42.9954005 L43.4831295,42.8855802 C45.3644986,44.6711763 46.3051831,43.1255578 47.2888035,41.7263663 L47.2927068,41.7263663 C47.7337746,41.2586134 48.2216816,40.8315346 48.5378453,40.2498939 L48.4519736,40.3271749 C49.3731419,39.6926578 49.1506564,38.407354 49.8376293,37.6426796 C50.6807325,36.8617355 50.4972795,35.6008362 51.1100906,34.7182067 C51.0047027,34.3521392 51.008606,33.9942065 51.1257036,33.6362738 C51.2584143,33.6362738 51.3716087,33.4776445 51.4730934,33.1685208 C51.5706748,32.8756668 51.4028348,32.6194195 50.9695734,32.399779 C50.6963455,31.9564305 50.3528591,31.8506777 49.9078879,32.2411497 C49.4785298,32.2492845 49.0452685,32.2614868 48.6120071,32.273689 C47.9484537,33.1075095 46.7930901,32.8105881 46.0553748,33.4735771 C45.7665339,33.697285 45.4503702,33.7867682 45.095174,33.7338918 C44.4472336,33.9535323 43.9437136,34.4009482 43.4440969,34.8564989 C43.1669658,35.0761394 42.8586086,35.1574878 42.5151221,35.0924091 C41.8320524,35.3039148 41.3285324,35.8001397 40.8093995,36.27196 L40.7586571,36.3044994 C40.1224265,37.178994 38.9046108,36.8983423 38.2254444,37.6874212 L38.2215411,37.6874212 C37.5306649,38.5009046 36.3167524,38.2487247 35.6336827,39.0662756 L35.6492958,39.0581407 C34.9467098,39.8472197 33.682055,39.5747027 33.0692439,40.5346131 L33.1512123,40.4491974 C32.581337,40.7989953 32.1402691,41.2830179 31.7655566,41.8443214 L31.8397184,41.7792428 C30.8053557,45.4602552 32.1558821,46.6520084 35.5790372,45.6717609" id="Fill-14" fill="#00AEA9"></path>
            <path d="M26.3321595,51.9633838 C26.8695639,51.4173381 27.3673237,50.838623 27.72853,50.1385644 C27.724125,49.6765257 27.821034,49.2331553 28.014852,48.8131201 C28.4289177,48.2437391 28.8209586,47.660357 29.2041896,47.0676407 C29.1909748,46.5916009 29.2834788,46.1435634 29.4817018,45.7188612 C29.6006355,44.3794158 29.1513302,43.7120266 27.7946043,44.1180606 L27.724125,44.2020676 C27.3320841,44.7574474 26.860754,45.2381543 26.3189446,45.6348542 L26.2088207,45.7468635 C25.8652343,46.3115775 25.4071191,46.7456138 24.8520948,47.0676407 L24.6010124,47.2963265 C24.3895746,47.8377052 24.0371783,48.229738 23.5217986,48.4537567 C23.1341627,48.7291131 22.711287,48.9017942 22.2443619,48.967133 C21.5483791,49.3264964 21.0285945,49.9098786 20.5,50.4839266 L20.5528595,50.4605913 C21.6452881,54.5862699 24.1428972,52.5934365 26.3321595,51.9633838" id="Fill-16" fill="#00AEA9"></path>
            <path d="M24.506,52.996 L24.502,52.996 C24.498,52.996 24.498,53 24.494,53.004 L24.506,52.996 Z" id="Fill-18" fill="#00AEA9"></path>
            <path d="M353.965092,312 C353.326411,312.017428 352.694866,312.03137 352.059753,312.048797 C350.789527,312.707564 351.185581,313.930986 351.014315,314.959219 C351.060699,315.105612 351.157037,315.210178 351.214125,315.342628 C350.989338,315.377483 350.764551,315.401882 350.550468,315.495992 L350.550468,315.499477 C350.147278,315.41931 349.744089,315.339143 349.340899,315.262461 C349.073295,315.457651 348.773579,315.541304 348.438182,315.509934 C347.828045,315.743465 347.671051,316.081562 347.917247,316.517253 C347.59969,316.552109 347.278566,316.573022 346.957441,316.562565 C346.44721,317.371209 345.665807,317.747647 344.738114,317.901011 C344.538303,318.493552 344.145817,318.876961 343.5,318.981527 C343.521408,319.682119 343.546385,320.382712 343.567793,321.083304 C344.003095,321.390031 344.438397,321.696758 344.873699,322 C345.558765,321.728128 346.240263,321.452771 346.921761,321.180899 C346.985985,320.504705 347.257157,319.999303 348.013584,319.880795 C349.219585,319.518299 350.425586,319.159289 351.631587,318.800279 C352.045481,318.437783 352.455807,318.075288 352.869701,317.712792 C352.894677,317.444406 352.930358,317.17602 352.969606,316.911119 C353.376364,316.942489 353.747441,316.85535 354.057862,316.510282 L354.025749,316.55908 C354.789312,315.97351 354.557389,314.868595 355.274567,314.262112 L355.274567,314.258627 C356.023858,312.850471 354.728655,312.571628 353.965092,312" id="Fill-20" fill="#00AEA9"></path>
            <path d="M371.516,298.016 C371.508,298.008 371.508,298 371.5,297.992 C371.496,297.988 371.492,297.992 371.484,297.984 L371.516,298.016 Z" id="Fill-22" fill="#00AEA9"></path>
            <path d="M373.744047,294.091225 C373.392047,294.216549 373.028047,294.277421 372.652047,294.266679 C371.332047,295.369532 371.544047,296.540419 372.464047,297.732789 C372.880047,298.083697 373.296047,298.101601 373.700047,297.711305 L373.672047,297.750693 C374.204047,297.346074 374.696047,296.916391 374.984047,296.329158 C374.968047,295.992573 375.036047,295.673891 375.200047,295.365952 C375.488047,294.238033 375.020047,293.790447 373.744047,294.091225" id="Fill-24" fill="#00AEA9"></path>
            <path d="M37.963913,63.6842575 C37.507913,63.6922575 37.051913,63.7002575 36.595913,63.7122575 C35.239913,64.5882575 35.187913,65.4762575 36.559913,66.3842575 L36.563913,66.4122575 C37.283913,65.6082575 38.511913,65.8842575 39.259913,65.1482575 L39.299913,65.1082575 C39.707913,63.8402575 39.255913,63.3642575 37.963913,63.6842575" id="Fill-26" fill="#00AEA9"></path>
            <path d="M31.528,66.98 C31.512,66.992 31.5,66.992 31.484,67.004 C31.48,67.004 31.476,67.02 31.472,67.02 L31.528,66.98 Z" id="Fill-28" fill="#00AEA9"></path>
            <path d="M27.5,66.7929986 C27.5530633,67.1169986 27.5530633,67.4409986 27.5,67.7609986 C28.6863431,69.0009986 29.9257494,68.8529986 31.1841069,67.9169986 C31.2750725,67.9089986 31.3698283,67.7809986 31.4645841,67.5089986 C31.55934,67.2249986 31.4645841,66.9449986 31.1727362,66.6609986 L31.2144287,66.6929986 C30.7899226,66.1969986 30.3464653,65.7169986 29.8006717,65.3569986 C29.4898725,65.4009986 29.1790734,65.3969986 28.8682743,65.3449986 C28.3224806,65.7289986 27.9017647,66.2569986 27.5,66.7929986" id="Fill-30" fill="#00AEA9"></path>
            <path d="M358.69805,281.575117 C358.28205,281.455765 357.85005,281.412364 357.41005,281.434064 L357.38605,281.40513 C357.40205,280.602215 357.41405,279.802916 357.43005,279 C356.19805,279.52081 356.21405,280.453928 356.43405,281.455765 L356.43405,281.455765 C356.29005,283.408803 356.12205,285.358224 356.05005,287.311262 C356.04205,287.54635 356.51805,287.965892 356.81005,287.994825 C357.17405,288.03461 357.65805,287.839306 357.95005,287.604218 C359.31405,286.519197 358.95805,285.14122 358.64605,283.784943 C358.75005,283.369019 358.85005,282.949477 358.95005,282.533552 C358.76605,282.23698 358.68205,281.918707 358.69805,281.575117" id="Fill-32" fill="#00AEA9"></path>
            <path d="M35.502,139.004 L35.502,138.996 L35.498,138.996 L35.498,139 C35.498,139.004 35.502,139.004 35.502,139.004" id="Fill-34" fill="#00AEA9"></path>
            <path d="M328.324258,301.971154 C325.820667,300.389739 324.850474,300.702929 323.74873,303.18138 C322.601765,305.737163 321.454799,308.296812 320.151617,310.77913 C319.08276,312.816796 317.364368,314.328613 314.770335,314.011556 C311.378772,313.597837 309.763154,315.241116 308.6203,317.897428 C308.03654,319.25845 307.107457,320.484143 306.33048,321.775567 C306.4127,322.162221 306.322258,322.51021 306.059155,322.815666 C305.426063,323.708837 305.458951,324.814667 304.986188,325.761969 C305.146516,326.086758 305.101295,326.376749 304.842303,326.635807 C304.727196,326.635807 304.62031,326.786602 304.525757,327.080459 C304.435316,327.366583 304.583311,327.629507 304.965633,327.873099 L304.945078,327.803502 C306.190707,328.190155 307.387004,327.954297 308.570968,327.544443 C309.035509,327.13459 309.49594,326.720871 309.95637,326.311017 C310.433245,325.905031 310.91423,325.499044 311.395216,325.089191 C311.863868,324.675471 312.32841,324.257885 312.801173,323.844166 C313.261603,323.418846 313.717923,322.993527 314.178353,322.568208 L315.53909,321.276784 C315.966633,320.820532 316.398286,320.372013 316.825829,319.919628 C317.245149,319.463377 317.656248,319.010992 318.075569,318.558606 C318.462001,317.692502 318.938876,316.892128 319.91318,316.486142 L319.995399,316.370145 C320.365388,315.898428 320.776487,315.457642 321.220473,315.047789 L321.224584,315.043922 C321.680904,314.62247 322.153667,314.216483 322.511323,313.709966 C323.08275,313.334912 323.580179,312.905726 323.859727,312.28708 L323.740508,312.379877 C325.101244,311.386176 325.611007,309.800895 326.692196,308.610001 C327.263623,308.126684 327.773386,307.600835 327.925492,306.850726 C327.884382,306.498871 328.011823,306.216614 328.316036,306.00782 C328.702469,305.447172 329.199898,304.944522 329.282118,304.236946 C329.142344,303.931489 329.216342,303.680164 329.5,303.486837 C329.113567,302.972587 328.846353,302.295943 328.324258,301.971154" id="Fill-36" fill="#00AEA9"></path>
            <path d="M334.610963,286 L334.397234,286.118592 C333.819376,286.707844 333.110906,287.226683 332.675534,287.897468 C330.593661,291.114268 329.465651,294.434836 331.800831,298 C331.757293,297.703521 331.856242,297.451513 332.081844,297.243978 C332.544922,296.743669 333.031748,296.26189 333.174233,295.576282 C333.087159,295.268684 333.166317,295.001853 333.399835,294.775788 C334.100389,294.001235 333.92624,292.900556 334.535762,292.096356 C334.480351,291.714639 334.571383,291.366275 334.812817,291.054972 C335.402549,290.358246 335.11362,289.279802 335.984365,288.705374 L336.016029,288.638666 C336.85511,287.148857 336.732414,286.103768 334.610963,286" id="Fill-38" fill="#00AEA9"></path>
            <path d="M378.343815,277 C377.997314,277.622534 377.555347,278.1106 377.148738,278.643489 C377.222988,280.545952 376.494627,282.049993 375.890017,283.613798 C375.766267,283.613798 375.649587,283.808028 375.536444,284.196489 C375.426836,284.57997 375.56473,284.94353 375.946589,285.292149 L375.967803,285.30709 C376.763343,286.203538 377.548276,286.273262 378.322601,285.262267 C378.347351,284.156647 378.375637,283.046047 378.400387,281.940427 C378.743353,281.362716 379.114605,280.819867 379.5,280.301919 C379.478786,278.947285 379.301999,277.702218 378.343815,277" id="Fill-40" fill="#00AEA9"></path>
            <path d="M364.504,263.996 C364.5,263.996 364.5,264 364.496,264.004 L364.496,264.004 L364.504,263.996 Z" id="Fill-42" fill="#00AEA9"></path>
            <path d="M364.836509,260.799963 C364.143571,260.035645 364.317843,258.887209 363.533619,258.166006 L363.529469,258.166006 C362.687155,257.491838 362.998355,256.182699 361.948574,255.626118 L362.064755,255.728027 C361.753555,255.136171 361.259785,254.697178 360.699625,254.320898 C360.326185,253.779996 359.807518,253.380199 359.276404,253 L359.284702,253.062713 C357.703806,253.125427 356.741161,253.764318 356.724564,255.390944 C356.662324,261.630914 356.591785,267.874805 356.5005,274.110856 C356.479753,275.498387 357.106303,276.59195 358.060649,277.571844 C358.504628,277.607121 358.948606,277.638477 359.392585,277.673754 C359.869758,278.148023 360.309587,278.093149 360.716222,277.587523 L360.649833,277.595362 C360.678878,275.463111 360.707923,273.330859 360.741118,271.202528 C360.47971,270.935996 360.438217,270.642028 360.616638,270.324542 C360.185107,268.886056 359.42163,267.435812 360.815806,266.071798 L360.865598,266.009085 C361.496296,265.138938 362.882174,265.456424 363.475528,264.531403 L363.40084,264.609795 C363.998344,264.296228 364.429875,263.810201 364.902899,263.363368 C365.69957,262.489302 365.720317,261.634834 364.836509,260.799963" id="Fill-44" fill="#00AEA9"></path>
            <path d="M10.4587861,65 C9.63825403,65.0093313 8.81772199,65.0233281 7.99718996,65.037325 C7.4838891,65.9004666 6.78325215,66.2597201 5.93649307,66.2970451 C4.13057325,66.3763608 2.32465343,66.4836703 0.52248033,66.5769829 C0.514986886,67.6034215 0.507493443,68.6205288 0.5,69.6469673 C1.2980517,70.0948678 2.09985013,70.5474339 2.89790184,71 C3.59853878,69.8755832 4.57643312,69.8195956 5.61052829,69.8335925 C6.81697265,69.8522551 8.03091045,69.7402799 9.23735481,69.6796267 C9.65698764,69.1617418 10.0766205,68.6438569 10.5,68.125972 C10.4850131,67.0855365 10.4737729,66.0404355 10.4587861,65" id="Fill-46" fill="#00AEA9"></path>
            <path d="M78.502,194.002 L78.502,193.998 L78.498,193.998 C78.498,194.002 78.498,194.002 78.502,194.002" id="Fill-48" fill="#00AEA9"></path>
            <polygon id="Fill-50" fill="#00AEA9" points="296.502 97.002 296.502 97.002 296.498 96.998 296.498 97.002"></polygon>
            <path d="M318.896,307.02 C318.768,306.896 318.648,306.684 318.516,306.676 C318.384,306.668 318.24,306.868 318.104,306.976 C318.224,307.1 318.344,307.312 318.476,307.324 C318.608,307.332 318.752,307.132 318.896,307.02" id="Fill-52" fill="#00AEA9"></path>
            <path d="M291.904247,260.421719 C291.620247,260.585719 291.336247,261.145719 291.412247,261.449719 C291.684247,262.585719 292.584247,263.197719 293.600247,263.657719 C293.516247,262.597719 293.804247,261.441719 292.996247,260.565719 C292.796247,260.345719 292.164247,260.269719 291.904247,260.421719" id="Fill-54" fill="#00AEA9"></path>
            <polygon id="Fill-56" fill="#00AEA9" points="292.498 264 292.498 264 292.502 264"></polygon>
            <path d="M274.494,216.998 C274.498,216.998 274.498,217.002 274.502,217.002 L274.506,217.002 L274.506,216.998 L274.494,216.998 Z" id="Fill-58" fill="#00AEA9"></path>
        </g>
    </g>
</svg>