<?xml version="1.0" encoding="UTF-8"?>
<svg width="500px" height="500px" viewBox="0 0 500 500" version="1.1" xmlns="http://www.w3.org/2000/svg" xmlns:xlink="http://www.w3.org/1999/xlink">
    <!-- Generator: Sketch 55.2 (78181) - https://sketchapp.com -->
    <title>Illustration - Header - Graphic 1</title>
    <desc>Created with Sketch.</desc>
    <g id="Illustration---Header---Graphic-1" stroke="none" stroke-width="1" fill="none" fill-rule="evenodd">
        <g id="1" transform="translate(10.000000, 92.000000)">
            <g id="ðŸ˜Human/Standing">
                <g id="Head/Front" transform="translate(11.000000, 0.000000)">
                    <g id="Head" transform="translate(104.661765, 32.230769)" fill="#EEBE9F">
                        <path d="M6.98648159,29.1839534 C3.0900875,24.6073181 0.45292648,18.9985883 0.893597635,12.7138456 C2.16329394,-5.39424818 27.3535369,-1.41069826 32.2535607,7.72871247 C37.1535845,16.8681232 36.5713343,40.0509965 30.2384901,41.6844641 C27.7129606,42.3358887 22.3328319,40.7401593 16.857116,37.4374897 L20.2941176,61.7692308 L0,61.7692308 L6.98648159,29.1839534 Z"></path>
                    </g>
                    <path d="M125.348193,29.4259865 C122.673487,28.9870705 115.471723,28.6853035 114.143589,28.6854983 C113.294849,28.6854983 112.375073,28.8795331 111.872389,28.0996925 C111.460732,27.4610921 111.611537,26.3810431 111.48868,25.6399705 C111.346027,24.7790873 111.1434,23.9293084 110.938445,23.0816726 C110.355215,20.66968 109.473286,18.3749654 108.239284,16.220517 C105.923832,12.1785154 102.531783,9.01239763 98.2494584,7.17004128 C93.520541,5.13579311 88.1693823,4.66999275 83.0827635,5.08260888 C77.6394137,5.52405748 72.7119458,7.32219104 67.5725355,9.01434577 C62.6749569,10.6268216 57.5452509,11.2615257 52.4229202,10.4740873 C47.2619663,9.68080459 43.3623805,6.88171651 39.0092145,4.22503749 C34.5527945,1.50523872 29.459965,-0.273608254 24.1916812,0.13530641 C19.2739176,0.517141922 14.7414158,2.54905233 10.6749156,5.2633963 C6.87023805,7.80299209 3.73088903,10.8584554 1.95849118,15.1587805 C0.0517854685,19.7846398 0.053532247,24.8622729 3.18899954,28.9504454 C7.73372886,34.8762988 16.1708628,36.408706 23.1901949,36.2563614 C27.2502902,36.1685003 31.2377972,35.4268433 35.0710055,34.0777561 C40.1830496,32.2784536 44.6006523,29.2288347 49.3831376,26.7545016 C51.6275538,25.5934099 53.9474696,24.6397952 56.3791793,23.9528809 C58.7388829,23.2860325 61.0630686,22.9801744 63.1995727,24.4066028 C65.4597099,25.9156324 67.4850025,27.3979724 70.0706228,28.3426256 C72.5510481,29.2489005 75.178397,29.7558067 77.8210787,29.7353512 C82.962818,29.6956091 88.0313868,28.0924844 93.0252323,27.0186694 C97.0975551,26.1431751 101.454797,25.2706031 105.606501,26.1121997 C107.338917,26.4634494 109.869417,27.1885473 110.495152,28.9901875 C99.9638244,30.9001443 95.8276568,43.9332034 98.7965979,53.5007155 C100.398976,58.6646512 110.031091,64.7012374 113.776184,61.9864785 C116.148808,60.2666005 114.708381,58.0087124 113.776184,56.5181902 C111.990976,53.6637749 111.380186,49.9971799 114.683538,48.0098819 C117.532922,46.295908 120.528853,50.3661412 120.585526,50.3616604 C121.368665,50.2999044 128.135666,46.4703079 132.798007,40.8819553 C137.397424,41.1547863 138.095222,38.1200208 136.996971,35.6381529 C135.898721,33.1562851 129.043794,30.0328322 125.348193,29.4259865 Z" id="hair" fill="#E5A600"></path>
                </g>
                <g id="Bottom/Skinny-Jeans-1" transform="translate(0.000000, 165.000000)">
                    <polygon id="Leg" fill="#E6B393" points="111.066667 0 173.97943 105.514906 221.145902 194.718865 231.305141 194.718865 152.277056 4.32362735e-13"></polygon>
                    <g id="Right-Shoe" transform="translate(213.000000, 185.000000)" fill="#E4E4E4">
                        <path d="M2.16813617,5.90054643 C1.29101807,8.2847734 0.852459016,10.081198 0.852459016,11.2898202 C0.852459016,12.8226135 1.10854981,15.0593401 1.62073141,18 C3.40402329,18 19.4307677,18 49.7009648,18 C50.9503996,13.8813312 50.2291533,11.6577944 47.537226,11.3293897 C44.8452987,11.000985 42.609069,10.7044618 40.8285368,10.4398202 L18.6184199,0.567001051 C18.1137497,0.342665546 17.5227738,0.569921732 17.2984383,1.07459195 C17.2948839,1.08258815 17.2914345,1.09063066 17.2880912,1.0987174 L15.9096243,4.43289079 C13.4176037,5.59225433 11.3925782,6.17193611 9.83454786,6.17193611 C8.62026453,6.17193611 6.96218038,5.70286556 4.86029541,4.76472446 L4.86029086,4.76473466 C3.85163644,4.31453868 2.66900453,4.7672587 2.21880855,5.77591312 C2.20052478,5.81687751 2.18362443,5.85844546 2.16813617,5.90054643 Z" id="shoe"></path>
                    </g>
                    <path d="M208.046455,180.43463 L227.638369,174.489023 C219.054617,148.746232 208.534011,120.417235 196.07655,89.5020315 C183.619089,58.5868278 170.240239,28.7528173 155.94,0 L100.605315,0 C116.504106,36.3709936 133.358956,69.41871 151.169865,99.1431493 C168.980774,128.867589 187.939637,155.964749 208.046455,180.43463 Z" id="Pant" fill="#518A18"></path>
                    <path d="M106.932078,0 C100.994295,37.0786625 89.5419371,84.450946 88.4611433,85.9128688 C87.7406141,86.8874839 61.8013781,95.6072235 10.6434354,112.072087 L12.8379538,121.059295 C73.8436805,112.229082 105.988496,105.378239 109.2724,100.506767 C114.198255,93.1995594 138.793718,35.4724553 148.32,0 L106.932078,0 Z" id="Leg" fill="#E6B393"></path>
                    <path d="M28.6263166,104.303334 L32.4917217,118.777881 C78.1204508,122.792594 106.078181,119.891712 116.364912,110.075235 C126.651643,100.258758 138.37548,63.5670131 151.536423,0 L98.7714968,0 C90.4330332,52.0528304 85.7712894,79.1718057 84.7862653,81.3569259 C83.8012412,83.5420461 65.0812583,91.1908488 28.6263166,104.303334 Z" id="Pant" fill="#5D8F2B"></path>
                    <g id="Left-Shoe" transform="translate(14.034714, 131.896782) rotate(80.000000) translate(-14.034714, -131.896782) translate(-11.465286, 122.896782)" fill="#E4E4E4">
                        <path d="M2.16813617,5.90054643 C1.29101807,8.2847734 0.852459016,10.081198 0.852459016,11.2898202 C0.852459016,12.8226135 1.10854981,15.0593401 1.62073141,18 C3.40402329,18 19.4307677,18 49.7009648,18 C50.9503996,13.8813312 50.2291533,11.6577944 47.537226,11.3293897 C44.8452987,11.000985 42.609069,10.7044618 40.8285368,10.4398202 L18.6184199,0.567001051 C18.1137497,0.342665546 17.5227738,0.569921732 17.2984383,1.07459195 C17.2948839,1.08258815 17.2914345,1.09063066 17.2880912,1.0987174 L15.9096243,4.43289079 C13.4176037,5.59225433 11.3925782,6.17193611 9.83454786,6.17193611 C8.62026453,6.17193611 6.96218038,5.70286556 4.86029541,4.76472446 L4.86029086,4.76473466 C3.85163644,4.31453868 2.66900453,4.7672587 2.21880855,5.77591312 C2.20052478,5.81687751 2.18362443,5.85844546 2.16813617,5.90054643 Z" id="shoe"></path>
                    </g>
                </g>
                <g id="Body/Long-Sleeve-1" transform="translate(85.000000, 76.000000)">
                    <path d="M69.4705256,36.3066149 L98.892489,20.1426827 C103.785181,14.3146954 108.605846,9.78844664 113.354483,6.56393653 C114.805514,5.95628891 117.342999,5.58849715 114.969968,9.81336691 C112.596938,14.0382367 110.29029,18.5892184 111.499255,19.8908093 C112.708221,21.1924002 115.722886,19.3741351 117.165164,21.5367395 C118.126682,22.9784758 112.976366,25.2560132 101.714216,28.3693517 L80.3355739,48.0040915 L69.4705256,36.3066149 Z M115.550781,49.9445696 L128.474592,42.8230419 C130.287985,35.9016139 132.455676,32.4192094 134.977665,32.3758285 C136.915076,31.4715934 133.541088,40.2174641 137.213807,39.4590237 C140.886527,38.7005834 149.850586,32.0131525 151.395139,33.3709536 C153.680204,35.3797329 151.642699,41.5478495 149.242035,44.6161572 C144.755196,50.3508205 141.040287,52.3119023 131.858312,54.8799507 C127.057502,56.222659 121.866977,58.9140022 116.286737,62.9539802 L115.550781,49.9445696 Z" id="Skin" fill="#E6B393"></path>
                    <path d="M56.0962131,29.5570227 C66.2918843,31.061293 80.2066097,31.0546707 96.1498096,24.1271371 L99.8223491,37.7508811 C88.257483,46.1132444 72.9167839,52.0591813 60.6894941,49.7679045 C51.0537159,47.9622521 47.9669584,35.4351523 56.0962131,29.5570227 Z" id="Sleeve" fill="#6E2F84" transform="translate(75.623852, 37.194996) rotate(-9.000000) translate(-75.623852, -37.194996) "></path>
                    <path d="M69.0180703,53.3638302 C79.9585917,56.1007308 98.3051692,52.8731687 124.057803,43.6811439 C130.44552,56.9368957 133.398402,66.3872301 132.916448,72.0321471 C110.824482,83.6076836 91.8897601,88.7686239 76.2900789,89.1093246 C76.7858157,98.394106 75.6591611,107.22879 71.8743884,115.30133 C64.0935377,131.897102 18.5323342,116.527566 3.21326134,119.552666 C-6.37999249,88.3013899 12.1688541,75.6009974 12.1837787,55.6046091 C12.2001228,33.7064331 29.7293242,-1.27897692e-13 32.308395,-1.27897692e-13 L55.8281004,-1.27897692e-13 C57.1258203,16.7239255 63.6576051,35.1551404 69.0180703,53.3638302 Z" id="Clothes" fill="#7D3994"></path>
                </g>
            </g>
            <g id="ðŸ˜Human/Standing" transform="translate(358.000000, 197.000000) scale(-1, 1) translate(-358.000000, -197.000000) translate(245.000000, 26.000000)">
                <g id="Head/Front" transform="translate(91.000000, 0.000000)">
                    <g id="Head" transform="translate(3.661765, 6.230769)" fill="#E6B393">
                        <path d="M6.98648159,29.1839534 C3.0900875,24.6073181 0.45292648,18.9985883 0.893597635,12.7138456 C2.16329394,-5.39424818 27.3535369,-1.41069826 32.2535607,7.72871247 C37.1535845,16.8681232 36.5713343,40.0509965 30.2384901,41.6844641 C27.7129606,42.3358887 22.3328319,40.7401593 16.857116,37.4374897 L20.2941176,61.7692308 L0,61.7692308 L6.98648159,29.1839534 Z"></path>
                    </g>
                    <path d="M9.08886699,39.4909785 C6.54175546,28.1516189 -0.714549545,20.4219575 0.39366229,15.3537487 C1.13247018,11.9749428 3.10161469,9.87378209 6.30109581,9.05026646 C7.95583716,2.35157764 13.2927175,-0.4976358 22.3117369,0.502626129 C35.8402659,2.00301902 44.097327,7.6250266 40.5315104,19.9958967 C37.2536864,19.9958967 33.2966523,18.809681 27.8248967,20.8420505 C26.0887306,21.4869132 24.8469738,23.4866888 24.0996262,26.8413774 L21.6269614,26.8413774 C19.2271361,22.8602792 16.8608929,21.3973342 14.528232,22.4525425 C12.195571,23.5077508 11.6653192,26.0708561 12.9374767,30.1418582 L11.7194393,39.4909785 L9.08886699,39.4909785 Z" id="Hair" fill="#152C2C"></path>
                </g>
                <g id="Bottom/Skinny-Jeans-1" transform="translate(0.000000, 115.000000)">
                    <path d="M155.864931,15.9280818 C139.618045,29.1679481 145.617476,145.028298 144.532177,146.488718 C144.049822,147.137794 118.325571,152.693251 67.3594242,163.155089 L69.5451971,172.119791 C129.148819,169.075789 160.690755,165.341692 164.171005,160.917498 C169.153726,154.583319 175.353446,119.190912 182.770166,54.7402764 L155.864931,15.9280818 Z" id="Leg" fill="#E6B393" transform="translate(125.064795, 94.023936) rotate(-55.000000) translate(-125.064795, -94.023936) "></path>
                    <path d="M75.9264155,153.708372 L79.7784451,168.146175 C124.197426,173.17534 153.494469,166.823967 163.817951,157.013028 C170.700272,150.472402 176.915677,115.176135 182.464165,51.124229 L153.681434,10.0182286 C115.010307,39.1862607 137.892014,134.446077 136.901607,136.628006 C135.9112,138.809934 112.479156,140.569178 75.9264155,153.708372 Z" id="Pant" fill="#244645" transform="translate(129.195290, 89.964193) rotate(-55.000000) translate(-129.195290, -89.964193) "></path>
                    <g id="Right-Show" transform="translate(165.793993, 190.346531) rotate(20.000000) translate(-165.793993, -190.346531) translate(140.293993, 181.346531)" fill="#E4E4E4">
                        <path d="M2.16813617,5.90054643 C1.29101807,8.2847734 0.852459016,10.081198 0.852459016,11.2898202 C0.852459016,12.8226135 1.10854981,15.0593401 1.62073141,18 C3.40402329,18 19.4307677,18 49.7009648,18 C50.9503996,13.8813312 50.2291533,11.6577944 47.537226,11.3293897 C44.8452987,11.000985 42.609069,10.7044618 40.8285368,10.4398202 L18.6184199,0.567001051 C18.1137497,0.342665546 17.5227738,0.569921732 17.2984383,1.07459195 C17.2948839,1.08258815 17.2914345,1.09063066 17.2880912,1.0987174 L15.9096243,4.43289079 C13.4176037,5.59225433 11.3925782,6.17193611 9.83454786,6.17193611 C8.62026453,6.17193611 6.96218038,5.70286556 4.86029541,4.76472446 L4.86029086,4.76473466 C3.85163644,4.31453868 2.66900453,4.7672587 2.21880855,5.77591312 C2.20052478,5.81687751 2.18362443,5.85844546 2.16813617,5.90054643 Z" id="shoe"></path>
                    </g>
                    <polygon id="Leg" fill="#E6B393" points="90.0666667 24 46.2550852 129.514906 3.19511967 218.718865 13.3543592 218.718865 124.503722 24"></polygon>
                    <g id="Left-Shot" transform="translate(0.000000, 209.000000)" fill="#E4E4E4">
                        <path d="M2.16813617,5.90054643 C1.29101807,8.2847734 0.852459016,10.081198 0.852459016,11.2898202 C0.852459016,12.8226135 1.10854981,15.0593401 1.62073141,18 C3.40402329,18 19.4307677,18 49.7009648,18 C50.9503996,13.8813312 50.2291533,11.6577944 47.537226,11.3293897 C44.8452987,11.000985 42.609069,10.7044618 40.8285368,10.4398202 L18.6184199,0.567001051 C18.1137497,0.342665546 17.5227738,0.569921732 17.2984383,1.07459195 C17.2948839,1.08258815 17.2914345,1.09063066 17.2880912,1.0987174 L15.9096243,4.43289079 C13.4176037,5.59225433 11.3925782,6.17193611 9.83454786,6.17193611 C8.62026453,6.17193611 6.96218038,5.70286556 4.86029541,4.76472446 L4.86029086,4.76473466 C3.85163644,4.31453868 2.66900453,4.7672587 2.21880855,5.77591312 C2.20052478,5.81687751 2.18362443,5.85844546 2.16813617,5.90054643 Z" id="shoe"></path>
                    </g>
                    <path d="M7.083638,200.187768 L29.6575807,204.43463 C47.1116899,178.691839 120.157849,73.1377545 128.166667,24 L77.9119819,24 C51.1664655,59.5216212 23.7210087,174.019142 7.083638,200.187768 Z" id="Pant" fill="#295150"></path>
                </g>
                <g id="Body/Long-Sleeve-1" transform="translate(0.000000, 50.000000)">
                    <path d="M166.835937,65.9952777 L197.550395,52.4650463 C202.930851,47.086976 208.126449,42.9993938 213.137188,40.2022999 C214.635494,39.7238197 217.195281,39.5792652 214.464189,43.5805977 C211.733097,47.5819302 209.039801,51.9139371 210.131073,53.316268 C211.222346,54.7185989 214.383524,53.1708075 215.632409,55.4512725 C216.464999,56.9715826 211.136391,58.7901909 199.646585,60.9070976 L176.64327,78.5981102 L166.835937,65.9952777 Z M42.6613179,69.7219251 L60.03125,73.1789802 C42.5628198,105.833681 33.1948145,123.140691 31.9272341,125.100011 C29.075178,129.508481 31.736204,137.587919 32.7191759,141.842607 C26.5525615,143.282484 28.9844848,133.972384 21.1807535,135.916248 C14.0578695,137.690517 8.01852269,142.243924 1.37672505,136.102928 C0.56015506,135.347929 -0.0376127825,132.988015 2.74648796,131.777626 C9.68269821,128.762107 19.9303647,123.115607 21.5920246,120.923408 C23.8579949,117.933953 30.8810926,100.866792 42.6613179,69.7219251 Z" id="Skin" fill="#E6B393"></path>
                    <path d="M103.487781,8.38660156 L110.679766,6.49147779 C127.937913,20.5753969 137.680887,57.186766 148.710474,61.1807559 C159.138502,64.9569117 172.950028,59.2115725 189.303558,51.6547144 L195.488534,62.7914738 C181.60312,80.7829775 150.149346,97.7085364 136.198436,90.837581 C113.893831,79.8523514 104.992192,34.4251765 103.487781,8.38660156 Z" id="Coat-Back" fill="#2F9DCB" transform="translate(149.488157, 49.446812) rotate(5.000000) translate(-149.488157, -49.446812) "></path>
                    <path d="M75.2890625,96.9304813 C104.678793,96.9304813 126.297263,96.9304813 140.144472,96.9304813 C143.108033,96.9304813 142.549607,92.638023 142.121206,90.472025 C137.176944,65.4737906 117.876418,38.5269035 117.876418,2.94254608 L99.1690649,0 C83.6956806,24.9624956 78.344716,55.696382 75.2890625,96.9304813 Z" id="Shirt" fill="#DDE3E9"></path>
                    <path d="M68.8203896,71.6207164 C55.5991785,95.5427022 44.4860351,112.765387 35.4809594,123.28877 L21.8867188,120.617927 C30.6435102,66.142871 56.0020097,25.9368953 97.9622172,-9.9475983e-14 L101.338779,-9.9475983e-14 L105.36933,0 C122.16354,57.4244636 126.793407,95.6864957 119.258929,114.786096 L60.8789062,114.786096 C61.8025364,100.810634 64.7640507,86.031073 68.8203909,71.6207135 Z" id="Coat-Front" fill="#3BA9D7"></path>
                </g>
            </g>
        </g>
    </g>
</svg>