<?xml version="1.0" encoding="UTF-8"?>
<svg width="200px" height="200px" viewBox="0 0 200 200" version="1.1" xmlns="http://www.w3.org/2000/svg" xmlns:xlink="http://www.w3.org/1999/xlink">
    <!-- Generator: Sketch 55.2 (78181) - https://sketchapp.com -->
    <title>Illustration - Footer</title>
    <desc>Created with Sketch.</desc>
    <g id="Illustration---Footer" stroke="none" stroke-width="1" fill="none" fill-rule="evenodd">
        <g id="Group-9" transform="translate(-12.000000, -16.000000)">
            <path d="M69.5519712,182.86769 C66.5777054,181.004189 63.8516854,178.755778 61.1912397,176.410717 C60.9976392,176.237762 60.821213,176.025808 60.5464252,176.003765 C60.5354961,176.01733 60.5230058,176.022417 60.5105154,176.035982 C60.5433026,175.879984 60.444941,175.786724 60.3512634,175.708725 C59.8141781,175.259382 59.3005123,174.777822 58.7837238,174.297957 C58.4855166,174.023265 58.1186124,173.875744 57.7548308,173.955439 C56.997603,174.125003 56.6619247,173.643443 56.3481046,173.041493 C56.0217941,172.420891 55.7470062,171.742637 55.1771338,171.332294 C54.5807193,170.904994 54.2372346,170.316609 53.9686919,169.614617 C53.1427672,167.454379 51.6048922,166.069047 49.6907453,165.119492 C49.6720098,165.119492 49.651713,165.124579 49.6314161,165.124579 C49.3831703,164.795626 49.0084597,164.588758 48.8570141,164.166546 C48.8663819,164.166546 48.8663819,164.158067 48.8741884,164.158067 C49.0677889,163.68329 48.7414783,163.36112 48.5681747,163.005037 C48.1200832,162.086003 47.8343663,161.177143 48.5135294,160.237762 C48.5150907,160.229284 48.5104068,160.222502 48.5104068,160.214023 C48.9272724,160.741365 49.4346931,161.121187 50.0576495,161.311098 C50.4292376,161.845223 50.9522712,162.11822 51.5205823,162.314914 C52.4698493,163.116948 53.3067031,164.042764 54.1185762,165.00758 C55.0069527,166.060569 55.9936908,167.008428 57.1599777,167.705333 C57.3754363,167.891853 57.5924562,168.074981 57.8079148,168.261501 C59.5284612,171.632421 62.502727,172.732887 65.711187,173.40775 C65.8267228,173.482357 65.9360134,173.572226 66.0577943,173.631573 C67.5300949,174.359 68.8431435,175.305164 69.811146,176.753235 C70.1124758,177.204273 70.5605673,177.480662 71.0289557,177.706181 C71.8782998,178.113133 72.7635537,178.119916 73.661298,177.979178 C74.3919837,177.862179 75.0367983,178.021569 75.612916,178.565867 C76.1890336,179.111861 76.8760031,179.466249 77.6051276,179.720594 C78.9837505,180.200458 80.4014058,180.183502 81.823745,180.132633 C81.9283517,180.188589 82.0282746,180.249632 82.1360039,180.297109 C85.4506319,181.785876 88.8964086,182.871081 92.2672431,184.185198 C93.1134647,184.515846 94.0080864,184.60741 94.902708,184.505672 C95.3820254,184.451412 95.851975,184.325935 96.3250472,184.232675 C96.5873447,184.463282 96.8480808,184.692192 97.108817,184.922798 C96.7200547,185.153404 96.3266085,185.382315 95.9768786,185.673964 C95.586555,185.996134 95.1962314,186.335261 95.0354181,186.872777 C94.8886564,186.762561 94.7091075,186.7473 94.5404877,186.709996 C93.4975431,186.482781 92.4093209,186.445477 91.4538088,185.848614 C90.8808137,185.492531 90.2578573,185.387402 89.6083588,185.356881 C88.3889879,185.300925 87.0462747,186.026656 86.5934993,187.791811 C86.6106736,187.822332 86.6278478,187.852853 86.6418995,187.883375 L86.6418995,187.88507 L86.6137962,187.856245 C85.992401,187.703638 85.456877,188.00546 84.9010562,188.214023 C84.7386816,187.876592 84.4217389,187.918983 84.1531962,187.907114 C83.0618515,187.863027 81.9814357,187.717203 80.9103878,187.510335 C76.8635128,186.723561 73.1007933,185.090666 69.5519712,182.86769 L69.5519712,182.86769 Z M114.835624,38.7433887 C115.929722,38.5050336 116.999774,38.1475009 117.996184,37.4781203 C118.319304,37.2596281 118.67699,37.0888069 118.851324,36.6160692 C118.96404,36.8822325 119.174444,36.9676431 119.366813,37.082848 C119.849238,37.3668879 120.36172,37.5218187 120.874203,37.672777 C121.233392,37.7800368 121.255935,37.9846249 121.010965,38.3163358 C120.567615,38.9221551 120.043109,39.3273588 119.416408,39.4902348 C118.955023,39.6094124 118.490633,39.6392068 118.018728,39.5994809 C116.171686,39.4485227 114.332159,39.1148255 112.473094,39.253866 C112.038761,39.287633 111.607434,39.349208 111.173102,39.3988653 C112.390436,39.1406473 113.61829,39.0075657 114.835624,38.7433887 L114.835624,38.7433887 Z M100.529452,41.8328819 C100.581452,41.8768819 100.603452,41.9228819 100.663452,41.9688819 C100.591452,41.9688819 100.521452,41.9788819 100.449452,41.9808819 C100.493452,41.9408819 100.519452,41.8888819 100.529452,41.8328819 L100.529452,41.8328819 Z M160.976607,148.99213 C160.826607,149.11013 160.676607,149.21213 160.526607,149.31213 C160.638607,149.14013 160.790607,149.04013 160.976607,148.99213 L160.976607,148.99213 Z M118.144507,168.269586 C118.142507,168.271586 118.138507,168.269586 118.134507,168.271586 C117.716507,168.475586 117.412507,168.395586 117.084507,168.087586 C117.432507,168.207586 117.778507,168.269586 118.144507,168.269586 L118.144507,168.269586 Z M138.093892,150.045518 C138.173892,150.455518 138.179892,150.861518 137.853892,151.237518 C137.951892,150.871518 138.043892,150.425518 138.093892,150.045518 L138.093892,150.045518 Z M74.2143618,152.639323 C74.1783618,152.575323 74.1023618,152.501323 74.0543618,152.433323 C74.1323618,152.483323 74.1863618,152.551323 74.2143618,152.639323 L74.2143618,152.639323 Z M44.9704671,156.517811 C43.9130592,155.858832 43.0572056,154.941204 42.3051375,153.916493 C41.5184741,152.848947 40.7919763,151.731979 40.0910487,150.593593 C39.984255,150.418964 39.8819738,150.232802 39.6759071,150.180084 C39.8774614,150.145488 39.9361227,149.863774 40.1331645,149.820941 C40.1331645,149.825883 40.1376769,149.829178 40.1376769,149.835768 C40.0489329,150.786344 40.6159923,151.321764 41.2161427,151.809409 C41.6192513,152.13725 41.7786897,152.07959 42.0870377,151.605125 C42.354774,151.708914 42.5473034,151.916493 42.7323122,152.15043 C43.0511891,152.552407 43.3956363,152.929672 43.7295546,153.316822 C44.3221843,154.522753 44.9644506,155.694087 45.6759071,156.820941 C45.4232122,156.768222 45.1930793,156.656196 44.9704671,156.517811 L44.9704671,156.517811 Z M199.477057,117.716719 L199.477057,117.718426 L199.477057,117.716719 C199.478583,117.095457 199.365685,116.498089 199.176504,115.916083 C198.981221,115.308475 198.979695,114.676972 198.952234,114.040349 C198.924772,113.4225 198.946131,112.937779 199.289402,112.335291 C199.89661,111.26515 199.644878,110.065295 199.063606,108.990033 C199.138363,107.954027 199.162773,106.928262 199.414505,105.90079 C199.933226,103.784402 200.249035,101.633879 199.747097,99.4304467 C199.518249,98.4234558 199.434339,97.3823296 199.350428,96.344617 C199.089542,93.1734489 198.903413,89.9954539 198.070409,86.9164511 C197.240456,83.8459822 196.764454,80.6645736 195.871949,77.6145859 C195.19151,75.2916797 194.126607,73.1343297 193.366834,70.8387318 C192.938127,69.5364706 192.845062,68.2802921 193.418706,67.0172866 C193.794016,66.1895059 193.688746,65.3668455 193.401924,64.552719 C193.186808,63.9382838 192.899986,63.3613975 192.582651,62.8032856 C191.058528,60.1253725 189.27657,57.6573913 187.580049,55.1228464 C187.165072,54.503291 186.686019,53.8905626 186.040669,53.5321421 C185.695873,53.3409845 185.312935,52.7572711 184.951356,53.1873757 C184.592829,53.6140668 185.018485,54.1141487 185.277845,54.4776895 C186.284773,55.8960106 186.704326,57.6061884 187.248983,59.2566294 C187.319163,59.4682682 187.346624,59.6730799 187.187957,59.8505834 C187.020136,60.0383275 186.837058,59.9512825 186.658557,59.8710646 C186.126106,59.6287041 185.648578,59.2907647 185.203088,58.8828481 C184.389917,58.1404056 183.727786,57.22558 182.940551,56.4575361 C182.833756,56.2151755 182.598806,56.124717 182.446241,55.9403865 C181.526275,54.8395235 180.545283,53.7915703 179.706176,52.6190232 C178.850287,51.4242882 177.905911,50.3234253 176.981368,49.2140285 C175.637271,47.6045498 174.006353,46.3261834 172.712603,44.6313665 C171.957406,43.6431499 170.919965,42.9297225 169.932871,42.209468 C169.800139,42.1104756 169.57892,41.9176113 169.415676,42.1138892 C169.231072,42.3340617 169.406522,42.5508208 169.546882,42.723204 C169.937448,43.2130453 170.323437,43.7045935 170.771977,44.1415251 C171.415801,44.7644941 172.148113,45.2970045 172.666833,46.0616349 C173.666133,47.5345725 174.856139,48.8095254 175.948503,50.1868841 C176.110222,50.3899891 176.294826,50.5623723 176.441288,50.7944922 C177.313959,52.1735577 177.988296,53.7335403 179.266789,54.7541853 C179.3507,54.8224559 179.391892,54.9607038 179.454444,55.0665232 C179.62074,56.1059426 180.208114,56.9098286 180.694796,57.761504 C181.225722,58.6916905 181.604083,59.6611326 181.672737,60.7773564 C181.724609,61.6290318 181.877174,62.4755869 182.270791,63.2146158 C183.512669,65.5494693 184.554687,68.0157437 186.002528,70.214056 C186.350376,70.743153 186.696698,71.2824905 186.806545,71.9532488 C187.142188,73.9842983 187.72346,75.9351299 188.329142,77.8791344 C188.893632,79.6831842 189.41693,81.5060084 190.516922,83.0250286 C190.497089,83.2059456 190.544384,83.3715018 190.620666,83.5285241 C190.620666,83.7794184 190.526076,84.021779 190.609987,84.2812071 C190.878501,85.0953337 191.235503,85.8514302 191.00513,86.8140453 C190.847988,87.4643225 191.093618,88.1896973 191.221772,88.8758165 C191.360606,89.6336199 191.633697,90.3726488 191.55894,91.1731212 C191.482658,91.4240156 191.52385,91.6697896 191.56962,91.920684 C191.751172,92.9106073 191.947981,93.8885832 191.906788,94.9211756 C191.882378,95.518543 191.992225,96.141512 192.256162,96.6979172 C192.338547,97.4249987 192.423983,98.1520803 192.500266,98.8791619 C192.527727,99.1402968 192.669613,99.4048453 192.506368,99.667687 C191.854916,99.7803334 191.244657,99.8588446 190.614564,99.3928979 C189.73579,98.740914 188.979069,99.0942142 188.640375,100.181423 C188.538156,100.509122 188.561041,100.847061 188.586977,101.188414 C188.646477,101.990593 188.792939,102.803013 188.72276,103.593245 C188.602233,104.96207 188.710554,106.296759 188.893632,107.643396 C189.050774,108.793756 189.244531,109.947528 189.044671,111.123489 C188.840234,112.321637 188.85244,113.552214 188.535105,114.748656 C188.292527,115.668602 188.425258,116.679006 188.304732,117.651862 C188.129282,119.054822 187.95841,120.461196 187.752447,121.855622 C187.474779,123.746717 187.171175,125.646346 186.397671,127.394072 C186.32444,127.561335 186.31376,127.762734 186.258837,127.943651 C186.005579,128.786792 186.055926,129.703325 185.767578,130.539639 C185.569244,130.84003 185.572295,131.212104 185.482282,131.55175 C185.074934,133.087838 184.797266,134.676836 183.846786,135.968856 C183.573695,136.339224 183.392143,136.80005 183.198386,137.233568 C182.406574,138.996656 181.723084,140.810946 181.155542,142.678146 C180.847361,143.693671 180.336269,144.640925 180.287448,145.748615 C180.140986,145.968788 179.98537,146.182134 179.851113,146.409133 C179.228648,147.457086 178.711453,148.588671 177.709102,149.296978 C177.297177,149.587128 177.039342,150.08721 177.045445,150.641909 C177.054599,151.582336 176.577071,152.171169 175.989696,152.701973 C175.275692,153.34713 174.381662,153.222536 173.852262,152.394755 C173.711902,152.177996 173.644774,151.904914 173.544081,151.655727 C173.753095,150.865495 173.962109,150.073556 174.171123,149.283324 C174.419803,148.738866 174.668484,148.196115 174.918691,147.651658 C175.577771,147.521943 175.824926,146.953591 176.030888,146.340863 C176.189556,145.866382 176.297877,145.359473 176.628943,144.985692 C177.542806,143.951393 177.878449,142.642304 178.053899,141.258119 C178.232399,141.094269 178.075258,140.778518 178.330041,140.618082 C179.309507,140.005354 179.944177,139.020551 180.173024,137.84459 C180.662758,135.347594 181.37371,132.930816 182.060252,130.50209 C182.849012,127.711531 183.448592,124.883422 183.06718,121.922186 C182.929872,120.858872 182.826128,119.787024 183.192283,118.778326 C183.447067,118.076846 183.463849,117.373659 183.486733,116.655112 C183.527926,115.427948 183.540131,114.199078 183.616414,112.975328 C183.653029,112.388201 183.843735,111.819849 183.802543,111.21224 C183.756773,110.514174 183.733888,109.812694 183.741517,109.11292 C183.776607,105.771076 183.384515,102.504329 182.405048,99.3399882 C182.286048,98.950846 182.188406,98.5548767 182.215868,98.1554938 C182.261637,97.4983896 182.116701,96.8924883 181.945828,96.2831734 C181.761225,95.6328963 181.587301,94.9774988 181.620865,94.2862592 C181.636122,93.9602673 181.579673,93.6564632 181.489659,93.3509524 C180.999926,91.7209926 180.94958,89.9749727 180.427808,88.3501331 C180.351525,88.1043591 180.392718,87.8022618 180.415603,87.5291795 C180.435436,87.2680446 180.43391,87.0120299 180.346948,86.7747897 C179.909087,85.578348 179.593278,84.3392371 179.24543,83.1086601 C178.847236,81.7005795 178.096617,80.4324537 177.480255,79.126779 C176.451967,76.9523614 175.110922,74.9725148 173.760723,73.0182697 C173.100117,72.0590682 172.396793,71.1254682 172.018432,69.968282 C171.818572,69.3589671 171.530225,68.8213364 171.162544,68.324668 C170.700272,67.7051126 170.160192,67.1248127 169.829127,66.4233326 C169.30888,65.3190561 168.550633,64.4810349 167.757296,63.6566677 C167.734411,63.3221419 167.563538,63.0951423 167.352999,62.8681426 C166.942599,62.4277975 166.431507,62.0915649 166.155365,61.5010245 C166.024159,61.0384913 165.731234,60.7039655 165.432207,60.37456 C165.195732,60.0690492 164.95773,59.7652452 164.721255,59.4614412 C164.297125,58.8623669 163.837904,58.311082 163.157465,58.0772553 C162.68604,57.891218 162.672309,57.3126249 162.403795,56.986633 C161.860664,56.3261152 161.189378,55.7970183 160.571491,55.2133049 C160.328912,54.9709444 160.086334,54.7285838 159.845282,54.4879301 C159.848333,54.3257875 159.762897,54.2148478 159.67746,54.1004946 C159.126701,53.3529319 158.537801,52.6446247 158.128927,51.7758817 C157.663604,50.7791313 156.945024,50.0981324 155.991493,49.7294713 L155.993019,49.7294713 C154.722154,48.7992848 153.425352,47.9185944 152.024807,47.2495428 C151.837152,47.1590843 151.623561,47.1078814 151.419124,47.1027611 C150.075028,47.0617988 148.939945,46.430296 147.838427,45.6315303 C147.261732,45.2116663 146.910833,44.5238403 146.253278,44.2012619 C143.943446,43.0679704 141.609203,42.0029495 139.229192,41.0676427 C138.39161,40.7399439 137.531145,40.4361399 136.913257,39.6510283 C137.320605,39.4735248 137.727953,39.3028484 138.13225,39.1151043 C138.82642,38.7942327 139.044588,37.8657529 138.586893,37.1984081 C138.318379,36.8058523 137.972057,36.5122888 137.612004,36.228966 C137.006321,35.7527787 136.409793,35.2424562 135.95515,34.5938858 C135.601199,34.0886836 135.1908,33.8343757 134.655297,33.665406 C133.48665,33.296745 132.408016,33.5800678 131.343114,34.0955106 C131.141728,34.194503 130.896099,34.3446982 131.025779,34.5990061 C131.329383,35.1946668 131.076125,35.815929 131.167664,36.4132965 L131.16919,36.4132965 C130.891522,36.619815 130.68861,36.380868 130.519263,36.2238457 C130.209557,35.9371093 129.876965,35.7322976 129.50013,35.6008767 C129.376553,35.3533959 129.137026,35.3124336 128.932589,35.215148 C128.552702,35.034231 128.142303,34.9301184 127.828019,34.6041264 C127.966853,34.3737132 128.308598,34.2218112 128.058392,33.8429095 C128.072123,33.7643984 128.087379,33.6841804 128.10111,33.6056693 C128.323855,33.5510528 128.645767,33.6483384 128.668652,33.2506623 C128.691536,32.8444524 128.357419,32.9144298 128.145354,32.8290915 C128.110264,32.8154374 128.073649,32.8137307 128.040084,32.8086104 C128.032456,32.2999946 127.914981,31.8767171 127.394735,31.7674842 C127.309299,31.6684918 127.214708,31.5933942 127.085028,31.5899807 C126.648693,31.2127858 126.110139,31.1598761 125.606675,30.9977335 C125.055916,30.4669298 124.282412,30.4532757 123.711819,30.0317049 C122.514185,29.147601 121.084652,28.5946094 120.259276,27.1472733 C120.213507,27.0653486 120.112814,27.0056119 120.028903,26.9680631 C119.400336,26.6966875 118.896872,26.1983124 118.318651,25.8381851 C117.972329,25.6231328 117.618378,25.3159152 117.249171,25.2732461 C116.32768,25.1674268 115.671651,24.5188563 114.92866,24.0426691 C114.737954,24.029015 114.548773,24.0153609 114.358067,24 C114.272631,24.035842 114.187195,24.093872 114.100233,24.1006991 C113.023125,24.1945711 111.944491,24.296977 110.865857,24.3601273 C110.585138,24.3771949 110.456984,24.5154428 110.273906,24.7304951 C109.576684,25.5480352 108.737578,26.2426882 107.697085,26.1300418 C106.150077,25.9661924 104.616801,25.7426063 103.057588,25.6692155 C101.339707,25.5907043 99.8354177,25.9849668 98.4882699,27.1745815 C97.8352923,27.7514679 97.8291897,28.756752 98.535565,29.2687813 C99.2236325,29.7688632 99.9574695,30.1119228 100.810307,30.1750731 C101.551772,30.2296896 102.276456,30.4993583 103.025549,30.581283 C103.402384,30.6222454 103.684629,31.0199214 104.078247,31.030162 C104.834968,31.0489364 105.445228,31.443199 106.060064,31.92792 C105.745781,32.311942 105.410138,32.6464678 104.973802,32.7403398 C104.183516,32.912723 103.503077,33.3923238 102.753984,33.687594 C101.383951,34.2269315 100.012393,34.6416752 98.5599754,34.7509081 C97.5576242,34.8260057 96.5522218,34.9267048 95.6047939,35.3568094 C95.2966129,35.4950573 94.9594446,35.6691473 95.0036884,36.1026654 C95.0677656,36.735875 94.7382255,37.0669872 94.3705442,37.423701 C93.8991187,37.8845273 93.3849751,38.2036922 92.7533566,38.2890304 C92.5123041,38.321459 92.2758286,38.4255716 92.0454556,38.5143233 C90.5609995,39.0929164 89.2291082,40.1784185 87.584459,40.2142605 C86.9177505,40.2313282 86.5180306,40.9106204 85.890989,40.9993721 L85.890989,40.9976653 C85.1632545,41.2331988 84.3775455,41.1632215 83.6742215,41.5301758 C82.0112644,42.4023323 80.3391535,43.2574212 78.6807734,44.1415251 C77.9377825,44.5409079 77.1902147,44.8788473 76.3511079,44.8873811 C75.9147724,44.8925014 75.6432069,44.7013438 75.5028473,44.2200363 C75.2801026,43.4571126 74.9215751,43.23694 74.2472384,43.5424508 C73.5301836,43.8667361 72.8131287,43.9350066 72.0747147,43.7711573 C70.6283998,43.4519923 69.3148163,44.7952158 68.9242503,46.0257929 C68.6679413,46.8382126 68.2422853,47.2973322 67.6121924,47.6557527 C65.9446585,48.6013001 64.200842,49.3556899 62.681296,50.6579511 C61.6774192,51.5164535 60.8489919,52.6104894 59.7428967,53.3239169 C59.5918575,53.4194957 59.5003185,53.6447885 59.402677,53.8257056 C59.1555219,54.2831184 58.8732769,54.6978621 58.4933904,55.0358014 C58.2599662,55.2440267 57.9975546,55.436891 57.8800797,55.7748303 L57.8800797,55.7731236 C57.735143,55.8738227 57.5642704,55.9438 57.452898,56.0786344 C56.5314063,57.1846176 55.4405675,58.0482403 54.3344722,58.905036 C53.6662381,59.4221856 53.1765049,60.1048913 53.3077106,61.1391904 C53.3397493,61.381551 53.2527873,61.6887685 52.9659653,61.8031217 C52.2168719,62.1035122 51.6874718,62.7657368 51.0604302,63.2692322 C50.8544676,63.4364951 50.8575189,63.7829683 50.5508635,63.9075621 C50.1465666,64.0697047 49.719385,64.2762232 49.4142553,64.5988016 C49.0053814,65.0340265 48.4683531,65.3975673 48.3676603,66.1127015 C47.9786199,66.4147988 47.5590665,66.6776405 47.2081673,67.0275272 C46.8847298,67.3535191 46.4773816,67.4900603 46.1524185,67.8518943 C45.1668494,68.9527572 44.6160903,70.4188677 43.5862774,71.4804751 C43.0187361,72.0658953 42.5000156,72.7247063 42.0575775,73.4449608 C40.9469053,74.521929 39.949131,75.7132505 39.132909,77.085489 C37.8101716,78.7751856 36.5911783,80.553634 35.5049165,82.4447288 C35.294377,82.7707207 35.0807862,83.0967127 34.8671954,83.4227047 C32.9616602,85.1124013 32.0325402,87.5104051 31.3139596,89.9698524 C30.8089699,91.7005114 30.4702759,93.5028545 29.7410159,95.1396414 C28.8912296,97.0460971 28.2687649,99.0617857 27.7134288,101.06894 C27.1443619,103.120471 26.3693324,105.069596 25.7407651,107.085284 C25.498187,107.863569 25.3837633,108.641853 25.5531103,109.4611 C25.641598,109.899739 25.6477005,110.346911 25.498187,110.778722 C25.1915316,111.459721 24.8711454,112.162908 24.9321713,112.932659 C25.0054025,113.88674 24.92912,114.789618 24.595003,115.668602 C24.4241303,116.117481 24.2227447,116.552706 24.1662957,117.045961 C24.1312058,117.039134 24.0991672,117.044254 24.0671285,117.059615 C24.0442438,117.44193 24.0228847,117.825952 24,118.20656 C24.030513,118.228748 24.0610259,118.238989 24.0961159,118.235575 C24.2059626,119.029221 24.3112323,119.816039 24.0991672,120.618218 C24,120.992 24.112898,121.389676 24.2868219,121.719081 C24.5095667,122.150893 24.4836306,122.558809 24.3341171,122.995741 C24.1723983,123.473635 24.0030513,123.973717 24.1479879,124.478919 C24.3447966,125.166745 24.421079,125.881879 24.5736439,126.578239 C24.7002727,127.148298 24.8436837,127.737132 25.3532504,128.069951 C25.3364682,128.424958 25.2540832,128.768018 25.2586601,129.134972 C25.272391,129.952512 25.4997126,130.718849 25.6095593,131.510788 C25.5836233,132.219095 25.7621242,132.862545 26.0870874,133.461619 C26.2304983,134.234784 27.0497717,134.75876 26.7507445,135.697481 C26.1786263,136.55769 26.5722436,137.416192 26.7843088,138.254214 C27.0802846,139.41652 27.6249412,140.491781 27.8141216,141.693344 C27.9239683,142.389703 28.0933153,143.063875 28.3526756,143.697085 C29.4831813,146.475697 30.7296362,149.196279 31.4100755,152.184823 C31.6023072,153.029672 32.3986958,153.442709 32.8151979,154.149309 C32.8533391,154.215873 32.9891219,154.210753 33.0791351,154.239768 C33.1523663,154.685233 33.3934188,155.03512 33.6054839,155.402074 C33.5429323,155.670036 33.657356,155.883382 33.7595744,156.113795 C33.9853704,156.632651 34.3377953,157.07641 34.4903601,157.637935 C34.9785677,158.713197 35.3950698,159.829421 36.1090734,160.759607 C36.7498458,161.595922 37.4485929,162.399808 37.9596852,163.329994 C38.8003176,164.864375 39.6317961,166.40217 40.5761726,167.861453 C41.1894834,168.807001 41.842461,169.747428 42.0468979,170.923388 C42.150642,171.519049 42.3871176,172.000357 42.7273372,172.430461 C43.0767108,172.875927 43.4459177,173.306031 43.8410607,173.703707 C45.3606068,175.234675 47.0647564,176.531816 48.451571,178.235166 C48.5995589,178.41779 48.7948419,178.578226 49.0496253,178.552625 C49.5042686,179.190954 49.9604375,179.829284 50.4150808,180.467614 C50.4486451,180.5649 50.4700042,180.672426 50.5188249,180.757764 C51.048225,181.679417 51.951409,182.21022 52.4914886,183.126753 C52.5601428,183.24452 52.7554258,183.278655 52.9003625,183.326444 C53.5975839,183.55003 54.235305,183.166008 54.8974365,183.053362 C55.1461173,183.010693 55.230028,182.747851 55.1506942,182.445754 C55.0469501,182.049785 55.2040919,181.908123 55.5412603,181.706725 C55.9836984,181.442177 56.523778,181.571891 56.9021389,181.179335 C57.4376416,181.435349 57.9975546,181.638454 58.4552492,182.066852 C58.6444296,182.36895 58.9022643,182.590829 59.1906119,182.754678 C60.6033625,183.560271 61.6224958,185.046863 63.1618753,185.63399 C63.2137474,185.652764 63.2595168,185.70226 63.297658,185.748343 C64.5197026,187.166664 66.2131726,187.658212 67.7098339,188.530369 C68.3734911,188.917804 69.1744567,189.037277 69.8854089,189.286465 C70.6329768,189.544186 71.4690322,189.95381 72.0686121,190.665531 C72.2730491,190.909598 72.3661136,191.201455 72.3691649,191.532567 C72.2013436,192.065077 71.8489187,192.657324 72.7307437,192.831414 C72.7643079,192.838242 72.8055004,192.9287 72.811603,192.983316 C72.8375391,193.314429 73.0557068,193.357098 73.2876054,193.428782 C73.7422487,193.570443 74.1816355,193.727466 74.6728944,193.647248 C75.0878708,193.57727 75.4509752,193.79915 75.7667845,194.092713 C75.9437597,194.258269 76.1222606,194.401638 76.346531,194.481855 C78.4595544,195.251606 80.6030907,195.900177 82.8046017,196.267131 C83.6635419,196.410499 84.5102769,196.507785 85.4012557,196.313214 C86.4356455,196.089627 87.5219074,196.287612 88.5608741,196.388311 C89.3420062,196.463409 90.1551769,196.873032 90.8874883,197.337272 C91.3497598,197.630836 91.8333905,197.878316 92.3551623,198.018271 C93.0676402,198.207722 93.6092455,198.671962 94.0562606,199.300051 C94.1691586,199.308585 94.2851079,199.317119 94.3980059,199.325652 C94.6009171,199.093533 94.8633287,199.009901 95.1242146,198.892134 C96.0136678,198.484218 96.9626212,198.446669 97.8917413,198.275992 L97.8917413,198.275992 C98.2670508,198.323782 98.6423604,198.373278 99.0191956,198.421067 C99.21753,198.595157 99.4463772,198.605398 99.6843784,198.574676 C99.8796615,198.99454 100.238189,199.025262 100.598242,199.071345 C101.611273,199.197645 102.622778,199.33248 103.623603,199.581667 C104.169785,199.718208 104.72207,199.894005 105.300291,199.861576 C106.69626,199.779652 108.093754,199.713088 109.491248,199.641404 C109.775019,200.057854 110.17779,200.011772 110.571407,199.98105 C111.70649,199.887178 112.841572,199.757464 113.978181,199.697727 C114.769992,199.656765 115.57706,199.795013 116.359718,199.69602 C117.790777,199.51681 119.206579,199.206179 120.634586,198.979179 C121.89172,198.777781 123.153432,198.999661 124.410566,198.970646 C125.968253,198.933097 127.554928,198.9843 129.059218,198.34597 C129.242295,198.269165 129.288065,198.154812 129.288065,197.972188 C129.692362,197.734948 130.122595,197.608648 130.565033,197.496001 C130.886945,197.41237 131.036458,197.8237 131.355319,197.699106 C133.038109,197.043709 134.876516,197.17513 136.54405,196.412206 C137.119219,196.149364 137.729479,195.982101 138.322956,195.770463 C138.475521,195.879695 138.592996,196.065733 138.820318,195.985515 C140.144581,195.517861 141.528344,195.215764 142.65885,194.217307 C143.287417,194.091006 143.801561,193.469744 144.507936,193.68821 C144.907656,194.021029 145.315004,193.841819 145.690314,193.657488 C146.544677,193.242745 147.429553,192.904805 148.334263,192.711941 C149.446461,192.472994 150.413722,191.94219 151.332162,191.252658 L151.333688,191.252658 C152.326885,191.216815 153.216338,190.71332 154.069176,190.267855 C156.159315,189.172112 158.287595,188.163414 160.307553,186.893582 C161.532649,186.125538 162.762322,185.389922 163.85011,184.386345 C163.996572,184.253217 164.162868,184.133744 164.339843,184.06206 C166.015005,183.363993 167.276716,181.976394 168.62539,180.757764 C169.580446,179.894141 170.390565,178.830827 171.275442,177.868212 C172.13133,176.934612 172.773629,175.789373 173.746992,174.966713 C174.284021,174.512714 174.682215,173.857316 175.142961,173.292377 C175.306205,173.297497 175.49386,173.403317 175.622015,173.213866 C176.127004,172.46801 176.845585,172.044732 177.51687,171.52929 C178.247656,170.971178 178.918941,170.302126 179.4102,169.438503 C179.843484,168.678993 180.627668,168.318866 181.115875,167.586664 C182.10297,166.096659 182.874948,164.463286 183.755248,162.901596 C184.569944,161.455967 185.082562,159.906225 185.157319,158.190927 C185.166473,157.992942 185.203088,157.78301 185.344973,157.675484 C185.817925,157.315357 185.946079,156.712869 186.214593,156.212787 C186.669236,156.233268 186.884353,155.902156 187.065905,155.502773 C187.226098,155.146059 187.360355,154.775692 187.555638,154.432632 C188.144539,153.393213 188.962286,152.514229 189.270467,151.278532 C189.397096,150.771623 189.603059,150.257887 190.036343,149.97627 C190.42996,149.723669 190.625243,149.343061 190.786962,148.902716 C191.00513,148.317296 191.147015,147.675552 191.528427,147.194245 C192.118853,146.446682 192.430086,145.589886 192.517048,144.61191 C193.081538,143.512754 193.618566,142.39141 193.942004,141.176194 C194.160171,140.356947 194.407326,139.573542 194.843662,138.866942 C195.084714,138.4778 195.217446,138.044282 195.157946,137.545906 C195.034368,136.523555 195.212869,135.572887 195.714807,134.692196 C196.030617,134.140912 196.434913,133.649364 196.624094,133.01274 C196.808697,132.937643 196.952108,132.816463 197.046699,132.615064 C197.380816,131.891396 197.631022,131.119939 197.621868,130.314346 C197.585253,126.808652 198.08414,123.410485 199.155145,120.114723 C199.255838,119.798972 199.310761,119.462739 199.388569,119.13504 C199.423659,119.138454 199.457223,119.138454 199.492313,119.136747 C199.519775,118.669094 199.547237,118.20144 199.574698,117.733787 C199.54266,117.723546 199.509096,117.718426 199.477057,117.716719 L199.477057,117.716719 Z" id="Fill-1" fill="#C2D500" transform="translate(112.000000, 112.000000) rotate(19.000000) translate(-112.000000, -112.000000) "></path>
            <g id="Group" transform="translate(47.000000, 8.000000)">
                <g id="Head/Front" transform="translate(54.022277, 29.708924) rotate(-27.000000) translate(-54.022277, -29.708924) translate(39.522277, 4.708924)">
                    <g id="Head" transform="translate(7.445629, 13.999042)" fill="#B28B67">
                        <path d="M3.98616473,16.6718108 C1.76306166,14.057333 0.258418996,10.8532544 0.509845668,7.26299229 C1.23427592,-3.08155252 15.6066688,-0.805884462 18.4023967,4.41515344 C21.1981247,9.63619134 20.8659195,22.879787 17.2526902,23.8129321 C15.8117394,24.185069 12.7420856,23.2734825 9.61789427,21.3867785 L11.5788892,35.2866836 L0,35.2866836 L3.98616473,16.6718108 Z"></path>
                    </g>
                    <path d="M21.2744386,12.7277427 C19.6922598,12.2443635 17.3954922,12.0804341 16.4293103,12.191331 C16.9789186,10.8719859 17.1970112,9.40207673 17.0192131,7.97086067 C16.8464009,6.5801691 16.2261757,5.39603557 15.6525606,4.1552067 C15.3881533,3.5832658 15.0885113,3.01444216 14.641763,2.57697245 C14.1866677,2.13128093 13.610578,1.83708869 13.0064927,1.69673366 C12.3882988,1.55306653 11.7418877,1.56502905 11.1227335,1.69540882 C10.8488343,1.75307829 10.6030784,1.87854836 10.3344606,1.94829725 C10.0593794,2.01976064 9.9259385,1.84725878 9.72627568,1.67389966 C9.24510528,1.25618564 8.53971125,1.0499783 7.93097234,0.976176961 C7.24799697,0.893413473 6.53931585,0.996634038 5.88795562,1.22158395 C5.25395415,1.44057209 4.64488284,1.79617453 4.18650045,2.31422565 C3.9824056,2.54482561 3.79714687,2.80729965 3.67674347,3.09708876 C3.6273633,3.21601256 3.61920099,3.28646284 3.50075507,3.33002667 C3.39121013,3.37035634 3.26308762,3.37152531 3.15003399,3.40990668 C2.05687453,3.78086168 1.1222339,4.62712224 0.613326399,5.71368526 C0.316417523,6.34758188 0.175774532,7.46364979 0.214296233,8.71457854 C0.252817935,9.96550729 1.38017787,13.2295374 2.43459403,14.4201003 C3.3757719,15.4827772 4.7591922,16.1840458 6.09430341,16.4910189 C5.20811961,17.5058847 4.61821681,18.7740676 4.18199455,20.0638376 C3.70817393,21.4648551 3.41492148,22.9205807 3.30663228,24.4038162 C3.20377232,25.8130555 3.19424346,27.3033438 3.52398627,28.6825015 C3.83245535,29.9722325 4.49212564,31.0302725 5.59337355,31.7014984 C6.0978121,32.008978 6.64055074,32.2399676 7.18642873,32.4510847 C7.72440294,32.6591234 8.26400223,32.8613952 8.82753447,32.9781369 C9.89406484,33.1989954 11.1229551,33.1610816 11.9445052,32.3105348 C12.2406015,32.0039125 12.5662447,31.618618 12.7822691,31.2440392 C12.8599404,31.1093342 12.9067721,31.0212324 12.8124069,30.8895668 C12.6993533,30.7318719 12.5164952,30.6110388 12.3712725,30.4876729 C11.5431113,29.7843001 11.0304735,28.8453008 10.901243,27.7293965 C10.7701288,26.5971655 11.0736858,25.1357509 12.1723853,24.6416248 C13.5286225,24.0316532 15.0222156,24.7317918 16.227653,25.384431 C16.7399584,23.5728302 17.7918631,21.9416803 19.4410573,21.1106944 C21.265612,20.1913728 23.3592646,20.0837881 25.2342706,19.2950022 C25.7228647,19.0894573 26.2205074,18.8561297 26.5802403,18.4373246 C26.7305599,18.26229 26.9069176,18.0352359 26.9669346,17.8037397 C27.0457878,17.4996502 26.8500399,17.2446965 26.6988339,17.0076282 C25.8970802,15.7506285 22.8566174,13.211122 21.2744386,12.7277427 Z" id="hair" fill="#152C2C"></path>
                </g>
                <g id="Bottom/Skinny-Jeans-1" transform="translate(10.000000, 92.000000)">
                    <polygon id="Leg" fill="#997659" points="57.6993651 0 81.3364594 59.783264 97.1899564 110.324975 103.450159 110.324975 79.2136458 2.44970654e-13"></polygon>
                    <path d="M52.9396586,0 C52.6879573,21.0082494 49.0172287,49.2924474 48.4307699,50.6019948 C48.0397974,51.4750264 34.542797,62.5771441 7.9397687,83.9083479 L12.2515242,88.5191309 C43.6406331,70.2302999 60.0614543,59.8662447 61.5139878,57.4269654 C63.6927881,53.7680464 70.7862111,20.098195 76.4812698,0 L52.9396586,0 Z" id="Leg" fill="#B28B67"></path>
                    <g id="Left-Shoe" transform="translate(14.007916, 93.448545) rotate(50.000000) translate(-14.007916, -93.448545) translate(-0.492084, 87.948545)" fill="#E4E4E4">
                        <path d="M0.898285355,4.74209104 C0.619490903,5.64311814 0.480093677,6.35393416 0.480093677,6.87453908 C0.480093677,7.75338857 0.624320637,9.03584854 0.912774557,10.721919 C1.91710103,10.721919 10.9431522,10.721919 27.990928,10.721919 C28.6945932,8.36041987 28.2883968,7.08552248 26.7723388,6.89722683 C25.2562809,6.70893117 23.9968658,6.53891528 22.9940935,6.38717913 L10.9048289,0.916154643 C10.4016703,0.688449048 9.80918779,0.911747853 9.5814822,1.41490648 C9.57609149,1.42681826 9.57093493,1.43883461 9.56601547,1.45094861 L8.9600906,2.94301814 C7.55661745,3.60775621 6.4161498,3.94012525 5.53868767,3.94012525 C5.0152726,3.94012525 4.34544172,3.78257595 3.52919502,3.46747733 L3.52920196,3.46745936 C2.49873736,3.06966545 1.34090507,3.58254638 0.94311116,4.61301098 C0.926703359,4.65551454 0.911752701,4.69856634 0.898285355,4.74209104 Z" id="shoe"></path>
                    </g>
                    <g id="Right-Shoe" transform="translate(93.714286, 104.295030)" fill="#E4E4E4">
                        <path d="M0.898285355,4.74209104 C0.619490903,5.64311814 0.480093677,6.35393416 0.480093677,6.87453908 C0.480093677,7.75338857 0.624320637,9.03584854 0.912774557,10.721919 C1.91710103,10.721919 10.9431522,10.721919 27.990928,10.721919 C28.6945932,8.36041987 28.2883968,7.08552248 26.7723388,6.89722683 C25.2562809,6.70893117 23.9968658,6.53891528 22.9940935,6.38717913 L10.9048289,0.916154643 C10.4016703,0.688449048 9.80918779,0.911747853 9.5814822,1.41490648 C9.57609149,1.42681826 9.57093493,1.43883461 9.56601547,1.45094861 L8.9600906,2.94301814 C7.55661745,3.60775621 6.4161498,3.94012525 5.53868767,3.94012525 C5.0152726,3.94012525 4.34544172,3.78257595 3.52919502,3.46747733 L3.52920196,3.46745936 C2.49873736,3.06966545 1.34090507,3.58254638 0.94311116,4.61301098 C0.926703359,4.65551454 0.911752701,4.69856634 0.898285355,4.74209104 Z" id="shoe"></path>
                    </g>
                    <polygon id="Pant" fill="#244645" points="73.591746 105.119182 103.355991 101.891218 81.2971429 0 54.6384314 0"></polygon>
                    <path d="M14.0964306,76.4696583 L33.62,99.5623097 C54.183755,77.1190863 66.1724779,62.474879 69.5861686,55.6296878 C72.9998593,48.7844966 76.0685935,30.2412674 78.7923712,0 L48.7794753,0 C47.2916097,26.6049479 46.2886847,40.526451 45.7707003,41.7645095 C45.252716,43.0025679 34.6946261,54.5709508 14.0964306,76.4696583 Z" id="Pant" fill="#295150"></path>
                </g>
                <g id="Body/Long-Sleeve-1" transform="translate(71.119360, 81.977264) rotate(-14.000000) translate(-71.119360, -81.977264) translate(8.619360, 41.477264)">
                    <path d="M96.1941599,37.6404416 L113.797967,29.923467 C116.881743,26.8560817 119.859569,24.5247271 122.731444,22.929403 C123.590189,22.6565016 125.057315,22.5740549 123.492006,24.856217 C121.926697,27.1383791 120.383051,29.6091416 121.008507,30.4089617 C121.633963,31.2087819 123.445774,30.3259982 124.161565,31.6266627 C124.638759,32.4937723 121.584699,33.5310166 114.999385,34.7383954 L101.815173,44.8284738 L96.1941599,37.6404416 Z M25.0242222,39.765937 L34.9796945,41.7376701 C24.9677686,60.3622961 19.5985526,70.2333587 18.8720465,71.3508579 C17.2374077,73.8652311 18.7625588,78.4733427 19.3259432,80.9000059 C15.7915852,81.7212408 17.1854275,76.4112202 12.7127657,77.5199042 C8.63032748,78.5318596 5.16891213,81.1288976 1.36220569,77.6263774 C0.894193506,77.1957631 0.551586456,75.8497848 2.14727708,75.159439 C6.12272434,73.4395358 11.9961128,70.2190518 12.9484833,68.96873 C14.2472105,67.2636928 18.2724568,57.5294285 25.0242222,39.765937 Z" id="Skin" fill="#B28B67"></path>
                    <path d="M59.8969968,4.79386074 L64.0193467,3.71119133 C73.9069681,11.7400751 79.4820086,32.6198027 85.8023475,34.8951866 C91.7779721,37.04647 99.6950655,33.7661409 109.069479,29.4519562 L112.611528,35.802549 C104.649118,46.0677623 86.6181386,55.7292517 78.6242207,51.8136365 C65.8436076,45.5533817 60.7528935,19.6451634 59.8969968,4.79386074 Z" id="Coat-Back" fill="#E66C01" transform="translate(86.254263, 28.207676) rotate(5.000000) translate(-86.254263, -28.207676) "></path>
                    <path d="M43.7246181,55.2843514 C60.5691658,55.2843514 72.9596619,55.2843514 80.8961066,55.2843514 C82.5946541,55.2843514 82.2745952,52.8361455 82.0290599,51.6007674 C79.1952856,37.3430112 68.1333053,21.9738399 68.1333053,1.67828272 L57.4112982,0 C48.5428208,14.2373726 45.4759476,31.766461 43.7246181,55.2843514 Z" id="Shirt" fill="#DDE3E9"></path>
                    <path d="M40.0171376,40.8489126 C32.4394796,54.4928304 26.070048,64.315798 20.9088429,70.3178154 L13.1173854,68.7944987 C18.1362879,37.7246215 32.6703596,14.793122 56.7196006,-9.9475983e-14 L58.654857,-9.9475983e-14 L60.9649426,0 C70.5904435,32.7520732 73.2440237,54.5748435 68.9256832,65.4683109 L35.4655236,65.4683109 C35.9948966,57.497399 37.6922707,49.0678686 40.0171376,40.8489126 Z" id="Coat-Front" fill="#F77300"></path>
                </g>
            </g>
        </g>
    </g>
</svg>