<?xml version="1.0" encoding="UTF-8"?>
<svg width="500px" height="500px" viewBox="0 0 500 500" version="1.1" xmlns="http://www.w3.org/2000/svg" xmlns:xlink="http://www.w3.org/1999/xlink">
    <!-- Generator: Sketch 55.2 (78181) - https://sketchapp.com -->
    <title>Illustration - Header - Graphic 2</title>
    <desc>Created with Sketch.</desc>
    <g id="Illustration---Header---Graphic-2" stroke="none" stroke-width="1" fill="none" fill-rule="evenodd">
        <g id="2" transform="translate(17.000000, 92.000000)">
            <g id="ðŸ˜Human/Standing" transform="translate(71.000000, 0.000000)">
                <g id="Head/Front" transform="translate(74.000000, 0.000000)">
                    <g id="Head" transform="translate(1.029412, 2.615385)" fill="#E6B393">
                        <path d="M7.65475374,31.8370401 C3.38566109,26.844347 0.496249883,20.7257327 0.979072192,13.8696497 C2.37021771,-5.88463438 29.9699622,-1.53894356 35.3386839,8.4313227 C40.7074056,18.401589 40.0694619,43.6919962 33.1308675,45.4739608 C30.3637656,46.1846059 24.4690158,44.4438101 18.4695358,40.8408979 L22.2352941,67.3846154 L0,67.3846154 L7.65475374,31.8370401 Z"></path>
                    </g>
                    <path d="M17.4423081,21.1158957 C17.2249419,21.0901611 17.0037285,21.0769231 16.7794118,21.0769231 C13.7093583,21.0769231 11.2205882,23.5565768 11.2205882,26.6153846 C11.2205882,28.1682015 11.8619763,29.5717629 12.8951977,30.5774283 C11.6089613,32.3862919 10.1674593,34.2758921 8.51565198,36.225714 C2.31016968,32.5163146 -3.35611506,20.4314089 2.71075112,10 C4.38765203,4.88981497 9.24538499,3.38637615 13.72887,2.11896224 C17.360724,0.60531108 21.1309321,0.434645572 24.3135247,1.3420658 C30.5522875,1.87522804 36.1232034,3.77062759 37.7020458,4.8962587 C37.7020458,10.7810811 36.5575856,12.5270907 26.7823346,12.3731864 C24.380397,13.6370488 22.5339085,15.8134182 20.6106506,18.6667037 C21.4617842,30.479482 23.7132579,36.3858711 27.3650715,36.3858711 C32.8431127,36.3858711 37.4908415,32.920964 39.8944745,32.920964 C41.6466413,32.920964 41.2554362,35.1056066 40.0940084,36.7253639 C39.1357931,38.0617158 34.4693646,39.3497992 34.4693646,41.4215934 C34.4693646,43.4933875 38.1562301,41.8905546 38.1562301,43.1192952 C38.1562301,45.1517821 38.8041913,48.973221 35.2636341,48.973221 C31.6804722,48.973221 21.4069123,47.6722311 19.6463024,42.3736666 C18.5100563,38.954128 17.7753915,31.8682044 17.4423081,21.1158957 Z" id="Hair" fill="#A5581D"></path>
                </g>
                <g id="Bottom/Skinny-Jeans-1" transform="translate(27.000000, 147.000000)">
                    <polygon id="Leg" fill="#E6B393" points="40.6133333 0 74.5579096 116.72028 90.5237428 204.355649 106.548629 204.355649 90.5523026 4.66847224e-29"></polygon>
                    <path d="M25.358294,0 C27.7268333,60.6355799 26.7927159,93.7078728 26.2626085,99.2168789 C25.732501,104.725885 22.7230421,141.621514 2.21568362,206.205021 L18.8829748,206.205021 C46.0415984,144.248181 55.5224138,107.352552 58.6373024,99.2168789 C61.7521909,91.0812056 70.9518469,58.0089127 84.382937,0 L25.358294,0 Z" id="Leg" fill="#E6B393"></path>
                    <path d="M39.8846385,0 C48.7141522,40.1637681 63.9854267,104.275344 85.698462,192.334728 L109.136682,192.334728 C110.867861,101.950192 103.503503,42.4620474 90.7502745,0 L39.8846385,0 Z" id="Pant" fill="#244645"></path>
                    <path d="M25.239858,0 C27.5595324,60.6355799 21.5479491,120.373111 2.92627056,193.278794 L27.9335617,193.278794 C55.142115,132.24664 74.6433615,72.8038918 87.9711676,0 L25.239858,0 Z" id="Pant" fill="#295150"></path>
                    <g id="Left-Shoe" transform="translate(0.000000, 201.000000)" fill="#E4E4E4">
                        <path d="M0,17.225 L0.927345774,2.425 C6.35682492,3.99696823 13.1573606,3.38030156 21.3289528,0.575 C30.0820693,6.71270436 41.0925065,10.9110824 54.3602642,13.170134 C55.4491603,13.3555395 56.1815871,14.3885629 55.9961848,15.4774595 C55.9838367,15.5499813 55.9674968,15.6217666 55.9472394,15.6924881 L54.7134007,20 L21.3289528,20 L1.85469155,20 L0,17.225 Z" id="Shoe"></path>
                    </g>
                    <g id="Right-Shoe" transform="translate(87.000000, 201.000000)" fill="#E4E4E4">
                        <path d="M0,17.225 L0.927345774,2.425 C6.35682492,3.99696823 13.1573606,3.38030156 21.3289528,0.575 C30.0820693,6.71270436 41.0925065,10.9110824 54.3602642,13.170134 C55.4491603,13.3555395 56.1815871,14.3885629 55.9961848,15.4774595 C55.9838367,15.5499813 55.9674968,15.6217666 55.9472394,15.6924881 L54.7134007,20 L21.3289528,20 L1.85469155,20 L0,17.225 Z" id="Shoe"></path>
                    </g>
                </g>
                <g id="Body/Long-Sleeve-1" transform="translate(0.000000, 46.000000)">
                    <path d="M145.621662,89.3079518 L175.152483,110.977912 C183.16185,113.137616 189.853417,115.824654 195.227185,119.039023 C196.496562,120.19489 198.030723,122.535712 192.766309,122.131159 C187.501895,121.726607 181.946314,121.537673 181.219928,123.332027 C180.493541,125.126381 183.679279,127.272232 182.210935,129.693286 C181.232039,131.307322 176.60734,127.260187 168.336839,117.551881 L139.09358,105.433922 L145.621662,89.3079518 Z M32.238199,90.0558354 L51.5846125,90.1318626 C39.6390949,128.667074 33.1902904,149.113616 32.238199,151.471488 C30.0959935,156.7767 34.6291884,164.856447 36.5677625,169.198442 C30.2538913,172.021736 30.9266411,161.565929 22.9618624,165.268835 C15.6919819,168.648676 10.1618018,174.772722 1.76250525,169.593723 C0.729861096,168.956996 -0.401748661,166.559602 2.33236357,164.686166 C9.14403423,160.018752 18.9600643,151.849938 20.2863646,149.161109 C22.0950119,145.494411 26.0789567,125.792653 32.238199,90.0558354 Z" id="Skin" fill="#E6B393"></path>
                    <path d="M82.6260648,12.8656992 L90.4813576,10.80108 C122.305204,33.7552555 138.751674,81.7629411 177.294904,104.584713 L169.511298,116.161611 C105.910148,113.8814 85.0782507,55.3910182 82.6260648,12.8656992 Z" id="Coat-Back" fill="#DF6800" transform="translate(129.960484, 63.481345) rotate(5.000000) translate(-129.960484, -63.481345) "></path>
                    <path d="M52.3203125,109.465241 C84.418774,109.465241 108.029729,109.465241 123.153179,109.465241 C126.38988,109.465241 125.779985,104.79483 125.312101,102.438115 C119.912146,75.2387784 98.83277,45.9192095 98.83277,7.20163819 L78.4012368,4 C61.5017341,31.1604512 55.6575931,64.600466 52.3203125,109.465241 Z" id="Shirt" fill="#DDE3E9"></path>
                    <path d="M52.8895211,30.6974696 C49.9220973,29.8450791 47.5722048,27.8570382 45.8398438,24.7333471 C38.3720821,11.2679204 41.0690403,3.8542056 49.0497092,1.41727569 C57.0303781,-1.01965422 64.1474635,4 76.8628024,4 C77.5544109,4 78.1878465,4.04332636 78.763109,4.12997907 L85.1592429,4.49470594 C103.510448,66.6456076 108.571601,108.111722 100.342701,128.893048 L44.5917185,128.893048 C41.288532,136.590041 38.1276613,143.065977 35.1091064,148.320856 L19.9179688,148.320856 C18.4882692,102.126239 29.4787867,62.9184438 52.8895211,30.6974696 Z" id="Coat-Front" fill="#F77300"></path>
                    <path d="M56.7318717,96.9737458 C58.4852293,111.633775 61.335022,122.273543 65.28125,128.893048 L44.5917185,128.893048 C48.4447932,119.914721 52.491511,109.274953 56.7318717,96.9737458 Z" id="Shade" fill-opacity="0.1" fill="#000000"></path>
                </g>
            </g>
            <g id="A-Human/Standing" transform="translate(0.000000, 55.000000)">
                <g id="Head/Front" transform="translate(75.000000, 0.000000)">
                    <g id="Head" transform="translate(14.044118, 24.721154)" fill="#915B3C">
                        <path d="M7.35099367,30.8421326 C3.25130946,26.0054611 0.476557427,20.0780536 0.940220121,13.4362232 C2.27616145,-5.70073955 28.780678,-1.49085157 33.9363552,8.16784386 C39.0920324,17.8265393 38.4794039,42.3266213 31.8161505,44.0528996 C29.1588542,44.741337 23.4980231,43.054941 17.7366177,39.5646198 L21.3529412,65.2788462 L0,65.2788462 L7.35099367,30.8421326 Z"></path>
                    </g>
                    <path d="M39.5461978,22.3693057 C36.6284593,21.475075 32.3929282,21.1718127 30.6111662,21.3769671 C31.6247136,18.9362354 32.0269041,16.2169668 31.6990218,13.5692786 C31.3803343,10.9965591 30.2365602,8.805963 29.1787412,6.51048299 C28.6911405,5.45241694 28.1385627,4.40011769 27.3147021,3.59081754 C26.4754486,2.76630742 25.4130661,2.22206442 24.2990562,1.96241366 C23.1590282,1.69663565 21.966964,1.7187658 20.8251651,1.95996276 C20.3200601,2.06664881 19.8668551,2.29876304 19.3714898,2.42779549 C18.8642053,2.55999968 18.6181232,2.24087865 18.2499196,1.92017175 C17.3625804,1.14741878 16.0617442,0.765944085 14.9391524,0.629414781 C13.6796592,0.47630589 12.3727612,0.667259493 11.1715703,1.08340715 C10.0023911,1.48852578 8.87918632,2.146375 8.033871,3.10474727 C7.65749421,3.53134728 7.3158536,4.01691295 7.09381445,4.55301033 C7.00275115,4.77301425 6.9876988,4.90334423 6.76926949,4.98393545 C6.56725473,5.05854359 6.33098055,5.06070615 6.12249532,5.13171004 C4.10657053,5.81796081 2.38297458,7.38350643 1.44448456,9.39360126 C0.896946907,10.5662827 0.637583382,12.6309603 0.708622289,14.9451247 C0.779661195,17.259289 2.858656,23.2976042 4.80313323,25.5000943 C6.53878468,27.466001 9.08998729,28.7633177 11.5521018,29.3312046 C9.9178664,31.2086628 8.83001077,33.5547465 8.02556156,35.9407655 C7.1517762,38.5325876 6.61098146,41.2256173 6.41128244,43.9695391 C6.22159562,46.5765712 6.20402319,49.3335405 6.81211079,51.8849228 C7.38096692,54.2708697 8.59748266,56.2281982 10.6283236,57.4699372 C11.5585723,58.0387613 12.5594512,58.4660821 13.5661195,58.8566396 C14.5582122,59.2415023 15.5533018,59.6156964 16.5925268,59.8316635 C18.5593441,60.2402422 20.8255738,60.1701034 22.3406164,58.5966284 C22.8866556,58.0293902 23.487183,57.3166121 23.8855594,56.6236574 C24.0287951,56.374459 24.1151588,56.2114744 23.9411373,55.9678987 C23.7326521,55.67617 23.3954386,55.4526339 23.1276294,55.2244123 C21.6003951,53.9232029 20.6550259,52.1860946 20.4167085,50.1217197 C20.1749174,48.027141 20.7347148,45.3235869 22.7608562,44.4094749 C25.2619297,43.2810537 28.0163049,44.57628 30.2392846,45.7836344 C31.1840408,42.4322509 33.1238865,39.4146938 36.1652099,37.8774056 C39.5299204,36.1767003 43.3908816,35.9776731 46.8486305,34.5184531 C47.74966,34.1382039 48.6673764,33.7065579 49.3307694,32.9317865 C49.6079778,32.60798 49.9332039,32.1879397 50.0438829,31.7596818 C50.1892981,31.1971291 49.8283142,30.7254759 49.5494712,30.2869097 C48.0709356,27.9615144 42.4639363,23.2635365 39.5461978,22.3693057 Z" id="hair" fill="#152C2C"></path>
                </g>
                <g id="Bottom/Skinny-Jeans-1" transform="translate(0.000000, 163.000000)">
                    <path d="M194.846558,16.1271582 C201.236645,7.44881996 217.209624,13.1937702 217.200004,20.3780894 C217.174734,39.2411306 199.984447,128.791033 199.086919,134.44477 C198.189392,140.098507 188.574619,141.948089 188.014719,134.883769 C187.123824,123.643243 185.468652,84.6766073 187.124719,66.5483874 C187.608448,61.2532286 188.118515,56.1349328 188.632235,51.3399216 C179.597672,67.5924428 165.859555,90.5640654 147.417884,120.25479 L137.16815,115.565578 C145.216947,89.0109164 151.81684,70.2640316 156.967829,59.3249241 C165.787572,40.5945162 174.057523,24.554419 177.538078,18.9044248 C182.13564,11.4411922 189.592743,12.4319467 194.846558,16.1271582 Z" id="Skin" fill="#915B3C"></path>
                    <path d="M153.869389,109.907562 L158.385149,19.4567368 C161.661539,3.81761212 189.453423,11.0885752 189.445666,19.4703446 C189.428049,38.499556 178.037949,104.23013 178.0327,109.899568 L153.869389,109.907562 Z" id="Leg-Back" fill="#2A8FB9" transform="translate(171.657528, 60.082399) rotate(20.000000) translate(-171.657528, -60.082399) "></path>
                    <path d="M218.09,26.8937467 C217.003131,50.5339642 207.735973,106.148857 207.728857,111.357501 L182.646773,110.51046 C187.031156,62.1685385 188.880091,37.8337943 188.193579,37.5062275 C186.648928,36.7692023 124.873297,46.0678626 106.345781,46.7700104 C79.6290101,47.782511 68.5768171,31.3696572 67.68,0.22329929 L119.431405,0.22329929 C163.823524,5.05211812 192.907795,8.73102132 206.684218,11.2600089 C217.200004,13.1904297 218.451706,19.0263672 218.09,26.8937467 Z" id="Leg-Front" fill="#3BA9D7"></path>
                    <g id="Left-Shoe" transform="translate(158.458516, 122.126553) rotate(14.000000) translate(-158.458516, -122.126553) translate(131.958516, 112.626553)" fill="#E4E4E4">
                        <path d="M2.28396637,6.09917122 C1.35148606,8.6683052 0.885245902,10.6002827 0.885245902,11.8951037 C0.885245902,13.5180613 1.15118635,15.8863601 1.68306723,19 C3.53494727,19 20.178105,19 51.6125403,19 C52.9100303,14.6390565 52.1610439,12.2847235 49.3655809,11.9370008 C46.5701179,11.5892782 44.2478793,11.2753125 42.3988652,10.9951037 L19.3086331,0.529800821 C18.8056035,0.301810192 18.2129946,0.524773284 17.985004,1.02780282 C17.9794563,1.04004306 17.9741559,1.05239389 17.969106,1.06484777 L16.5215329,4.63482554 C13.9336653,5.86238694 11.8307543,6.47616764 10.2127997,6.47616764 C8.94186883,6.47616764 7.20277022,5.9716403 4.99550389,4.96258561 L4.99550719,4.9625784 C3.99092865,4.50333401 2.8042657,4.94541469 2.34502131,5.94999322 C2.32267331,5.99887857 2.30230512,6.04864498 2.28396637,6.09917122 Z" id="shoe"></path>
                    </g>
                    <g id="Right-Shoe" transform="translate(184.000000, 116.000000)" fill="#E4E4E4">
                        <path d="M2.28396637,6.09917122 C1.35148606,8.6683052 0.885245902,10.6002827 0.885245902,11.8951037 C0.885245902,13.5180613 1.15118635,15.8863601 1.68306723,19 C3.53494727,19 20.178105,19 51.6125403,19 C52.9100303,14.6390565 52.1610439,12.2847235 49.3655809,11.9370008 C46.5701179,11.5892782 44.2478793,11.2753125 42.3988652,10.9951037 L19.3086331,0.529800821 C18.8056035,0.301810192 18.2129946,0.524773284 17.985004,1.02780282 C17.9794563,1.04004306 17.9741559,1.05239389 17.969106,1.06484777 L16.5215329,4.63482554 C13.9336653,5.86238694 11.8307543,6.47616764 10.2127997,6.47616764 C8.94186883,6.47616764 7.20277022,5.9716403 4.99550389,4.96258561 L4.99550719,4.9625784 C3.99092865,4.50333401 2.8042657,4.94541469 2.34502131,5.94999322 C2.32267331,5.99887857 2.30230512,6.04864498 2.28396637,6.09917122 Z" id="shoe"></path>
                    </g>
                    <rect id="Base" fill="#295150" x="186.05" y="134.573222" width="47.17" height="6.23849372" rx="3.11924686"></rect>
                    <path d="M66.11,5.34728033 L159.14,5.34728033 C164.662847,5.34728033 169.14,9.82443284 169.14,15.3472803 L169.14,57.9288703 L60.11,57.9288703 C57.900861,57.9288703 56.11,56.1380093 56.11,53.9288703 L56.11,15.3472803 C56.11,9.82443284 60.5871525,5.34728033 66.11,5.34728033 Z" id="Seat" fill="#295150"></path>
                    <path d="M160.24,5.34728033 L161.256376,5.34728033 C166.154727,5.34728033 170.332051,8.89546202 171.12461,13.7292692 L190.5,131.899582 L180.989714,131.899582" id="Wheel-Stuff" fill="#295150"></path>
                    <ellipse id="Front-Wheel" fill="#152C2C" cx="186.05" cy="133.682008" rx="16.02" ry="16.041841"></ellipse>
                    <g id="Wheel" transform="translate(0.040000, 12.476987)" fill="#152C2C">
                        <path d="M67.64,135.464435 C30.2834595,135.464435 0,105.139688 0,67.7322176 C0,30.3247467 30.2834595,0 67.64,0 C104.99654,0 135.28,30.3247467 135.28,67.7322176 C135.28,105.139688 104.99654,135.464435 67.64,135.464435 Z M67.64,122.987448 C98.1150725,122.987448 122.82,98.2488385 122.82,67.7322176 C122.82,37.2155966 98.1150725,12.4769874 67.64,12.4769874 C37.1649275,12.4769874 12.46,37.2155966 12.46,67.7322176 C12.46,98.2488385 37.1649275,122.987448 67.64,122.987448 Z"></path>
                        <rect id="Wheel-Stuff" x="64.08" y="8.91213389" width="7.12" height="117.640167"></rect>
                        <path d="M66.0402576,8.95111324 L69.1651084,8.95324194 C70.2686137,8.95399366 71.1629938,9.84837377 71.1637455,10.951879 L71.2411043,124.51196 C71.2418568,125.616529 70.3470365,126.512569 69.2424672,126.513322 C69.2415589,126.513323 69.2406507,126.513323 69.2397424,126.513322 L66.1148916,126.511193 C65.0113863,126.510441 64.1170062,125.616061 64.1162545,124.512556 L64.0388957,10.9524752 C64.0381432,9.84790596 64.9329635,8.95186569 66.0375328,8.95111324 C66.0384411,8.95111262 66.0393493,8.95111262 66.0402576,8.95111324 Z" id="Wheel-Stuff" transform="translate(67.640000, 67.732218) rotate(45.000000) translate(-67.640000, -67.732218) "></path>
                        <path d="M66.0751464,8.99221757 L69.2048536,8.99221757 C70.3094231,8.99221757 71.2048536,9.88764807 71.2048536,10.9922176 L71.2048536,124.472218 C71.2048536,125.576787 70.3094231,126.472218 69.2048536,126.472218 L66.0751464,126.472218 C64.9705769,126.472218 64.0751464,125.576787 64.0751464,124.472218 L64.0751464,10.9922176 C64.0751464,9.88764807 64.9705769,8.99221757 66.0751464,8.99221757 Z" id="Wheel-Stuff" transform="translate(67.640000, 67.732218) rotate(90.000000) translate(-67.640000, -67.732218) "></path>
                        <path d="M66.1148916,8.95324194 L69.2397424,8.95111324 C70.3443116,8.95036079 71.2403519,9.8451811 71.2411043,10.9497503 C71.241105,10.9506586 71.241105,10.9515669 71.2411043,10.9524752 L71.1637455,124.512556 C71.1629938,125.616061 70.2686137,126.510441 69.1651084,126.511193 L66.0402576,126.513322 C64.9356884,126.514074 64.0396481,125.619254 64.0388957,124.514685 C64.038895,124.513777 64.038895,124.512868 64.0388957,124.51196 L64.1162545,10.951879 C64.1170062,9.84837377 65.0113863,8.95399366 66.1148916,8.95324194 Z" id="Wheel-Stuff" transform="translate(67.640000, 67.732218) rotate(135.000000) translate(-67.640000, -67.732218) "></path>
                    </g>
                </g>
                <g id="Body/Long-Sleeve-1" transform="translate(4.000000, 70.000000)">
                    <path d="M155,57.9764231 L190.164436,53.1956009 C197.19875,49.2958096 203.669978,46.6557191 209.578119,45.2753294 C211.240731,45.2269454 213.885628,45.8293631 209.945465,49.1033298 C206.005302,52.3772965 202.007451,55.9989873 202.709469,57.7462462 C203.411487,59.4935051 207.075788,58.8434078 207.682818,61.5308405 C208.087505,63.3224623 202.140566,63.613583 189.842003,62.4042025 L161.309075,73.6791444 L155,57.9764231 Z M44.5355959,66.0890238 L64.0379605,66.1619747 C42.6530884,114.127814 31.5026844,139.241967 30.5867484,141.504434 C28.5258925,146.594984 32.8869408,154.347805 34.7518981,158.514112 C28.6777942,161.223168 29.3249965,151.190429 21.6626778,154.743506 C14.6688686,157.986591 9.34869541,163.862843 1.26835948,158.893399 C0.274929662,158.282435 -0.813706235,155.982052 1.81657762,154.184413 C8.36957724,149.705855 17.8128467,141.86757 19.0887811,139.287538 C20.8287456,135.769204 29.3110172,111.369699 44.5355959,66.0890238 Z" id="Skin" fill="#915B3C"></path>
                    <path d="M93.9821969,8.59650281 L109.282172,8.27569767 C115.984042,41.730132 138.256958,61.2830194 183.312837,50.0620138 L193.188805,93.0349061 C150.967786,102.271518 112.026941,88.5079309 100.315404,43.0431089 C97.2836565,31.2737028 94.627417,18.9817017 93.9821969,8.59650281 Z" id="Clothes-Back" fill="#CACFCE" transform="translate(143.585501, 52.012941) rotate(5.000000) translate(-143.585501, -52.012941) "></path>
                    <path d="M90.4215086,0.0141495503 L113.557085,5.2953792 C113.557085,44.9570828 126.232835,70.2619047 132.734375,99.4224599 L70.2513795,99.4224599 C69.3711973,109.498659 68.8306853,119.855165 68.5490266,130.491979 L21.7639568,130.491979 C32.365716,74.268545 54.7424428,30.7712188 88.8941373,0 L90.4093405,0 L90.4215086,0.0141495503 Z" id="Clothes" fill="#E1E7E6"></path>
                    <path d="M80.1095288,42.8397614 C78.4992877,67.55448 79.4463166,86.4153795 82.9506153,99.4224599 L70.2513795,99.4224599 C71.9950178,79.4615388 75.0716403,60.6006425 80.1095261,42.8397709 Z" id="Shade" fill-opacity="0.1" fill="#000000"></path>
                </g>
            </g>
            <g id="ðŸ˜Human/Standing-Copy" transform="translate(362.000000, 198.500000) scale(-1, 1) translate(-362.000000, -198.500000) translate(254.000000, 29.000000)">
                <g id="Head/Front" transform="translate(85.000000, 0.000000)">
                    <g id="Head" transform="translate(15.661765, 3.230769)" fill="#B28B67">
                        <path d="M6.98648159,29.1839534 C3.0900875,24.6073181 0.45292648,18.9985883 0.893597635,12.7138456 C2.16329394,-5.39424818 27.3535369,-1.41069826 32.2535607,7.72871247 C37.1535845,16.8681232 36.5713343,40.0509965 30.2384901,41.6844641 C27.7129606,42.3358887 22.3328319,40.7401593 16.857116,37.4374897 L20.2941176,61.7692308 L0,61.7692308 L6.98648159,29.1839534 Z"></path>
                    </g>
                    <g id="Hijab" transform="translate(0.441176, 0.692308)">
                        <path d="M42.9009193,4.24047616 C42.4360746,3.96284962 41.4635383,3.37725252 40.9708423,3.16501337 C40.8542488,3.11394191 40.0378934,2.53114593 40.01594,2.53846154 C39.3978582,2.7471913 37.6080686,3.51757915 37.4544492,4.1832693 C37.4306391,4.23371587 37.4072658,4.28103793 37.3844932,4.32239502 C37.130882,4.78374249 36.8981866,5.25656542 36.6761949,5.73512608 C36.1890691,6.78564172 35.7685682,7.88359303 35.3669625,8.97290934 C34.5847216,11.0943919 33.9051484,13.2652985 33.2803495,15.4411475 C32.6442463,17.656138 32.1043668,19.8969767 31.4999923,22.1211135 C30.6303199,25.3215163 29.5172485,28.4434088 28.6535833,31.642505 C28.1020717,33.6851932 27.7953245,35.7518549 27.9401516,37.8542496 C27.9415714,37.8795297 27.9423906,37.9044689 27.9446842,37.9301467 C27.945558,37.9406564 27.9468687,37.9510525 27.947797,37.9615622 C27.9724264,38.2847497 28.0075409,38.6087325 28.0543421,38.9336811 C28.0953,39.2115349 28.1363671,39.4904112 28.1801648,39.7692308 C28.9690682,38.195048 29.5713675,36.4604928 30.2105289,34.8141624 C30.2730579,34.6529947 30.3326926,34.490634 30.390962,34.327762 C30.5970621,33.9938944 30.8072033,33.6624127 31.0196928,33.3321809 C32.3597255,31.249783 33.7050555,29.1750544 34.9900408,27.0549921 C37.3012668,23.2419021 39.5909216,19.3481999 42.3310586,15.8467083 C43.1401679,14.8127242 43.9681178,13.7945898 44.7670696,12.752141 C45.2217021,12.1589394 45.6645387,11.5557962 46.0930128,10.941916 C46.3993231,10.5029514 47.73103,8.97290934 47.2487896,8.05362295 C47.002055,7.58327709 44.1067739,4.96075994 42.9009193,4.24047616 Z" id="Front" fill="#2C2C2C"></path>
                        <path d="M41.117588,3.24175584 C41.5696399,3.3937701 41.3497117,2.45245905 40.9118626,2.12120979 C38.8834012,0.586602655 31.1283464,0.0297253516 24.379732,1.43159396 C19.8587928,2.37071456 14.6008264,4.70813779 10.9898181,7.71307998 C7.73459106,10.4220424 5.49588759,14.7646511 4.34329841,18.9603404 C3.13311872,23.365896 2.94983066,27.9588585 3.62405694,32.4765422 C3.77217862,33.4688785 4.0904566,34.4145465 4.26779085,35.3858341 C4.46749359,36.4796331 4.56993236,37.5327454 4.9259363,38.5969182 C5.14394559,39.2484122 5.51441671,39.8870964 5.70043127,40.5423149 C5.91276498,41.2899671 5.78333935,41.9816399 5.62848487,42.7421019 C5.37614385,43.9815488 5.06326324,45.2184564 4.61861999,46.4022061 C3.95090395,48.1797776 3.14063052,49.8446002 2.6326099,51.6892115 C1.95665869,54.1436144 -0.870883072,62.1306536 1.19548313,64.3076923 L40.5310661,64.3076923 C39.540565,61.6040344 36.5673861,58.4220878 35.9654957,55.5278629 C35.6109941,53.8229179 35.4423402,50.0995547 35.4052263,49.9642336 C34.5187944,43.84967 32.7879596,40.9296999 31.7039284,39.8700063 C30.6198971,38.8103127 29.1760477,38.4844515 29.101653,37.5652496 C28.7941697,33.7635039 30.3049329,30.1208368 31.4127295,26.5727478 C32.7330267,22.34399 33.7006029,18.0103272 35.061742,13.7959029 C35.6644671,11.9296786 38.7704189,2.45245905 41.117588,3.24175584 Z" id="Turban" fill="#E1E7E6"></path>
                        <path d="M27.3260595,7.61538462 C25.8427346,12.3250355 25.5237042,14.83903 25.8427346,21.2740918 L25.1150867,21.2740918 C23.7557645,15.2013277 24.9655721,9.48445984 26.4114904,7.61538462 L27.3260595,7.61538462 Z M7.42603228,19.7697993 C10.1902367,26.4815487 11.4505588,30.4449355 19.1696069,35.8762042 L18.5735526,36.2938451 C10.9107305,31.9481091 8.67923764,26.764362 6.84461641,20.049406 L7.42603228,19.7697993 Z M18.7834367,12.9396431 C20.0389313,22.4662882 20.4054713,27.9079153 26.9459316,38.3289004 L26.2500386,38.5416562 C19.5188192,29.4682762 18.4518178,22.0626976 18.1338011,12.9919641 L18.7834367,12.9396431 Z M11.5587291,41.2384226 L12.1540819,40.5142126 C20.2779326,43.0604858 19.3730144,48.3173876 29.6050652,53.6411734 L28.75,54.1596123 C19.7905083,50.4595931 17.6961051,42.523743 11.5587291,41.2384226 Z" id="Shade" fill-opacity="0.2" fill="#000000"></path>
                    </g>
                </g>
                <g id="Bottom/Skinny-Jeans-1" transform="translate(0.000000, 136.000000)">
                    <polygon id="Leg" fill="#997659" points="99.0066667 0 140.398849 105.514906 168.160757 194.718865 179.123333 194.718865 136.681477 4.32362735e-13"></polygon>
                    <path d="M90.6716896,0 C90.230922,37.0786625 83.8029123,86.9990632 82.775933,89.3103583 C82.0912801,90.8512217 58.4559593,110.445985 11.8699707,148.094648 L19.4205168,156.232483 C74.3876677,123.953478 103.143048,105.661363 105.686657,101.35614 C109.502071,94.8983041 121.923744,35.4724553 131.896667,0 L90.6716896,0 Z" id="Leg" fill="#B28B67"></path>
                    <g id="Left-Shoe" transform="translate(23.050251, 165.759279) rotate(50.000000) translate(-23.050251, -165.759279) translate(-1.949749, 156.759279)" fill="#E4E4E4">
                        <path d="M2.11439847,5.93396324 C1.26217654,8.30156545 0.836065574,10.0868511 0.836065574,11.2898202 C0.836065574,12.8226135 1.08723155,15.0593401 1.5895635,18 C3.33856131,18 19.0570991,18 48.745177,18 C49.9705842,13.8813312 49.2632081,11.6577944 46.6230486,11.3293897 C43.9828891,11.000985 41.7896638,10.7044618 40.0433726,10.4398202 L18.2886143,0.579800821 C17.7855848,0.351810192 17.1929758,0.574773284 16.9649852,1.07780282 C16.9594375,1.09004306 16.9541371,1.10239389 16.9490872,1.11484777 L15.60367,4.43289079 C13.1595728,5.59225433 11.1734901,6.17193611 9.64542194,6.17193611 C8.46496397,6.17193611 6.85686212,5.71107985 4.8211164,4.78936733 L4.82111591,4.78936842 C3.81487931,4.33378064 2.62983651,4.78016971 2.17424873,5.78640631 C2.15234778,5.83477796 2.13238187,5.88400261 2.11439847,5.93396324 Z" id="shoe"></path>
                    </g>
                    <g id="Right-Shoe" transform="translate(161.000000, 185.000000)" fill="#E4E4E4">
                        <path d="M2.11439847,5.93396324 C1.26217654,8.30156545 0.836065574,10.0868511 0.836065574,11.2898202 C0.836065574,12.8226135 1.08723155,15.0593401 1.5895635,18 C3.33856131,18 19.0570991,18 48.745177,18 C49.9705842,13.8813312 49.2632081,11.6577944 46.6230486,11.3293897 C43.9828891,11.000985 41.7896638,10.7044618 40.0433726,10.4398202 L18.2886143,0.579800821 C17.7855848,0.351810192 17.1929758,0.574773284 16.9649852,1.07780282 C16.9594375,1.09004306 16.9541371,1.10239389 16.9490872,1.11484777 L15.60367,4.43289079 C13.1595728,5.59225433 11.1734901,6.17193611 9.64542194,6.17193611 C8.46496397,6.17193611 6.85686212,5.71107985 4.8211164,4.78936733 L4.82111591,4.78936842 C3.81487931,4.33378064 2.62983651,4.78016971 2.17424873,5.78640631 C2.15234778,5.83477796 2.13238187,5.88400261 2.11439847,5.93396324 Z" id="shoe"></path>
                    </g>
                    <polygon id="Pant" fill="#244645" points="126.836667 185.530864 178.958432 179.833646 140.33 0 93.6465016 0"></polygon>
                    <path d="M22.6512313,134.965679 L56.84,175.723222 C92.8502935,136.111892 113.844389,110.265492 119.822285,98.1840216 C125.800182,86.1025517 131.174007,53.3745445 135.94376,0 L83.3865697,0 C80.7810884,46.9565961 79.0248127,71.5274542 78.1177426,73.7125744 C77.2106724,75.8976946 58.7218353,96.3153961 22.6512313,134.965679 Z" id="Pant" fill="#295150"></path>
                </g>
                <g id="Body/Long-Sleeve-1" transform="translate(23.000000, 42.000000)">
                    <path d="M150.322323,83.6160063 L174.223992,107.113165 C181.178497,110.102544 186.876723,113.403423 191.31867,117.0158 C192.317598,118.230043 193.405093,120.556595 188.705189,119.515497 C184.005285,118.474398 179.015228,117.592323 178.13189,119.132572 C177.248552,120.672822 179.85138,123.033031 178.218861,125.048821 C177.130516,126.392681 173.470323,122.118125 167.238284,112.225153 L142.383709,97.4583212 L150.322323,83.6160063 Z M33.4432619,62.3502656 L51.9191862,62.4201403 C37.8473338,108.363323 30.3775431,132.418446 29.5098143,134.585507 C27.5574245,139.461396 31.6889439,146.887291 33.4557456,150.877911 C27.7013313,153.472729 28.3144703,143.863057 21.0554316,147.266306 C14.4297177,150.372634 9.38955355,156.001092 1.73449846,151.241204 C0.793354417,150.656003 -0.237986121,148.452618 2.253863,146.730789 C8.46196791,142.441085 17.4082232,134.933331 18.6170032,132.462096 C20.2653906,129.092125 25.2074769,105.721515 33.4432619,62.3502656 Z" id="Skin" fill="#B28B67"></path>
                    <path d="M85.5527522,13.2319955 L92.7110876,11.3398156 C107.729104,51.1242589 168.989619,73.7789328 173.934938,88.7098753 C175.748517,94.1854466 172.002499,97.3613318 174.214253,98.8839645 L165.376677,106.679715 C163.612296,104.938705 160.499322,108.678137 153.159232,106.895088 C145.819142,105.112039 89.7779522,61.5262529 85.5527522,13.2319955 Z" id="Clothes-Back" fill="#E4A602" transform="translate(130.000708, 59.365052) rotate(5.000000) translate(-130.000708, -59.365052) "></path>
                    <path d="M102.015597,14.9767481 C101.174419,69.1807957 132.268358,83.0074068 125.342378,104.751877 C119.623017,122.708102 64.8793106,142.010968 55.40625,124.40963 C51.571676,117.284833 49.831914,108.667894 49.6345165,99.2994204 C47.2134006,106.496872 45.2985669,112.693015 43.8900133,117.887856 C41.4600614,126.849684 32.0396567,128.274206 32.0396567,131.726624 L19.6284065,128.274206 C20.4702324,123.583953 14.6192691,121.30008 16.1880649,110.821646 C23.2171914,63.8721095 42.1031881,29.8398657 72.8460549,8.72491483 L73.1223394,4.74334316 C73.2752656,2.53950363 75.1858017,0.876909893 77.3896413,1.02983612 C77.3910657,1.02993496 77.3924901,1.03003457 77.3939144,1.03013493 L98.8730119,2.54370137 C101.075018,2.69887001 102.735056,4.60853356 102.582246,6.81070445 L102.015597,14.9767481 Z" id="Clothes-Front" fill="#F3B000"></path>
                </g>
            </g>
        </g>
    </g>
</svg>