<?xml version="1.0" encoding="UTF-8"?>
<svg width="500px" height="500px" viewBox="0 0 500 500" version="1.1" xmlns="http://www.w3.org/2000/svg" xmlns:xlink="http://www.w3.org/1999/xlink">
    <!-- Generator: Sketch 55.2 (78181) - https://sketchapp.com -->
    <title>Illustration - Header - Graphic 3</title>
    <desc>Created with Sketch.</desc>
    <defs>
        <polygon id="path-1" points="0.494718519 0 13.7168889 0 13.7168889 13 0.494718519 13"></polygon>
    </defs>
    <g id="Illustration---Header---Graphic-3" stroke="none" stroke-width="1" fill="none" fill-rule="evenodd">
        <g id="3" transform="translate(23.000000, 119.000000)">
            <g id="A-Human/Standing" transform="translate(345.000000, 197.500000) scale(-1, 1) translate(-345.000000, -197.500000) translate(227.000000, 54.000000)">
                <g id="Group-6" transform="translate(216.000000, 197.000000) scale(-1, 1) translate(-216.000000, -197.000000) translate(202.000000, 109.000000)">
                    <path d="M24.898228,171 L16.7584227,171 L16.7584227,16.834472 L16.8015158,16.5078727 C16.923134,15.4924938 16.9743669,12.1234752 15.6121466,10.3986056 C15.3459271,10.060854 14.5367346,9.03697826 12.0028611,9.02795031 C10.2360446,9.08424224 8.1398053,9.86914286 8.1398053,13.2763975 L8.1398053,20.0388199 L0,20.0388199 L0,13.2763975 C0,3.53577019 7.15871936,0 11.9703019,0 C17.1769044,0 20.181929,2.45560248 21.7864283,4.51503727 C25.4359339,9.20107453 25.0753885,15.6905776 24.898228,17.4441242 L24.898228,171 Z" id="Fill-1" fill="#295150"></path>
                    <g id="Group-5" transform="translate(14.000000, 163.000000)">
                        <mask id="mask-2" fill="white">
                            <use xlink:href="#path-1"></use>
                        </mask>
                        <g id="Clip-4"></g>
                    </g>
                </g>
                <g id="Head/Front" transform="translate(80.000000, 0.000000)">
                    <g id="Head" transform="translate(14.661765, 14.230769)" fill="#E6B393">
                        <path d="M6.98648159,29.1839534 C3.0900875,24.6073181 0.45292648,18.9985883 0.893597635,12.7138456 C2.16329394,-5.39424818 27.3535369,-1.41069826 32.2535607,7.72871247 C37.1535845,16.8681232 36.5713343,40.0509965 30.2384901,41.6844641 C27.7129606,42.3358887 22.3328319,40.7401593 16.857116,37.4374897 L20.2941176,61.7692308 L0,61.7692308 L6.98648159,29.1839534 Z"></path>
                    </g>
                    <path d="M49.6747139,20.916824 C50.3301952,20.2668223 50.6877446,19.3390545 50.9970396,18.4581002 C51.3182425,17.5429619 51.6303394,16.6183935 51.8435927,15.6658717 C52.26971,13.7626803 52.2737571,11.5739767 50.9169529,10.0961491 C49.8288166,8.91107489 48.1961062,8.37953858 46.6892464,8.26402016 C45.6853218,8.18697981 44.6542346,8.32767317 43.691871,8.64425427 C42.7370569,8.95830947 41.9140083,9.58423073 40.9883803,9.97271616 C40.9530457,7.92175893 40.6019561,5.77574318 39.562152,4.02452764 C38.5615741,2.33957522 36.9662998,1.39404175 35.1495223,1.14389216 C33.2848018,0.887175195 31.4434301,1.32382137 29.774062,2.22717209 C29.3561168,2.4534097 28.9420631,2.69042455 28.5458323,2.95867651 C28.2140445,3.18331438 27.8691035,3.45383968 27.4797996,3.54519353 C27.0458215,3.64715622 26.8307004,3.39633305 26.5486457,3.07949936 C26.2179475,2.70802174 25.845377,2.3808318 25.451092,2.09077278 C23.7077079,0.808450904 21.4202946,0.281208647 19.4005374,1.049844 C18.4699283,1.40397701 17.5650029,2.00539692 16.9336488,2.834149 C16.3708626,3.57289438 15.9694173,4.74474966 15.1926774,5.25944654 C14.8630689,5.47793803 14.6302804,5.18846839 14.3301693,4.97452355 C13.8793799,4.65305901 13.449449,4.29833662 12.9932116,3.98562858 C12.3523623,3.54628809 11.6585109,3.2176668 10.9154713,3.04565212 C9.82772413,2.79381859 8.32452231,2.85284076 8.01351503,4.2784661 C7.89677056,4.81395967 7.98627466,5.38666837 8.02402204,5.9262034 C8.07577875,6.66705371 8.12979253,7.40765142 8.19407982,8.14740717 C8.24287901,8.70908604 8.30459792,9.25156797 8.41052407,9.80314319 C8.46702839,10.0971595 8.64385735,10.6452826 8.51785115,10.9397199 C8.36040177,11.3077454 7.63370635,11.0985156 7.32324388,11.1113136 C6.71002409,11.1366569 6.09423591,11.2442608 5.52724692,11.5064506 C5.08782073,11.7097024 4.62582394,12.0086021 4.44035589,12.512606 C4.32633545,12.8221987 4.3563777,13.1402112 4.41023582,13.4587288 C4.47483442,13.8409837 4.40097409,14.0437303 4.35271971,14.4294372 C3.52912637,14.0236072 0.675113174,13.1219404 0.316007178,14.598926 C0.196460839,15.0907212 0.468708948,15.6464221 0.676436278,16.0611771 C1.04075686,16.78864 1.51839741,17.4535445 2.00670062,18.0876329 C3.02525723,19.4104536 4.24126765,20.5514085 5.54958403,21.5271688 C4.01672911,22.2090811 3.61660689,24.2204657 4.94375805,25.4188431 C5.52973747,25.9479376 6.317607,26.0657294 7.05675517,26.0318822 C7.32729103,26.0195052 7.71729539,25.9154376 7.93015948,25.9625879 C8.04472472,25.9879313 8.16738425,26.0850947 8.3260789,26.0959562 C9.36922967,26.1674395 10.5467922,25.9159427 11.5665163,25.6843165 C13.3835273,25.2715823 15.1037181,24.4101618 16.5084655,23.0982025 C16.8688167,22.7616667 17.1665151,22.5679292 17.6515495,22.5728968 C18.0765772,22.5771908 18.4935885,22.6938038 18.918227,22.7045811 C20.0417758,22.7332923 21.0548065,22.1836536 22.098113,21.8178172 C22.1620111,23.2282028 22.5633786,24.7815552 23.1399406,26.0504055 C23.6101095,27.0851037 24.5919305,27.2354797 25.5567069,27.3262442 C28.6418741,27.6167242 31.7379375,27.2925654 34.8269962,27.2968594 C31.8367033,27.9732148 28.7467106,28.2519914 25.7829576,29.0479066 C24.4432759,29.4075966 25.4662688,30.3111157 26.039095,30.937458 C26.9823125,31.9688725 27.6836355,33.2468161 28.1700708,34.5931278 C29.632879,32.685053 32.2184578,31.4278219 34.50914,32.0140021 C37.0401601,32.661562 38.8223812,36.086616 37.2039137,38.5489602 C36.2642764,39.9783745 34.5674344,40.5302023 33.1555267,41.1443359 C34.2569719,42.2902585 34.5233828,43.9827045 35.1863357,45.4083298 C35.5132981,46.1113756 35.9722595,46.9062805 36.7034691,47.151294 C36.9740049,47.2419743 37.2912386,47.2497204 37.5046475,47.4704011 C37.7690348,47.7436207 37.831999,48.0490877 38.169624,48.2839135 C39.5168552,49.2211956 41.621291,49.1489545 42.8154313,47.9258232 C43.8953177,46.8196416 43.6143527,45.0691839 42.7124627,43.9476785 C44.1481084,43.3488687 46.7636515,42.5787178 46.1930824,40.3405904 C49.3039334,40.1338865 56.8569894,35.0852598 52.6817401,31.3960796 C54.9731228,30.100202 57.0782591,26.9332121 55.6064227,24.1414888 C54.4730673,21.9917684 51.8372885,21.0308268 49.6747139,20.916824" id="hair" fill="#152C2C" transform="translate(28.191176, 24.807692) scale(-1, 1) translate(-28.191176, -24.807692) "></path>
                </g>
                <g id="Bottom/Skinny-Jeans-1" transform="translate(24.000000, 146.000000)">
                    <g id="Seat" transform="translate(0.000000, 35.000000)" fill="#556A69">
                        <path d="M16.3275862,0 L108.517241,0 C117.353797,-9.47168734e-15 124.517241,7.163444 124.517241,16 L124.517241,89 C124.517241,97.836556 117.353797,105 108.517241,105 L16.3275862,105 C7.49103021,105 0.327586207,97.836556 0.327586207,89 L0.327586207,16 C0.327586207,7.163444 7.49103021,1.623249e-15 16.3275862,0 Z M27.9827586,23.7096774 C25.7736196,23.7096774 23.9827586,25.5005384 23.9827586,27.7096774 L23.9827586,77.2903226 C23.9827586,79.4994616 25.7736196,81.2903226 27.9827586,81.2903226 L96.862069,81.2903226 C99.071208,81.2903226 100.862069,79.4994616 100.862069,77.2903226 L100.862069,27.7096774 C100.862069,25.5005384 99.071208,23.7096774 96.862069,23.7096774 L27.9827586,23.7096774 Z"></path>
                    </g>
                    <path d="M174.400457,17.5428341 C181.37428,13.3625514 193.074701,18.7333577 193.066671,24.7119661 C193.042631,42.5999495 176.689324,126.905951 175.835496,132.235379 C174.981668,137.564807 165.835031,138.97251 165.302392,132.252844 C164.454874,121.560722 162.880291,84.5468222 164.455725,67.4144592 C165.106032,60.3425793 165.806377,53.6075571 166.495852,47.5989704 C157.914674,63.0684663 144.643451,85.2169561 126.682182,114.044448 L116.931498,109.597403 C124.588407,84.4141085 130.866957,66.6353727 135.767148,56.2611956 C144.157465,38.4980858 152.02476,23.2863504 155.33585,17.92814 C160.544196,9.49967227 169.610156,12.4404886 174.400457,17.5428341 Z" id="Skin" fill="#E6B393"></path>
                    <path d="M132.775844,104.263696 L137.15605,18.4484971 C140.286631,3.60851187 166.708846,10.4801057 166.693516,18.4319175 C166.658691,36.4849922 155.764695,98.8545572 155.754322,104.233171 L132.775844,104.263696 Z" id="LegLower" fill="#E06800" transform="translate(149.734680, 56.985835) rotate(20.000000) translate(-149.734680, -56.985835) "></path>
                    <g id="Right-Shoe" transform="translate(134.566987, 119.678203) rotate(30.000000) translate(-134.566987, -119.678203) translate(109.066987, 110.678203)" fill="#E4E4E4">
                        <path d="M2.16813617,5.90054643 C1.29101807,8.2847734 0.852459016,10.081198 0.852459016,11.2898202 C0.852459016,12.8226135 1.10854981,15.0593401 1.62073141,18 C3.40402329,18 19.4307677,18 49.7009648,18 C50.9503996,13.8813312 50.2291533,11.6577944 47.537226,11.3293897 C44.8452987,11.000985 42.609069,10.7044618 40.8285368,10.4398202 L18.6184199,0.567001051 C18.1137497,0.342665546 17.5227738,0.569921732 17.2984383,1.07459195 C17.2948839,1.08258815 17.2914345,1.09063066 17.2880912,1.0987174 L15.9096243,4.43289079 C13.4176037,5.59225433 11.3925782,6.17193611 9.83454786,6.17193611 C8.62026453,6.17193611 6.96218038,5.70286556 4.86029541,4.76472446 L4.86029086,4.76473466 C3.85163644,4.31453868 2.66900453,4.7672587 2.21880855,5.77591312 C2.20052478,5.81687751 2.18362443,5.85844546 2.16813617,5.90054643 Z" id="shoe"></path>
                    </g>
                    <g id="Right-Shoe" transform="translate(161.000000, 122.000000)" fill="#E4E4E4">
                        <path d="M2.16813617,5.90054643 C1.29101807,8.2847734 0.852459016,10.081198 0.852459016,11.2898202 C0.852459016,12.8226135 1.10854981,15.0593401 1.62073141,18 C3.40402329,18 19.4307677,18 49.7009648,18 C50.9503996,13.8813312 50.2291533,11.6577944 47.537226,11.3293897 C44.8452987,11.000985 42.609069,10.7044618 40.8285368,10.4398202 L18.6184199,0.567001051 C18.1137497,0.342665546 17.5227738,0.569921732 17.2984383,1.07459195 C17.2948839,1.08258815 17.2914345,1.09063066 17.2880912,1.0987174 L15.9096243,4.43289079 C13.4176037,5.59225433 11.3925782,6.17193611 9.83454786,6.17193611 C8.62026453,6.17193611 6.96218038,5.70286556 4.86029541,4.76472446 L4.86029086,4.76473466 C3.85163644,4.31453868 2.66900453,4.7672587 2.21880855,5.77591312 C2.20052478,5.81687751 2.18362443,5.85844546 2.16813617,5.90054643 Z" id="shoe"></path>
                    </g>
                    <path d="M195.412249,30.7927683 C195.412249,53.2468619 184.730048,105.623428 184.723288,110.567626 L161.74,110.585249 C165.104041,63.8501555 166.296905,40.2308718 165.318592,39.7273974 C163.851121,38.9721859 105.162209,45.5768041 87.5604496,45.5768041 C62.1786253,45.5768041 51.6786729,29.5988294 50.8266667,-4.54747351e-13 L101.107116,-4.54747351e-13 C111.344667,1.09356118 164.744672,11.8455308 184.576375,15.5416711 C193.066667,17.1240521 195.412249,24.6072435 195.412249,30.7927683 Z" id="Leg-and-Butt" fill="#F77300"></path>
                    <rect id="Guide" fill="#D8D8D8" opacity="0.621698289" x="49.1333333" y="0" width="68.58" height="9.29707113"></rect>
                </g>
                <g id="Body/Long-Sleeve-1" transform="translate(0.000000, 57.000000)">
                    <path d="M166.835937,65.580213 L197.550395,52.1350774 C202.930851,46.7908315 208.126449,42.7289574 213.137188,39.9494552 C214.635494,39.4739844 217.195281,39.330339 214.464189,43.3065059 C211.733097,47.2826728 209.039801,51.5874344 210.131073,52.9809456 C211.222346,54.3744568 214.383524,52.8363999 215.632409,55.1025224 C216.464999,56.6132707 211.136391,58.4204413 199.646585,60.5240341 L176.64327,78.1037824 L166.835937,65.580213 Z M42.6613179,69.2834225 L60.03125,72.718735 C42.5628198,105.16806 33.1948145,122.366222 31.9272341,124.313219 C29.075178,128.693963 31.736204,136.722586 32.7191759,140.950515 C26.5525615,142.381336 28.9844848,133.12979 21.1807535,135.061429 C14.0578695,136.824539 8.01852269,141.349308 1.37672505,135.246935 C0.56015506,134.496684 -0.0376127825,132.151612 2.74648796,130.948836 C9.68269821,127.952282 19.9303647,122.341295 21.5920246,120.162884 C23.8579949,117.19223 30.8810926,100.23241 42.6613179,69.2834225 Z" id="Skin" fill="#E6B393"></path>
                    <path d="M103.511314,8.3576265 L110.70399,6.47040393 C127.953622,20.4569937 137.676138,56.8345315 148.703018,60.7975699 C159.128486,64.5444623 172.942489,58.8274408 189.299364,51.3088191 L195.477963,62.3726906 C181.583388,80.2594821 150.121875,97.0965753 136.175383,90.2761233 C113.877842,79.3716381 105.001434,34.2328593 103.511314,8.3576265 Z" id="Coat-Back" fill="#254746" transform="translate(149.494639, 49.148571) rotate(5.000000) translate(-149.494639, -49.148571) "></path>
                    <path d="M75.2890625,96.3208556 C104.678793,96.3208556 126.297263,96.3208556 140.144472,96.3208556 C143.108033,96.3208556 142.549607,92.0553939 142.121206,89.9030186 C137.176944,65.0620057 117.876418,38.284596 117.876418,2.9240395 L99.1690649,0 C83.6956806,24.8054988 78.344716,55.3460903 75.2890625,96.3208556 Z" id="Shirt" fill="#DDE3E9"></path>
                    <path d="M68.8203896,71.1702717 C55.5991785,94.9418047 44.4860351,112.05617 35.4809594,122.513369 L21.8867188,119.859324 C30.6435102,65.7268781 56.0020097,25.7737701 97.9622172,-9.9475983e-14 L101.338779,-9.9475983e-14 L105.36933,0 C122.16354,57.0633034 126.793407,95.0846938 119.258929,114.064171 L60.8789062,114.064171 C61.8025364,100.176605 64.7640507,85.4899971 68.8203909,71.1702688 Z" id="Coat-Front" fill="#295150"></path>
                </g>
            </g>
            <g id="A-Human/Standing">
                <g id="Head/Front" transform="translate(87.000000, 0.000000)">
                    <path d="M28.7926115,54.7825354 C19.5689565,53.3851801 12.5,45.4225235 12.5,35.8088235 L12.5,20.0373303 C12.5,9.43833622 21.0921824,0.846153846 31.6911765,0.846153846 C39.0147369,0.846153846 45.380173,4.94837176 48.6150183,10.9803411 C49.0751414,11.6066621 49.5433481,12.6198237 50.0294118,14.1227016 C52.9936082,23.2878089 57.747546,50.9418687 53.5411998,55.0190096 L28.8059057,55.0190096 C28.8013112,54.9398177 28.79688,54.860992 28.7926112,54.7825302 Z" id="Hair-Back" fill="#A5581D"></path>
                    <g id="Head" transform="translate(15.058824, 4.230769)" fill="#C99F77">
                        <path d="M7.0472336,29.1839534 C3.11695783,24.6073181 0.456864971,18.9985883 0.90136805,12.7138456 C2.18210519,-5.39424818 27.5913938,-1.41069826 32.5340265,7.72871247 C37.4766592,16.8681232 36.8893459,40.0509965 30.5014335,41.6844641 C27.9539429,42.3358887 22.5270304,40.7401593 17.0036996,37.4374897 L20.4705882,61.7692308 L0,61.7692308 L7.0472336,29.1839534 Z"></path>
                    </g>
                    <path d="M27.6396757,30.3556287 C28.5828388,40.4062493 28.2049794,51.8838395 25.394141,54.6083382 L0.658846862,54.6083382 C-0.719330212,30.8537179 12.6000233,40.0525702 12.6000233,17.6869784 C13.4304334,16.8820759 14.2151036,16.0854062 14.9915417,15.3983578 L14.9640422,14.7405927 C19.2472345,6.04173602 24.6811923,1.69230769 31.2659156,1.69230769 C41.1430006,1.69230769 44.2606169,6.25165729 46.9150514,10.122611 C44.9301222,16.8792253 37.2271317,17.8810811 30.3825435,22.0926638 C29.5757578,21.4423883 28.5469925,21.0526572 27.4264706,21.0526572 C24.8356054,21.0526572 22.7352941,23.1362551 22.7352941,25.7065034 C22.7352941,28.2767516 24.8356054,30.3603495 27.4264706,30.3603495 C27.4979233,30.3603495 27.5690029,30.3587648 27.6396757,30.3556287 Z" id="Hair-Front" fill="#A5581D"></path>
                </g>
                <g id="Bottom/Skinny-Jeans-1" transform="translate(0.000000, 137.000000)">
                    <polygon id="Leg" fill="#C99F77" points="99.9 0 141.619394 105.514906 169.600763 194.718865 180.65 194.718865 137.872635 4.32362735e-13"></polygon>
                    <path d="M91.4991338,0 C91.0548818,37.0786625 84.5760578,86.9990632 83.5409601,89.3103583 C82.850895,90.8512217 59.0287337,110.445985 12.0744764,148.094648 L19.6847106,156.232483 C75.0863844,123.953478 104.06908,105.661363 106.632797,101.35614 C110.478372,94.8983041 122.99824,35.4724553 133.05,0 L91.4991338,0 Z" id="Leg" fill="#C99F77"></path>
                    <g id="Left-Shoe" transform="translate(23.550251, 165.759279) rotate(50.000000) translate(-23.550251, -165.759279) translate(-1.949749, 156.759279)" fill="#E4E4E4">
                        <path d="M2.16813617,5.90054643 C1.29101807,8.2847734 0.852459016,10.081198 0.852459016,11.2898202 C0.852459016,12.8226135 1.10854981,15.0593401 1.62073141,18 C3.40402329,18 19.4307677,18 49.7009648,18 C50.9503996,13.8813312 50.2291533,11.6577944 47.537226,11.3293897 C44.8452987,11.000985 42.609069,10.7044618 40.8285368,10.4398202 L18.6184199,0.567001051 C18.1137497,0.342665546 17.5227738,0.569921732 17.2984383,1.07459195 C17.2948839,1.08258815 17.2914345,1.09063066 17.2880912,1.0987174 L15.9096243,4.43289079 C13.4176037,5.59225433 11.3925782,6.17193611 9.83454786,6.17193611 C8.62026453,6.17193611 6.96218038,5.70286556 4.86029541,4.76472446 L4.86029086,4.76473466 C3.85163644,4.31453868 2.66900453,4.7672587 2.21880855,5.77591312 C2.20052478,5.81687751 2.18362443,5.85844546 2.16813617,5.90054643 Z" id="shoe"></path>
                    </g>
                    <g id="Right-Shoe" transform="translate(163.000000, 185.000000)" fill="#E4E4E4">
                        <path d="M2.16813617,5.90054643 C1.29101807,8.2847734 0.852459016,10.081198 0.852459016,11.2898202 C0.852459016,12.8226135 1.10854981,15.0593401 1.62073141,18 C3.40402329,18 19.4307677,18 49.7009648,18 C50.9503996,13.8813312 50.2291533,11.6577944 47.537226,11.3293897 C44.8452987,11.000985 42.609069,10.7044618 40.8285368,10.4398202 L18.6184199,0.567001051 C18.1137497,0.342665546 17.5227738,0.569921732 17.2984383,1.07459195 C17.2948839,1.08258815 17.2914345,1.09063066 17.2880912,1.0987174 L15.9096243,4.43289079 C13.4176037,5.59225433 11.3925782,6.17193611 9.83454786,6.17193611 C8.62026453,6.17193611 6.96218038,5.70286556 4.86029541,4.76472446 L4.86029086,4.76473466 C3.85163644,4.31453868 2.66900453,4.7672587 2.21880855,5.77591312 C2.20052478,5.81687751 2.18362443,5.85844546 2.16813617,5.90054643 Z" id="shoe"></path>
                    </g>
                    <polygon id="Pant" fill="#244645" points="127.95 185.530864 180.483795 179.833646 141.55 0 94.4974621 0"></polygon>
                    <path d="M22.9409644,134.965679 L57.4,175.723222 C93.6949598,136.111892 114.855016,110.265492 120.880169,98.1840216 C126.905322,86.1025517 132.321628,53.3745445 137.129086,0 L84.156424,0 C81.530346,46.9565961 79.7601867,71.5274542 78.8459461,73.7125744 C77.9317054,75.8976946 59.2967115,96.3153961 22.9409644,134.965679 Z" id="Pant" fill="#295150"></path>
                </g>
                <g id="Body/Long-Sleeve-1" transform="translate(75.000000, 48.000000)">
                    <path d="M24.6028363,1.9445049 C24.8016415,1.29818477 25.0034906,0.650021601 25.2082896,9.9475983e-14 L25.9644368,0.355231775 C26.0824364,0.233666148 26.2013199,0.11523578 26.3210937,-8.52651283e-14 L50.1567282,3.67994212 C50.1567282,17.0638189 60.8219065,29.5862791 67.5687977,40.3605241 C78.0569068,57.1091945 96.7194604,75.6735494 84.7537885,100.555751 C73.9721051,122.97589 45.8881652,126.616782 0.501968905,111.478428 C0.501968905,99.4026008 10.4425265,87.262639 10.7593083,72.5792894 C11.0608706,58.6013851 13.6784661,16.2507644 24.6028363,1.9445049 Z" id="Shirt" fill="#5D8F2B"></path>
                    <path d="M54.211467,94.1987605 C55.8054808,85.9849289 56.8395552,80.5012763 57.3136902,77.7478024 C70.0121681,92.0755481 77.3481718,99.3225194 79.3217015,99.4887162 C83.0333054,99.8012815 85.7758805,96.5149133 86.5567936,97.4388109 C87.8475087,101.26502 84.2019815,110.842646 77.233632,112.235294 C73.9061047,112.900311 68.756949,106.048827 66.635409,103.621191 C65.8009709,102.666361 61.6596569,99.5255504 54.211467,94.1987605 L54.211467,94.1987605 Z M76.1462035,50.4058233 C79.4379646,50.4058233 81.2061438,51.7646293 83.1524776,54.5060852 C85.0988114,57.2475411 86.9405769,70.1768499 83.8156903,70.1768499 C80.6908036,70.1768499 67.5983801,65.1787944 67.5983801,61.8186985 C67.5983801,58.4586026 76.5318893,57.0356331 76.5318893,54.5060852 C76.5318893,51.9765372 72.8544425,50.4058233 76.1462035,50.4058233 Z" id="Skin" fill="#C99F77"></path>
                    <path d="M47.5659377,106.698035 C47.3703957,107.396973 47.1710495,108.109037 46.9678992,108.834225 C9.6728832,82.8079779 9.65499063,51.2680862 20.7467518,15.9157986 C12.3865851,50.719192 15.7924962,80.0724828 47.5659377,106.698035 Z" id="Shade" fill-opacity="0.2" fill="#000000"></path>
                </g>
            </g>
        </g>
    </g>
</svg>